<?xml version="1.0" encoding="utf-8"?>
<svg version="1.1" xmlns:xlink="http://www.w3.org/1999/xlink" width="19px" height="24px" xmlns="http://www.w3.org/2000/svg">
  <g transform="matrix(1 0 0 1 -46 -793 )">
    <path d="M 16.3875 9.600000000000001  C 16.98125 9.600000000000001  17.21875 10.080000000000002  17 10.560000000000002  L 17 20.64  C 17.21875 22.439999999999998  15.793750000000001 24  13.893749999999999 24  L 5.106250000000001 24  C 3.3249999999999997 24  1.78125 22.560000000000002  2 20.64  L 2 10.560000000000002  C 1.78125 10.080000000000002  2.1374999999999997 9.600000000000001  2.7312499999999997 9.600000000000001  C 3.3249999999999997 9.600000000000001  3.6812499999999995 9.96  4 10.560000000000002  L 4 20.64  C 3.6812499999999995 21.479999999999997  4.39375 22.08  5.106250000000001 22.08  L 14.012500000000001 22.08  C 14.84375 22.08  15.4375 21.36  15.4375 20.64  L 15.4375 10.560000000000002  C 15.4375 10.080000000000002  15.793750000000001 9.600000000000001  16.3875 9.600000000000001  Z M 15.674999999999999 2.4000000000000004  C 17.575 2.4000000000000004  19 3.84  19 5.640000000000001  L 19 7.439999999999999  C 19 7.919999999999999  18.64375 8.399999999999999  18.05 8.399999999999999  L 0.9499999999999997 8.399999999999999  C 0.4750000000000004 8.280000000000001  0 7.919999999999999  0 7.439999999999999  L 0 5.640000000000001  C 0 3.84  1.5437499999999997 2.4000000000000004  3.3249999999999997 2.4000000000000004  L 5.700000000000001 2.4000000000000004  L 5.700000000000001 1.4400000000000004  C 5.700000000000001 0.6000000000000001  6.293750000000001 0  7.125 0  L 11.875 0  C 12.706249999999999 0  13.299999999999999 0.7200000000000002  13.299999999999999 1.4400000000000004  L 13.299999999999999 2.4000000000000004  L 15.674999999999999 2.4000000000000004  Z M 7.362499999999999 1.7999999999999998  L 7.362499999999999 2.4000000000000004  L 11.518749999999999 2.4000000000000004  L 11.518749999999999 1.7999999999999998  L 7.362499999999999 1.7999999999999998  Z M 17.337500000000002 6.48  L 17.337500000000002 5.640000000000001  C 17.337500000000002 4.800000000000001  16.506249999999998 4.199999999999999  15.793750000000001 4.199999999999999  L 3.3249999999999997 4.199999999999999  C 2.4937499999999995 4.199999999999999  1.8999999999999995 4.92  1.8999999999999995 5.640000000000001  L 1.8999999999999995 6.48  L 17.337500000000002 6.48  Z M 7.125 20.04  C 7.71875 20.04  8.075000000000001 19.560000000000002  8.075000000000001 19.08  L 8.075000000000001 12  C 8.075000000000001 11.52  7.71875 11.04  7.125 11.04  C 6.53125 11.04  6.174999999999999 11.52  6.174999999999999 12  L 6.174999999999999 19.08  C 6.174999999999999 19.560000000000002  6.53125 20.04  7.125 20.04  Z M 11.875 20.04  C 12.46875 20.04  12.825000000000001 19.560000000000002  12.825000000000001 19.08  L 12.825000000000001 12  C 12.825000000000001 11.52  12.46875 11.04  11.875 11.04  C 11.28125 11.04  10.924999999999999 11.399999999999999  10.924999999999999 12  L 10.924999999999999 19.08  C 10.924999999999999 19.560000000000002  11.28125 20.04  11.875 20.04  Z " fill-rule="nonzero" fill="#cd291c" stroke="none" transform="matrix(1 0 0 1 46 793 )" />
  </g>
</svg>