<?xml version="1.0" encoding="utf-8"?>
<svg version="1.1" xmlns:xlink="http://www.w3.org/1999/xlink" width="28px" height="9px" xmlns="http://www.w3.org/2000/svg">
  <g transform="matrix(1 0 0 1 -45 -765 )">
    <path d="M 27.9 1.1999999999999993  C 27.6 0.6000000000000014  27 0.1999999999999993  26.3 0.1999999999999993  L 1.7000000000000002 0.1999999999999993  C 1 0.1999999999999993  0.40000000000000036 0.5999999999999979  0.20000000000000018 1.1999999999999993  C 0 1.8000000000000007  0.10000000000000053 2.5  0.6000000000000005 2.8999999999999986  C 2.700000000000001 4.899999999999999  7.300000000000001 8.299999999999997  14.100000000000003 8.399999999999999  C 20.8 8.299999999999997  25.400000000000002 4.899999999999999  27.5 2.8999999999999986  C 28 2.3999999999999986  28.1 1.7999999999999972  27.9 1.1999999999999993  Z M 25.6 2.1000000000000014  C 23.5 3.8999999999999986  19.6 6.5  14 6.600000000000001  C 8.4 6.5  4.5 3.900000000000002  2.4000000000000004 2.1000000000000014  L 25.6 2.1000000000000014  Z " fill-rule="nonzero" fill="#014a93" stroke="none" transform="matrix(1 0 0 1 45 765 )" />
  </g>
</svg>