<?xml version="1.0" encoding="utf-8"?>
<svg version="1.1" xmlns:xlink="http://www.w3.org/1999/xlink" width="10px" height="11px" xmlns="http://www.w3.org/2000/svg">
  <g transform="matrix(1 0 0 1 -54 -753 )">
    <path d="M 8.799999999999997 2.3999999999999986  C 8.100000000000001 2.0999999999999996  5.899999999999999 1.1999999999999993  5.800000000000001 1.0999999999999996  C 5.699999999999999 1  5.400000000000002 0.9000000000000004  5 0.9000000000000004  C 4.699999999999999 0.9000000000000004  4.399999999999999 1  4.199999999999999 1.0999999999999996  C 3.599999999999998 1.4000000000000004  1.799999999999999 2.1999999999999993  1.3999999999999986 2.4000000000000004  C 0.7999999999999989 2.700000000000001  0.4999999999999982 3.200000000000001  0.5999999999999979 3.9  C 0.6999999999999975 5.5  1.2999999999999972 9.3  4.299999999999997 10.7  C 4.4999999999999964 10.8  4.799999999999997 10.899999999999999  4.9999999999999964 10.899999999999999  C 4.9999999999999964 10.899999999999999  4.9999999999999964 10.899999999999999  5.099999999999998 10.899999999999999  C 5.399999999999999 10.899999999999999  5.599999999999998 10.799999999999997  5.899999999999999 10.7  C 8.899999999999999 9.3  9.5 5.399999999999999  9.599999999999998 3.899999999999999  C 9.599999999999998 3.2999999999999985  9.299999999999997 2.6999999999999993  8.799999999999997 2.3999999999999986  Z M 7.600000000000001 3.9  C 7.5 5.100000000000001  7 8  5 9  C 3 8  2.5 5.300000000000001  2.4000000000000004 4  C 2.9000000000000004 3.8000000000000007  4.100000000000001 3.1999999999999993  5 2.8000000000000007  C 5.800000000000001 3.1000000000000014  7 3.700000000000001  7.600000000000001 3.9  Z " fill-rule="nonzero" fill="#014a93" stroke="none" transform="matrix(1 0 0 1 54 753 )" />
  </g>
</svg>