<?xml version="1.0" encoding="utf-8"?>
<svg version="1.1" xmlns:xlink="http://www.w3.org/1999/xlink" width="34px" height="16px" xmlns="http://www.w3.org/2000/svg">
  <g transform="matrix(1 0 0 1 -42 -744 )">
    <path d="M 4.1 15.399999999999999  C 4.3 15.5  4.5 15.600000000000001  4.7 15.600000000000001  C 4.8 15.600000000000001  4.9 15.600000000000001  5 15.600000000000001  C 6.6 15.100000000000001  8.2 14.700000000000003  10 14.5  C 10.5 14.399999999999999  10.9 13.899999999999999  10.8 13.399999999999999  C 10.700000000000001 12.899999999999999  10.200000000000001 12.499999999999998  9.700000000000001 12.599999999999998  C 8.100000000000001 12.899999999999999  6.500000000000001 13.2  5.000000000000001 13.599999999999998  C 3.6000000000000014 12.499999999999998  3.000000000000001 11.099999999999998  3.000000000000001 10.599999999999998  C 9 8.499999999999998  12.600000000000001 5.499999999999998  15.2 3.099999999999998  C 16.3 2.099999999999998  18 2.099999999999998  19.099999999999998 3.099999999999998  C 21.599999999999998 5.499999999999998  25.299999999999997 8.499999999999998  31.299999999999997 10.599999999999998  C 31.299999999999997 11.099999999999998  30.699999999999996 12.399999999999999  29.299999999999997 13.599999999999998  C 27.799999999999997 13.2  26.199999999999996 12.799999999999997  24.499999999999996 12.499999999999998  C 23.999999999999996 12.399999999999999  23.499999999999996 12.799999999999999  23.399999999999995 13.299999999999997  C 23.299999999999994 13.799999999999997  23.699999999999996 14.299999999999997  24.199999999999996 14.399999999999999  C 25.799999999999997 14.7  27.39999999999999 15  28.899999999999995 15.5  C 29.399999999999995 15.600000000000001  29.799999999999994 15.5  30.199999999999996 15.3  C 32.099999999999994 13.900000000000002  33.3 11.8  33.099999999999994 10.4  C 32.99999999999999 9.700000000000001  32.599999999999994 9.200000000000001  31.999999999999993 9  C 26.299999999999994 7  22.799999999999994 4.2  20.39999999999999 1.9000000000000004  C 18.59999999999999 0.20000000000000018  15.699999999999992 0.20000000000000018  13.899999999999991 1.9000000000000004  C 11.3 4.1  7.9 7  2.1 8.9  C 1.5 9.1  1.1 9.6  1 10.3  C 0.8 11.8  2.1 14  4.1 15.399999999999999  Z " fill-rule="nonzero" fill="#014a93" stroke="none" transform="matrix(1 0 0 1 42 744 )" />
  </g>
</svg>