<?xml version="1.0" encoding="utf-8"?>
<svg version="1.1" xmlns:xlink="http://www.w3.org/1999/xlink" width="5px" height="8px" xmlns="http://www.w3.org/2000/svg">
  <g transform="matrix(1 0 0 1 -51 -2035 )">
    <path d="M 3.8500000000000005 5.832727272727272  L 3.8428571428571425 5.832727272727272  L 3.135714285714286 5.832727272727272  L 3.135714285714286 0.9890909090909087  C 3.135714285714286 0.5890909090909081  2.8142857142857154 0.2618181818181814  2.4214285714285717 0.2618181818181814  L 1.2714285714285722 0.2618181818181814  C 0.8785714285714288 0.2618181818181814  0.5571428571428579 0.5890909090909081  0.5571428571428579 0.9890909090909087  C 0.5571428571428579 1.3890909090909092  0.8785714285714288 1.7163636363636359  1.2714285714285722 1.7163636363636359  L 1.7071428571428577 1.7163636363636359  L 1.7071428571428577 5.832727272727272  L 1.0000000000000016 5.832727272727272  C 0.6071428571428582 5.832727272727272  0.28571428571428725 6.159999999999999  0.28571428571428725 6.56  C 0.28571428571428725 6.96  0.6071428571428582 7.287272727272727  1.0000000000000016 7.287272727272727  L 3.8500000000000005 7.287272727272727  C 4.242857142857144 7.287272727272727  4.564285714285715 6.96  4.564285714285715 6.56  C 4.564285714285715 6.159999999999999  4.242857142857144 5.832727272727272  3.8500000000000005 5.832727272727272  Z " fill-rule="nonzero" fill="#01498b" stroke="none" transform="matrix(1 0 0 1 51 2035 )" />
  </g>
</svg>