<?xml version="1.0" encoding="utf-8"?>
<svg version="1.1" xmlns:xlink="http://www.w3.org/1999/xlink" width="24px" height="24px" xmlns="http://www.w3.org/2000/svg">
  <g transform="matrix(1 0 0 1 -41 -2025 )">
    <path d="M 24 12  C 24 5.385  18.615000000000002 0  12 0  C 5.385 0  0 5.385  0 12  C 0 18.615000000000002  5.385 24  12 24  C 18.615000000000002 24  24 18.615000000000002  24 12  Z M 22.5 12  C 22.5 17.79  17.79 22.5  12 22.5  C 6.210000000000001 22.5  1.5 17.79  1.5 12  C 1.5 6.210000000000001  6.210000000000001 1.5  12 1.5  C 17.79 1.5  22.5 6.210000000000001  22.5 12  Z " fill-rule="nonzero" fill="#01498b" stroke="none" transform="matrix(1 0 0 1 41 2025 )" />
  </g>
</svg>