<?xml version="1.0" encoding="utf-8"?>
<svg version="1.1" xmlns:xlink="http://www.w3.org/1999/xlink" width="18px" height="17px" xmlns="http://www.w3.org/2000/svg">
  <g transform="matrix(1 0 0 1 -352 -24 )">
    <path d="M 9 6.328958333333333  L 14.95546875 0.33291666666666686  C 15.394921875 -0.10979166666666645  16.10859375 -0.10979166666666645  16.548046875 0.33291666666666686  C 16.9875 0.7756250000000002  16.9875 1.494583333333333  16.548046875 1.9372916666666664  L 10.592578125000001 7.933333333333334  L 16.544531250000002 13.932916666666667  C 16.983984375000002 14.375625  16.983984375000002 15.094583333333336  16.544531250000002 15.537291666666668  C 16.105078125000002 15.98  15.39140625 15.98  14.951953125 15.537291666666668  L 9 9.537708333333333  L 3.04453125 15.533750000000001  C 2.605078125 15.976458333333333  1.8914062500000004 15.976458333333333  1.4519531250000004 15.533750000000001  C 1.0125000000000004 15.09104166666667  1.0125000000000004 14.372083333333332  1.4519531250000004 13.929374999999997  L 7.407421875 7.933333333333334  L 1.45546875 1.9337499999999999  C 1.016015625 1.4910416666666664  1.016015625 0.7756250000000002  1.45546875 0.33291666666666686  C 1.894921875 -0.10979166666666645  2.60859375 -0.10979166666666645  3.048046875 0.33291666666666686  L 9 6.328958333333333  Z " fill-rule="nonzero" fill="#4a4a4a" stroke="none" transform="matrix(1 0 0 1 352 24 )" />
  </g>
</svg>