<?xml version="1.0" encoding="utf-8"?>
<svg version="1.1" xmlns:xlink="http://www.w3.org/1999/xlink" width="32px" height="32px" xmlns="http://www.w3.org/2000/svg">
  <g transform="matrix(1 0 0 1 -21 -404 )">
    <path d="M 22.70625 12.70625  L 14.70625 20.70625  C 14.31875 21.1  13.68125 21.1  13.29375 20.70625  L 9.29375 16.70625  C 8.9 16.31875  8.9 15.68125  9.29375 15.29375  C 9.68125 14.9  10.31875 14.9  10.70625 15.29375  L 14 18.5875  L 21.29375 11.29375  C 21.68125 10.9  22.31875 10.9  22.70625 11.29375  C 23.1 11.68125  23.1 12.31875  22.70625 12.70625  Z M 16 0  C 24.8375 0  32 7.1625  32 16  C 32 24.8375  24.8375 32  16 32  C 7.1625 32  0 24.8375  0 16  C 0 7.1625  7.1625 0  16 0  Z M 30 16  C 30 8.26875  23.73125 2  16 2  C 8.26875 2  2 8.26875  2 16  C 2 23.73125  8.26875 30  16 30  C 23.73125 30  30 23.73125  30 16  Z " fill-rule="nonzero" fill="#598527" stroke="none" transform="matrix(1 0 0 1 21 404 )" />
  </g>
</svg>