<?xml version="1.0" encoding="utf-8"?>
<svg version="1.1" xmlns:xlink="http://www.w3.org/1999/xlink" width="20px" height="20px" xmlns="http://www.w3.org/2000/svg">
  <g transform="matrix(1 0 0 1 -313 -20 )">
    <path d="M 10 7.445833333333333  L 16.6171875 0.3916666666666669  C 17.10546875 -0.12916666666666643  17.8984375 -0.12916666666666643  18.38671875 0.3916666666666669  C 18.875 0.9125000000000003  18.875 1.7583333333333329  18.38671875 2.2791666666666663  L 11.76953125 9.333333333333334  L 18.3828125 16.391666666666666  C 18.87109375 16.912499999999998  18.87109375 17.758333333333336  18.3828125 18.27916666666667  C 17.89453125 18.8  17.1015625 18.8  16.61328125 18.27916666666667  L 10 11.220833333333333  L 3.3828125 18.275000000000002  C 2.89453125 18.795833333333334  2.1015625000000004 18.795833333333334  1.6132812500000004 18.275000000000002  C 1.1250000000000004 17.75416666666667  1.1250000000000004 16.90833333333333  1.6132812500000004 16.387499999999996  L 8.23046875 9.333333333333334  L 1.6171875000000002 2.275  C 1.1289062500000002 1.7541666666666664  1.1289062500000002 0.9125000000000003  1.6171875000000002 0.3916666666666669  C 2.10546875 -0.12916666666666643  2.8984374999999996 -0.12916666666666643  3.3867187499999996 0.3916666666666669  L 10 7.445833333333333  Z " fill-rule="nonzero" fill="#dbeaf9" stroke="none" transform="matrix(1 0 0 1 313 20 )" />
  </g>
</svg>