<?xml version="1.0" encoding="utf-8"?>
<svg version="1.1" xmlns:xlink="http://www.w3.org/1999/xlink" width="14px" height="14px" xmlns="http://www.w3.org/2000/svg">
  <g transform="matrix(1 0 0 1 -23 -138 )">
    <path d="M 0 7  C 0 10.866406249999999  3.1335937499999997 14  7 14  C 10.866406249999999 14  14 10.866406249999999  14 7  C 14 3.1335937500000006  10.866406249999999 0  7 0  C 3.1335937500000006 0  0 3.1335937499999997  0 7  Z M 10.087109374999999 5.712109375  L 10.08984375 5.71484375  L 6.58984375 9.21484375  C 6.3328125 9.471874999999999  5.9171875 9.471874999999999  5.662890625 9.21484375  L 3.9128906249999997 7.46484375  C 3.6558593749999995 7.207812500000001  3.6558593749999995 6.7921875  3.9128906249999997 6.537890625  C 4.169921875 6.28359375  4.5855468749999995 6.2808593749999995  4.83984375 6.537890625  L 6.125 7.823046875000001  L 9.16015625 4.78515625  C 9.417187499999999 4.528125  9.832812500000001 4.528125  10.087109374999999 4.78515625  C 10.341406249999999 5.0421875  10.344140624999998 5.4578125  10.087109374999999 5.712109375  Z " fill-rule="nonzero" fill="#598527" stroke="none" transform="matrix(1 0 0 1 23 138 )" />
  </g>
</svg>