<?xml version="1.0" encoding="utf-8"?>
<svg version="1.1" xmlns:xlink="http://www.w3.org/1999/xlink" width="24px" height="7px" xmlns="http://www.w3.org/2000/svg">
  <g transform="matrix(1 0 0 1 -24 -21 )">
    <path d="M 5.699999999999999 3.5  C 5.699999999999999 4.949747468305832  4.491168824543141 6.125  3 6.125  C 1.508831175456857 6.125  0.30000000000000004 4.949747468305832  0.30000000000000004 3.5  C 0.30000000000000004 2.050252531694169  1.508831175456857 0.875  3 0.875  C 4.491168824543141 0.875  5.699999999999999 2.050252531694169  5.699999999999999 3.5  Z M 14.700000000000001 3.5  C 14.700000000000001 4.949747468305832  13.49116882454314 6.125  12 6.125  C 10.508831175456859 6.125  9.3 4.949747468305832  9.3 3.5  C 9.3 2.050252531694169  10.508831175456859 0.875  12 0.875  C 13.49116882454314 0.875  14.700000000000001 2.050252531694169  14.700000000000001 3.5  Z M 23.700000000000003 3.5  C 23.700000000000003 4.949747468305832  22.491168824543138 6.125  21 6.125  C 19.508831175456855 6.125  18.299999999999997 4.949747468305832  18.299999999999997 3.5  C 18.299999999999997 2.050252531694169  19.508831175456855 0.875  21 0.875  C 22.491168824543138 0.875  23.700000000000003 2.050252531694169  23.700000000000003 3.5  Z " fill-rule="nonzero" fill="#014a93" stroke="none" transform="matrix(1 0 0 1 24 21 )" />
  </g>
</svg>