<?xml version="1.0" encoding="utf-8"?>
<svg version="1.1" xmlns:xlink="http://www.w3.org/1999/xlink" width="32px" height="28px" xmlns="http://www.w3.org/2000/svg">
  <g transform="matrix(1 0 0 1 -180 -577 )">
    <path d="M 31.6 12.799999999999997  C 32.2 11.1  31.4 9.4  29.9 8.8  L 8.899999999999999 1.1000000000000005  C 7.300000000000001 0.6000000000000001  5.5 1.4  5 3  L 0.2999999999999998 15.7  C -0.30000000000000027 17.3  0.5 19  2.0999999999999996 19.599999999999998  L 23.1 27.299999999999997  C 24.700000000000003 27.9  26.400000000000002 27.099999999999998  27 25.499999999999996  L 31.6 12.799999999999997  Z M 19.9 18.4  C 19.7 18.9  19.2 19.2  18.7 19.2  C 18.599999999999998 19.2  18.4 19.2  18.3 19.099999999999998  L 7.699999999999999 15.2  C 7.1 15  6.699999999999999 14.299999999999999  6.899999999999999 13.6  C 7.099999999999998 13  7.799999999999999 12.6  8.499999999999998 12.799999999999999  L 19.099999999999998 16.7  C 19.8 17  20.1 17.7  19.9 18.4  Z M 26.5 15.399999999999999  C 26.3 15.899999999999999  25.8 16.2  25.3 16.2  C 25.2 16.2  25 16.2  24.900000000000002 16.099999999999998  L 9.500000000000002 10.499999999999998  C 8.900000000000002 10.299999999999999  8.500000000000002 9.599999999999998  8.700000000000001 8.899999999999999  C 8.9 8.299999999999999  9.600000000000001 7.899999999999999  10.3 8.099999999999998  L 25.700000000000003 13.699999999999998  C 26.4 14  26.7 14.8  26.5 15.399999999999999  Z " fill-rule="nonzero" fill="#20519f" stroke="none" transform="matrix(1 0 0 1 180 577 )" />
  </g>
</svg>