<?xml version="1.0" encoding="utf-8"?>
<svg version="1.1" xmlns:xlink="http://www.w3.org/1999/xlink" width="44px" height="44px" xmlns="http://www.w3.org/2000/svg">
  <defs>
    <filter x="664px" y="8px" width="44px" height="44px" filterUnits="userSpaceOnUse" id="filter24">
      <feOffset dx="0" dy="2" in="SourceAlpha" result="shadowOffsetInner" />
      <feGaussianBlur stdDeviation="5" in="shadowOffsetInner" result="shadowGaussian" />
      <feComposite in2="shadowGaussian" operator="atop" in="SourceAlpha" result="shadowComposite" />
      <feColorMatrix type="matrix" values="0 0 0 0 0  0 0 0 0 0  0 0 0 0 0  0 0 0 0.0392156862745098 0  " in="shadowComposite" />
    </filter>
    <g id="widget25">
      <path d="M 6.989999999999995 3.9854545454545485  C 6.464999999999993 3.9854545454545485  6.037499999999998 3.570909090909094  6.037499999999998 3.0690909090909138  L 6.037499999999998 1.156363636363639  C 6.037499999999998 0.6472727272727277  6.464999999999993 0.24000000000000393  6.989999999999995 0.24000000000000393  L 7.094999999999995 0.24000000000000393  C 7.619999999999997 0.24000000000000393  8.047499999999992 0.6545454545454586  8.047499999999992 1.156363636363639  L 8.047499999999992 3.0690909090909138  C 8.047499999999992 3.5781818181818243  7.619999999999997 3.9854545454545485  7.094999999999995 3.9854545454545485  L 6.989999999999995 3.9854545454545485  Z M 23.617499999999986 4.981818181818188  C 23.617499999999986 3.7454545454545496  22.574999999999996 2.734545454545458  21.300000000000004 2.734545454545458  L 19.087500000000013 2.734545454545458  L 19.087500000000013 3.032727272727274  C 19.087500000000013 4.145454545454547  18.150000000000013 5.0545454545454565  16.995000000000008 5.0545454545454565  L 16.882500000000004 5.0545454545454565  C 15.7275 5.0545454545454565  14.79 4.145454545454547  14.79 3.032727272727274  L 14.79 2.734545454545458  L 9.195000000000004 2.734545454545458  L 9.195000000000004 3.032727272727274  C 9.195000000000004 4.145454545454547  8.257500000000004 5.0545454545454565  7.102499999999999 5.0545454545454565  L 6.989999999999995 5.0545454545454565  C 5.83499999999999 5.0545454545454565  4.89749999999999 4.145454545454547  4.89749999999999 3.032727272727274  L 4.89749999999999 2.734545454545458  L 2.684999999999988 2.734545454545458  C 1.4024999999999928 2.734545454545458  0.3674999999999855 3.7381818181818183  0.3674999999999855 4.981818181818188  L 0.3674999999999855 7  L 23.617499999999986 7  L 23.617499999999986 4.981818181818188  Z M 15.930000000000007 3.0690909090909138  C 15.930000000000007 3.5781818181818243  16.3575 3.9854545454545485  16.882500000000004 3.9854545454545485  L 16.987500000000004 3.9854545454545485  C 17.512500000000006 3.9854545454545485  17.94 3.570909090909094  17.94 3.0690909090909138  L 17.94 1.156363636363639  C 17.94 0.6472727272727277  17.512500000000006 0.24000000000000393  16.987500000000004 0.24000000000000393  L 16.882500000000004 0.24000000000000393  C 16.3575 0.24000000000000393  15.930000000000007 0.6545454545454586  15.930000000000007 1.156363636363639  L 15.930000000000007 3.0690909090909138  Z M 0.37500000000001066 8.312727272727278  L 0.3675000000000068 8.312727272727278  L 23.617500000000007 8.312727272727278  L 23.617500000000007 21.934545454545464  C 23.617500000000007 22.80727272727274  22.890000000000008 23.512727272727282  21.990000000000016 23.512727272727282  L 2.002500000000012 23.512727272727282  C 1.1025000000000098 23.512727272727282  0.37500000000001066 22.80727272727274  0.37500000000001066 21.934545454545464  L 0.37500000000001066 8.312727272727278  Z M 7.64250000000002 16.109090909090913  L 7.642500000000009 16.116363636363644  L 11.715000000000003 20.05818181818183  L 11.737500000000004 20.080000000000013  C 11.8125 20.14545454545456  11.910000000000007 20.181818181818194  12.015000000000008 20.181818181818194  C 12.120000000000008 20.181818181818194  12.217500000000005 20.14545454545456  12.285000000000007 20.080000000000013  L 12.315000000000012 20.050909090909094  L 16.387500000000017 16.109090909090913  C 17.54250000000002 14.989090909090908  17.54250000000002 13.170909090909092  16.387500000000017 12.050909090909094  C 15.232500000000012 10.930909090909092  13.35000000000002 10.930909090909092  12.195000000000014 12.050909090909094  L 12.015000000000018 12.225454545454548  L 11.835000000000022 12.050909090909094  C 10.680000000000017 10.930909090909092  8.797500000000024 10.930909090909092  7.64250000000002 12.050909090909094  C 6.480000000000022 13.170909090909099  6.480000000000022 14.989090909090919  7.64250000000002 16.109090909090913  Z " fill-rule="nonzero" fill="#009a3c" stroke="none" transform="matrix(1 0 0 1 674 16 )" />
    </g>
  </defs>
  <g transform="matrix(1 0 0 1 -664 -8 )">
    <use xlink:href="#widget25" filter="url(#filter24)" />
    <use xlink:href="#widget25" />
  </g>
</svg>