<?xml version="1.0" encoding="utf-8"?>
<svg version="1.1" xmlns:xlink="http://www.w3.org/1999/xlink" width="44px" height="44px" xmlns="http://www.w3.org/2000/svg">
  <defs>
    <filter x="992px" y="8px" width="44px" height="44px" filterUnits="userSpaceOnUse" id="filter29">
      <feOffset dx="0" dy="2" in="SourceAlpha" result="shadowOffsetInner" />
      <feGaussianBlur stdDeviation="5" in="shadowOffsetInner" result="shadowGaussian" />
      <feComposite in2="shadowGaussian" operator="atop" in="SourceAlpha" result="shadowComposite" />
      <feColorMatrix type="matrix" values="0 0 0 0 0  0 0 0 0 0  0 0 0 0 0  0 0 0 0.0392156862745098 0  " in="shadowComposite" />
    </filter>
    <g id="widget30">
      <path d="M 0 6.349090909090592  L 0 6.472727272727008  C 0 7.4181818181816865  0.7799999999999727 8.181818181818182  1.7400000000000375 8.181818181818182  L 22.252500000000055 8.181818181818182  C 23.212500000000034 8.181818181818182  23.992500000000007 7.4181818181816865  23.992500000000007 6.472727272727008  L 23.992500000000007 6.349090909090592  C 23.992500000000007 5.672727272727405  23.58000000000004 5.054545454545322  22.950000000000017 4.778181818181606  L 12.697500000000048 0.3709090909092497  C 12.255000000000024 0.18181818181818182  11.744999999999976 0.18181818181818182  11.302500000000038 0.3709090909092497  L 1.0424999999999898 4.778181818181606  C 0.4049999999999727 5.047272727272436  0 5.665454545454519  0 6.349090909090592  Z M 24 22.094545454545532  C 24 21.29454545454527  23.325000000000017 20.64000000000008  22.5 20.64000000000008  L 1.5 20.64000000000008  C 0.674999999999983 20.64000000000008  0 21.29454545454527  0 22.094545454545532  C 0 22.89454545454514  0.674999999999983 23.54909090909099  1.5 23.54909090909099  L 22.5 23.54909090909099  C 23.325000000000017 23.54909090909099  24 22.89454545454514  24 22.094545454545532  Z M 2.25 18.21818181818195  C 2.25 19.018181818181553  2.924999999999983 19.672727272727407  3.75 19.636363636363637  L 20.25 19.636363636363637  C 21.075000000000017 19.672727272727407  21.75 19.018181818181553  21.75 18.21818181818195  C 21.75 17.418181818181687  21.075000000000017 16.763636363636497  20.25 16.727272727272727  L 3.75 16.727272727272727  C 2.924999999999983 16.763636363636497  2.25 17.418181818181687  2.25 18.21818181818195  Z M 7.110000000000014 10.647272727272965  C 7.110000000000014 9.847272727272701  6.435000000000031 9.19272727272751  5.610000000000014 9.19272727272751  C 4.784999999999997 9.19272727272751  4.110000000000014 9.847272727272701  4.110000000000014 10.647272727272965  L 4.110000000000014 14.283636363636603  C 4.110000000000014 15.083636363636206  4.784999999999997 15.738181818182056  5.610000000000014 15.738181818182056  C 6.435000000000031 15.738181818182056  7.110000000000014 15.083636363636206  7.110000000000014 14.283636363636603  L 7.110000000000014 10.647272727272965  Z M 18.360000000000014 9.19272727272751  C 17.534999999999997 9.19272727272751  16.860000000000014 9.847272727272701  16.860000000000014 10.647272727272965  L 16.860000000000014 14.283636363636603  C 16.860000000000014 15.083636363636206  17.534999999999997 15.738181818182056  18.360000000000014 15.738181818182056  C 19.18500000000003 15.738181818182056  19.860000000000014 15.083636363636206  19.860000000000014 14.283636363636603  L 19.860000000000014 10.647272727272965  C 19.860000000000014 9.847272727272701  19.18500000000003 9.19272727272751  18.360000000000014 9.19272727272751  Z M 10.485000000000014 10.647272727272965  L 10.485000000000014 14.283636363636603  C 10.485000000000014 15.083636363636206  11.159999999999997 15.738181818182056  11.985000000000014 15.738181818182056  C 12.81000000000003 15.738181818182056  13.485000000000014 15.083636363636206  13.485000000000014 14.283636363636603  L 13.485000000000014 10.647272727272965  C 13.485000000000014 9.847272727272701  12.81000000000003 9.19272727272751  11.985000000000014 9.19272727272751  C 11.159999999999997 9.19272727272751  10.485000000000014 9.847272727272701  10.485000000000014 10.647272727272965  Z " fill-rule="nonzero" fill="#4e3328" stroke="none" transform="matrix(1 0 0 1 1002 16 )" />
    </g>
  </defs>
  <g transform="matrix(1 0 0 1 -992 -8 )">
    <use xlink:href="#widget30" filter="url(#filter29)" />
    <use xlink:href="#widget30" />
  </g>
</svg>