<?xml version="1.0" encoding="utf-8"?>
<svg version="1.1" xmlns:xlink="http://www.w3.org/1999/xlink" width="22px" height="23px" xmlns="http://www.w3.org/2000/svg">
  <g transform="matrix(1 0 0 1 -25 -22 )">
    <path d="M 12.5701 0.055930000000000035  L 12.5777 0.0429700000000004  C 12.337499999999997 0.4608100000000004  12.2285 0.48979000000000017  11.163300000000001 0.3235599999999996  C 10.3215 0.23740000000000006  9.5598 0.0025599999999998957  9.5255 0.7642800000000003  C 9.8061 0.7985899999999999  10.2125 0.8275699999999997  10.384 1.42307  L 9.8686 1.8637800000000004  C 9.5018 1.9209699999999996  8.9292 2.4074399999999994  8.5518 1.9552800000000001  C 8.4488 2.3792299999999997  8.8377 2.4989399999999993  9.2502 2.4821600000000004  C 9.5361 2.4531899999999993  9.6284 2.37312  10.1606 2.2701899999999995  L 10.304 2.42497  C 11.1114 2.4936000000000007  11.5293 3.64419  10.2178 4.325900000000001  C 10.1659 4.480600000000001  10.2521 4.669700000000001  10.3726 4.6926000000000005  C 9.9944 5.2309  9.3646 5.900399999999999  9.1412 5.4597  C 9.0893 5.5115  8.9406 5.8774999999999995  9.2273 6.077999999999999  C 9.01 6.3472  8.93 6.662100000000001  8.9414 7.0228  C 8.0767 6.8855  7.510199999999998 6.7422  7.704599999999999 5.934699999999999  C 8.6204 5.975099999999999  8.8728 4.8695  8.7355 4.308299999999999  C 8.2033 2.0635600000000007  5.305899999999999 0.26027999999999984  3.1983499999999996 0.20309000000000044  C 3.3127200000000006 0.8161300000000001  3.6909100000000006 1.25685  4.120189999999999 1.6632499999999997  C 3.5589999999999993 1.3887600000000004  2.91242 1.1249399999999996  2.23076 1.2682799999999999  C 2.3108199999999997 1.7494100000000001  2.5685399999999996 2.310600000000001  3.67338 3.2210099999999997  C 2.8773400000000002 2.7513199999999998  2.15069 2.28773  1.8929700000000003 1.9156300000000002  C 1.7786 2.0704200000000004  1.7153099999999997 2.7002299999999995  2.39088 3.1584900000000005  C 2.17357 3.0723199999999995  1.1137100000000002 3.078419999999999  0.7934700000000001 3.3132699999999993  C 0.9878999999999998 3.75399  1.8754400000000002 4.527100000000001  2.60285 4.7673000000000005  C 1.9097499999999998 4.6644000000000005  1.26316 4.389099999999999  0.673 3.8858999999999995  C 0.5868399999999996 3.965960000000001  0.673 4.7849  1.4118500000000003 5.1051  C 1.1716699999999998 5.1226  0.3580899999999998 5.3514  0.1522199999999998 5.6091  C 0.5761599999999998 6.1756  1.6634700000000002 6.674300000000001  2.2017800000000003 6.674300000000001  C 1.46903 6.7719000000000005  0.6615599999999997 6.6225  0.32911 6.5195  C 0.33521 6.7086  0.1804300000000003 7.4642  2.19034 7.3384  C 1.4743700000000004 7.6762  0.38706 8.3861  0.21473999999999993 9.0045  C 0.9131799999999997 9.314  2.16137 9.0563  2.8087200000000005 8.8558  C 0.8963999999999998 10.023900000000001  0.5982700000000003 10.144400000000001  0.24371999999999971 10.063600000000001  C 0.7073099999999997 11.0426  1.82435 10.378499999999999  2.7858400000000003 9.8348  C 1.6009399999999998 11.4208  1.4057500000000003 12.2283  1.4347200000000004 13.356000000000003  C 2.39088 13.241599999999998  3.77098 11.872900000000001  4.5098199999999995 10.704799999999999  C 3.656599999999999 12.462299999999999  3.1472599999999993 13.871400000000001  2.2193199999999997 14.289300000000003  C 3.278409999999999 14.7071  4.18882 13.378799999999998  4.830069999999999 11.964400000000001  C 4.583780000000001 12.8573  4.486190000000001 14.752800000000002  4.79576 15.2164  C 5.751899999999999 14.569099999999997  6.4793 13.1265  6.9658 11.471900000000002  C 6.7996 12.2847  6.6799 13.1036  6.3764 13.916399999999998  C 6.9948 14.0308  7.309699999999999 12.925899999999999  7.515499999999999 12.2786  C 7.533099999999999 12.312899999999997  7.555999999999999 12.341899999999999  7.618499999999999 12.399000000000003  C 8.397 11.832499999999998  8.6433 10.521  8.7004 10.011700000000001  C 9.4103 10.2122  9.7252 9.9545  9.9029 9.8226  C 10.0577 10.0399  10.0691 10.372399999999999  10.1149 10.418099999999999  C 9.3417 9.7883  8.5174 10.418099999999999  8.4831 11.465800000000002  C 8.397 11.9011  8.1682 12.405200000000002  7.584199999999999 12.793999999999999  C 7.618499999999999 12.8398  7.704599999999999 12.8626  7.807600000000001 12.8573  C 7.704599999999999 13.035  7.613099999999999 13.183599999999998  7.440799999999999 13.343800000000002  C 7.4866 13.372699999999998  7.538399999999999 13.372699999999998  7.595599999999999 13.3842  C 7.463699999999999 13.601500000000001  7.2517 13.802000000000001  7.0344 13.911100000000001  C 7.0863 13.962900000000001  7.1145 13.979700000000001  7.2745999999999995 14.0201  C 7.1312 14.2092  6.896400000000001 14.386899999999999  6.6738 14.478299999999999  C 7.097700000000001 14.73  7.4178999999999995 14.758899999999999  7.681800000000001 14.7361  C 7.515499999999999 15.0685  7.2463999999999995 15.234000000000002  6.9833 15.383400000000002  C 7.0634 15.458100000000002  7.1663 15.474900000000002  7.2463999999999995 15.452000000000002  C 7.0062 15.6983  6.7538 15.892800000000003  6.530399999999999 15.967500000000001  C 6.570799999999999 15.996500000000001  6.599 16.0422  6.7477 16.0308  C 6.587600000000001 16.2313  6.3871 16.4257  6.037800000000002 16.5172  C 6.1065000000000005 16.6491  6.2498000000000005 16.6316  6.3703 16.6316  C 6.2727 16.8375  5.975300000000001 16.9061  5.671900000000001 16.9694  C 5.900600000000001 17.0327  6.055400000000001 17.1585  5.918100000000001 17.1242  C 5.826599999999999 17.2332  5.735099999999999 17.2904  5.539899999999999 17.3247  C 5.3393999999999995 17.3537  4.612 17.096  4.320729999999999 17.1928  C 4.24067 17.0266  4.040139999999999 16.9122  3.828160000000001 16.9122  C 3.5590100000000007 16.9122  3.295949999999999 17.0838  3.278409999999999 17.3247  C 3.2379999999999995 17.2957  3.0610999999999993 17.2729  3.0893099999999993 17.4795  C 3.1525999999999996 17.6  3.15794 17.7029  3.5414700000000003 17.8516  C 3.60476 17.8806  3.6787200000000007 17.892  3.7763100000000005 17.892  C 3.91356 17.8859  4.068339999999999 17.8173  4.18272 17.7143  C 4.37715 17.7547  4.589119999999999 17.7891  4.70349 17.8348  C 4.40002 17.8577  4.290990000000001 18.0292  4.1194299999999995 18.1497  C 4.04471 18.1497  3.9875200000000004 18.1268  3.9189000000000007 18.1154  C 3.87848 18.1093  3.8388399999999994 18.104  3.7984299999999998 18.104  C 3.5811200000000003 18.1154  3.357710000000001 18.3617  3.3348300000000006 18.6423  C 3.3348300000000006 18.6995  3.3462700000000005 18.7513  3.36914 18.8024  L 3.36914 18.8482  C 3.3005200000000006 18.9282  3.32873 18.9915  3.3920200000000005 19.0373  C 3.66118 19.1402  3.8159600000000005 19.0777  3.9128000000000007 19.0601  C 4.1529799999999994 19.0311  4.35962 18.8314  4.35962 18.608  C 4.64555 18.5561  4.92614 18.4761  5.087 18.3617  C 5.0931 18.3792  5.0985 18.396  5.0985 18.4189  C 5.0009 18.4761  4.8354099999999995 18.5737  4.74925 18.8596  C 4.720269999999999 18.8596  4.6974 18.8596  4.674519999999999 18.8596  C 4.348179999999999 18.8596  4.26812 19.083  4.27346 19.2721  C 4.27346 19.4498  4.342079999999999 19.5695  4.43967 19.6388  C 4.422140000000001 19.7532  4.433579999999999 19.8447  4.54871 19.879  C 4.93834 19.9423  5.0352 19.7357  5.1099 19.7418  C 5.1099 19.6899  5.116 19.6556  5.1328 19.6213  C 5.2532 19.5641  5.3332999999999995 19.5184  5.3447 19.295  C 5.356199999999999 19.1577  5.3332999999999995 19.0716  5.287599999999999 19.0144  L 5.2989999999999995 19.0144  C 5.654299999999999 18.7109  5.883100000000001 18.4707  6.037800000000002 18.2641  C 6.1751000000000005 18.2984  6.4847 18.287  6.6333 18.2351  L 6.6333 18.2923  C 6.4847 18.4295  6.5815 18.7559  6.7706 18.7445  C 6.7645 18.7734  6.7645 18.8016  6.7706 18.836  C 6.8911 18.9107  7.1198 18.8588  7.291399999999999 18.8992  C 7.382899999999999 18.8878  7.423299999999999 18.8306  7.400399999999999 18.7101  C 7.537699999999999 18.624  7.635300000000001 18.4753  7.612399999999999 18.2923  C 7.612399999999999 18.0346  7.4117999999999995 17.8287  7.1602 17.8112  C 6.8911 17.7822  6.6394 17.9713  6.6905 17.5596  C 7.423299999999999 16.6949  8.4198 15.383400000000002  8.6943 15.229399999999998  C 8.6715 15.200399999999997  8.66 15.1661  8.6425 15.126499999999998  C 8.7515 15.412400000000003  9.1579 15.715900000000001  9.5933 15.6876  C 9.5133 15.539000000000001  9.4271 15.407099999999998  9.3989 15.012100000000002  C 9.4622 15.103600000000002  9.5704 15.1493  9.7085 15.1783  C 9.5079 14.256499999999997  9.8061 13.494700000000002  10.4244 12.802399999999999  C 10.3726 13.695299999999998  10.2643 14.5942  9.7199 15.4993  C 10.0005 15.5855  10.3611 15.3049  10.413 15.1326  C 10.4702 15.933900000000001  9.7085 16.9701  9.113 16.4722  C 8.7409 17.2965  9.6284 17.6915  10.1835 17.2164  C 10.0859 17.7143  9.7023 18.0064  9.2792 18.1207  C 8.8552 18.2351  8.4145 18.0575  8.6951 17.3766  C 8.6379 17.3422  7.784700000000001 17.3194  7.761799999999999 18.2466  C 7.784700000000001 18.7788  8.1515 18.9854  8.1797 18.9907  C 6.9658 19.9065  8.1911 20.932  9.1877 20.7368  C 9.9776 20.6164  10.4305 19.9698  10.7165 19.5054  C 10.6303 19.8432  10.2696 20.9137  11.1861 22.0819  C 12.090499999999999 20.6674  11.706900000000001 19.7174  11.684000000000001 19.5679  C 12.393899999999999 20.6613  13.098500000000001 20.7414  13.510200000000001 20.7185  C 14.220099999999999 20.73  15.222 19.619  13.945599999999999 18.9038  C 14.598299999999998 18.5942  14.643999999999998 17.3003  13.7222 17.2378  C 13.911299999999999 17.7471  13.510200000000001 18.0567  13.069500000000001 18.0163  C 12.628799999999998 17.9759  12.2224 17.7243  12.067599999999999 17.1516  C 12.9376 17.5695  13.3386 16.7452  13.0413 16.3045  C 12.302399999999999 16.9175  11.9479 15.932400000000001  11.8503 15.348299999999998  C 12.0394 15.491700000000002  12.205600000000002 15.5428  12.520499999999998 15.497  C 11.919699999999999 14.7239  11.776299999999999 13.682300000000001  11.724499999999999 12.7086  C 12.137 13.3613  12.537299999999998 14.1573  12.5258 14.941900000000002  C 12.6234 14.8962  12.708799999999998 14.884799999999998  12.8751 14.5409  C 12.892600000000002 15.124900000000002  12.823200000000002 15.205  12.6234 15.4513  C 12.949799999999998 15.5885  13.373700000000001 15.325500000000002  13.574300000000001 14.976299999999998  C 14.2041 15.8234  14.885700000000002 16.6995  15.5438 17.375  C 15.687100000000001 17.5237  15.738199999999999 17.6724  15.469000000000001 17.7243  C 14.6219 17.4093  14.529599999999999 18.2969  14.885000000000002 18.4174  C 14.856000000000002 18.4974  14.850699999999998 18.5836  14.8735 18.669  C 15.0398 18.7208  15.3829 18.5828  15.4744 18.5775  C 15.514800000000001 18.5371  15.514800000000001 18.457  15.514800000000001 18.3769  C 15.6009 18.3769  15.658100000000001 18.3251  15.6978 18.2565  C 15.864 18.2908  16.0241 18.3083  16.2361 18.136  L 16.8659 18.7658  C 16.9002 18.7833  16.8316 18.852  16.9231 18.8634  C 16.8545 19.2812  17.0146 19.327  17.1518 19.436  C 17.1229 19.8371  17.7245 19.6076  17.7816 19.6305  C 17.8449 19.5901  17.8503 19.5504  17.8388 19.5047  C 17.9075 19.4299  17.8731 19.3956  17.8503 19.3445  C 18.1476 18.8863  17.7245 18.5371  17.4896 18.5775  C 17.238 18.303  17.0603 18.1878  16.8598 18.0224  C 17.2723 18.1772  17.9075 18.3548  18.0912 18.486  C 18.1598 18.9557  18.5723 18.7605  18.8758 18.778  C 18.9673 18.6461  18.9216 18.6064  18.8758 18.5607  C 19.2708 18.0453  18.4351 17.6274  18.0798 17.9309  C 17.8678 17.7365  17.6848 17.7021  17.4957 17.6213  C 17.5758 17.5413  17.742 17.478  18.1255 17.4551  C 18.2971 17.5695  18.4633 17.6099  18.6349 17.4841  C 18.7096 17.6442  18.8522 17.6045  18.904 17.5756  C 19.0298 17.4322  19.0298 17.2149  19.0641 17.0144  C 19.0298 16.9397  18.978 16.8939  18.8812 16.9  C 18.6234 16.4593  18.1255 16.7284  18.0966 16.9229  C 17.6673 16.9572  17.2837 17.0144  16.8308 17.192  C 16.6821 17.2378  16.5388 17.0777  16.413 16.9801  C 16.5274 16.9343  16.6303 16.8825  16.625 16.7856  C 16.442 16.7681  16.2643 16.7856  16.0523 16.5622  L 16.1095 16.4135  C 15.9433 16.3617  15.771700000000001 16.242  15.554400000000001 15.9042  C 15.600200000000001 15.875200000000001  15.6406 15.8295  15.6802 15.755500000000001  C 15.434000000000001 15.6983  15.2334 15.566400000000002  15.073300000000001 15.377300000000002  C 15.130500000000001 15.348299999999998  15.1877 15.2973  15.2395 15.217199999999998  C 15.0108 15.079899999999999  14.7927 14.959499999999998  14.352 14.386899999999999  L 14.352 14.380700000000003  C 14.8156 14.4555  15.296700000000003 14.415099999999999  15.577300000000001 14.2031  C 15.348600000000001 14.139800000000001  14.952800000000002 14.008700000000003  14.7698 13.6648  C 14.856000000000002 13.6587  14.9071 13.6419  14.964300000000001 13.624400000000001  C 14.6204 13.395600000000002  14.528899999999998 13.275099999999998  14.4374 13.085999999999999  C 14.5121 13.092099999999999  14.614999999999997 13.0571  14.649399999999998 13.011299999999999  C 14.425999999999997 12.9084  14.328399999999998 12.7711  14.2483 12.621699999999999  C 14.3398 12.621699999999999  14.4374 12.639199999999999  14.511299999999999 12.5874  C 13.6299 12.1924  13.755700000000001 10.130700000000001  12.8049 10.1253  C 12.381 10.159600000000001  12.306999999999999 10.251100000000001  12.088899999999999 10.360199999999999  C 12.152200000000002 10.182500000000001  12.2605 10.016300000000001  12.3749 9.8562  C 12.890300000000002 10.0963  13.302800000000001 9.9591  13.440100000000001 9.8386  C 13.5087 10.669  13.7778 11.556500000000002  14.3505 11.9972  C 14.448099999999998 11.940000000000001  14.5678 11.8714  14.636399999999998 11.7913  C 14.7393 12.558399999999999  15.025999999999998 13.5718  15.6726 13.4864  C 15.375199999999998 12.747499999999999  15.380600000000001 12.0033  15.3463 11.2591  C 15.615400000000001 13.429200000000002  16.2857 14.6949  16.8346 15.078399999999998  C 17.0863 14.7406  17.2754 13.160000000000002  17.1556 12.2039  C 17.6993 13.182899999999998  18.3009 14.0933  18.8049 14.088000000000001  C 19.0337 14.088000000000001  19.286 13.898900000000001  19.4408 13.853100000000001  C 18.6509 13.5321  18.1126 12.078  17.6314 11.1737  C 18.5418 12.599599999999999  19.6238 13.240800000000002  20.1339 13.338400000000002  C 20.1515 12.8977  20.2483 11.6663  19.1145 9.9545  C 21.1412 11.024999999999999  21.5712 10.332699999999999  21.6909 9.966  C 20.7752 10.286999999999999  19.5438 9.1074  18.7195 8.7345  L 18.7081 8.7002  C 19.9158 9.25  21.1015 9.4391  21.8404 8.9747  C 21.2106 8.001  20.5975 7.6465  19.9334 7.3941  C 21.2449 7.5374  21.6741 7.096700000000001  21.7024 6.6042000000000005  C 21.2212 6.7643  20.7805 6.7933  20.2079 6.7018  C 21.4622 6.450100000000001  21.6909 5.9171999999999985  21.6795 5.8660999999999985  C 21.3585 5.6145  20.7515 5.3339  20.2025 5.282  C 21.7138 4.7384  21.2334 4.222899999999999  21.1762 4.062799999999999  C 20.7065 4.503500000000001  19.8876 4.8184000000000005  19.7389 4.807  C 20.4435 4.440200000000001  21.0558 3.47263  21.0161 3.3643599999999996  C 20.6608 3.1813599999999997  19.9341 3.1928  19.636 3.2781999999999996  C 19.928 2.9571900000000007  20.3177 2.402100000000001  19.9624 1.9438500000000005  C 19.6185 2.4303100000000004  19.2921 2.6827000000000005  18.9719 2.9404199999999996  C 19.2693 2.56832  19.6078 2.1390399999999996  19.7275 1.26295  C 19.2868 1.3201299999999998  18.8857 1.2804799999999998  18.3131 1.6579100000000002  C 18.6394 1.2454099999999997  18.8453 0.8451000000000005  18.8857 0.3525400000000003  C 16.9101 0.48979000000000017  14.596699999999998 1.5259999999999998  13.480500000000001 4.114599999999999  C 13.1541 4.8764  13.4118 6.164199999999999  14.4252 6.015499999999999  C 14.5853 6.6682  14.155999999999999 7.0632  13.217400000000001 7.035000000000001  C 13.1999 6.8177  13.263200000000001 6.3823  13.0001 6.158899999999999  C 13.2288 6.141299999999999  13.2746 6.026999999999999  13.3211 5.9301  C 12.708100000000002 5.7867999999999995  12.805700000000002 5.5862  12.920000000000002 4.498900000000001  C 13.0001 4.533200000000001  13.091600000000001 4.510400000000001  13.1602 4.447100000000001  C 12.9086 4.212199999999999  12.988700000000001 3.782959999999999  13.1198 2.4257399999999993  C 13.142700000000001 1.8363399999999999  13.022200000000002 1.5381999999999998  12.8911 1.43527  C 12.971100000000002 1.3948600000000004  13.023 1.3323299999999998  12.982600000000001 1.18365  C 13.263200000000001 1.1318000000000001  13.142700000000001 0.7886800000000003  13.028300000000002 0.6743100000000002  C 12.971100000000002 0.8290899999999999  12.730899999999998 0.8862800000000001  12.501400000000002 0.7147199999999998  C 12.782 0.5889100000000003  12.782 0.274  12.5701 0.055930000000000035  Z M 13.7222 14.6438  L 13.7222 14.6385  C 13.7222 14.6385  13.7397 14.661300000000002  13.7512 14.672799999999999  C 13.7397 14.661300000000002  13.7336 14.6552  13.7222 14.6438  Z M 7.968500000000001 15.244599999999998  C 7.962400000000001 15.061699999999998  7.910500000000001 14.781099999999999  7.939500000000001 14.678099999999999  L 7.940200000000001 14.672000000000002  C 7.928000000000001 14.729199999999999  7.928000000000001 14.781099999999999  7.934100000000001 14.826799999999999  L 7.968500000000001 15.244599999999998  C 8.0714 15.290400000000002  8.243 15.233200000000002  8.3863 15.1814  C 8.3924 15.1814  8.4038 15.169899999999998  8.4153 15.169899999999998  C 8.2262 15.244599999999998  8.06 15.290400000000002  7.968500000000001 15.244599999999998  Z M 7.825100000000001 14.7071  C 7.8365 14.7071  7.870900000000002 14.695699999999999  7.870900000000002 14.695699999999999  C 7.859400000000001 14.701  7.841900000000001 14.7071  7.825100000000001 14.7071  Z M 14.4099 14.8855  C 14.214700000000002 14.913  14.020299999999999 14.884799999999998  13.842600000000001 14.747499999999997  C 14.0546 14.9023  14.3123 14.9023  14.4038 14.8794  C 14.4038 14.867999999999999  14.415299999999998 14.8565  14.421399999999998 14.845099999999999  C 14.421399999999998 14.8565  14.415299999999998 14.874099999999999  14.4099 14.8855  Z M 11.998999999999999 18.4745  L 11.998999999999999 18.4692  C 12.1934 18.6751  12.955100000000002 19.2363  13.831199999999999 18.9671  C 13.905899999999999 19.465  13.482 19.6488  13.1495 19.5855  C 12.823200000000002 19.5169  12.3367 19.2591  11.998999999999999 18.4745  Z M 10.2529 18.5889  L 10.2529 18.595  C 9.9669 19.1387  9.4972 19.5969  9.0733 19.7059  C 8.6555 19.815  8.2605 19.6084  8.4145 19.0586  C 9.3249 19.3621  10.0638 18.8238  10.2529 18.5889  Z " fill-rule="nonzero" fill="#ffffff" stroke="none" transform="matrix(1 0 0 1 25 22 )" />
  </g>
</svg>