<?xml version="1.0" encoding="utf-8"?>
<svg version="1.1" xmlns:xlink="http://www.w3.org/1999/xlink" width="4px" height="6px" xmlns="http://www.w3.org/2000/svg">
  <g transform="matrix(1 0 0 1 -29 -25 )">
    <path d="M 2.0622000000000007 5.527699999999999  L 2.061400000000001 5.539899999999999  C 1.7517999999999994 5.1792  1.7984000000000009 4.9505  1.8097999999999992 4.8186  C 1.4719999999999995 4.5609  1.5581999999999994 4.4633  1.5001999999999995 4.3603000000000005  C 1.6206999999999994 4.5662  1.7350999999999992 4.7042  1.8554999999999993 4.721  C 2.0790000000000006 4.9269  2.3024000000000004 4.9955  2.5258000000000003 5.1274  C 1.1570999999999998 4.3771  1.5352999999999994 3.4613999999999994  1.5520999999999994 3.1975  C 1.3400999999999996 3.2036  1.1799999999999997 3.1632  1.0655999999999999 3.0770999999999997  C 1.1059999999999999 2.705  1.3004999999999995 2.4068000000000005  1.7129999999999992 2.2010000000000005  C 1.6610999999999994 2.2185000000000006  1.6099999999999994 2.2414000000000005  1.5581999999999994 2.2528000000000006  C 1.5123999999999995 2.2414000000000005  1.3919999999999995 1.9379000000000008  1.5405999999999995 1.7373999999999992  C 1.6267999999999994 1.6854999999999993  1.8554999999999993 1.6626999999999992  2.0904000000000007 1.7548999999999992  C 2.2276000000000007 1.4742999999999995  2.4053000000000004 1.2279999999999998  2.7774 1.1303999999999998  C 2.8689 1.2279999999999998  3.0237 1.5085999999999995  2.9146 2.000400000000001  C 3.0694 2.0576000000000008  3.2180999999999997 2.1262000000000008  3.3385999999999996 2.3100000000000005  C 3.2981999999999996 2.4648000000000003  3.2638999999999996 2.5105000000000004  3.2241999999999997 2.5502000000000002  C 3.8249999999999993 2.5563000000000002  3.882999999999999 1.7144999999999992  3.2127999999999997 1.6282999999999994  C 3.3217999999999996 0.8384099999999997  2.3085000000000004 0.3687199999999997  1.8670000000000009 1.3423999999999996  C 1.0541999999999998 1.1250999999999998  0.8361000000000001 1.7548999999999992  1.1456999999999997 2.2528000000000006  C 1.0480999999999998 2.3275000000000006  0.24136000000000024 2.9169  1.0084 3.764099999999999  C 1.0084 4.181900000000001  1.1113999999999997 4.5883  1.6785999999999994 4.9436  C 1.8388000000000009 5.424799999999999  1.9417000000000009 5.424799999999999  2.0622000000000007 5.527699999999999  Z " fill-rule="nonzero" fill="#dfdde2" stroke="none" transform="matrix(1 0 0 1 29 25 )" />
  </g>
</svg>