<?xml version="1.0" encoding="utf-8"?>
<svg version="1.1" xmlns:xlink="http://www.w3.org/1999/xlink" width="6px" height="6px" xmlns="http://www.w3.org/2000/svg">
  <g transform="matrix(1 0 0 1 -28 -36 )">
    <path d="M 3.8971999999999998 2.6877999999999993  C 4.309799999999999 2.2021000000000015  4.768000000000001 1.6462000000000003  5.0539000000000005 1.2741000000000007  C 5.1172 1.2680000000000007  5.1744 1.2565999999999988  5.2255 1.2452000000000005  C 4.9853000000000005 1.5310999999999986  4.584199999999999 2.0351  4.183199999999999 2.4589999999999996  C 3.7821 2.882999999999999  3.4161 3.300799999999999  3.5534 3.6844  C 3.2728 3.4099000000000004  3.5244 3.134599999999999  3.8971999999999998 2.6877999999999993  Z M 3.7485999999999997 3.9886000000000017  C 4.344099999999999 3.6103999999999985  4.595700000000001 4.1945000000000014  4.549899999999999 4.3492  C 4.549899999999999 4.543700000000001  4.383699999999999 4.727399999999999  3.9886999999999997 4.709900000000001  C 4.435600000000001 4.223400000000002  3.5305 4.1891  3.7485999999999997 3.9886000000000017  Z M 4.366899999999999 4.726700000000001  C 4.424099999999999 4.887599999999999  4.132099999999999 4.915800000000001  4.126799999999999 4.778500000000001  C 4.258699999999999 4.807500000000001  4.338699999999999 4.646599999999999  4.366899999999999 4.726700000000001  Z M 1.2636299999999991 3.2269000000000005  C 1.2407500000000002 3.163599999999999  1.1889000000000003 3.1125000000000007  1.1088400000000007 3.083500000000001  C 1.0173400000000008 3.083500000000001  1.04556 3.4502999999999986  0.5018999999999991 3.4327000000000005  C 0.4904700000000002 3.4327000000000005  0.43862000000000023 3.4327000000000005  0.4103999999999992 3.4846000000000004  C 0.3471200000000003 3.6051  0.5651899999999994 3.8567  0.76572 3.8451999999999984  C 0.9433799999999994 3.8338  1.0867299999999993 3.7308999999999983  1.1782299999999992 3.6051  C 1.2186400000000006 3.5822000000000003  1.5045699999999993 3.4221000000000004  1.4817 3.4907000000000004  C 1.14391 3.6569000000000003  1.2300799999999992 3.7597999999999985  1.7622900000000001 3.8003  C 2.1000999999999994 3.7484  2.386799999999999 3.4563999999999986  2.506500000000001 3.3992000000000004  C 2.1625999999999994 3.4556000000000004  1.42985 3.2269000000000005  1.2636299999999991 3.2269000000000005  Z M 0.5018999999999991 4.961500000000001  L 0.5079999999999991 4.961500000000001  C 0.49656000000000056 4.990500000000001  0.47902999999999984 5.013400000000001  0.45616000000000057 5.030100000000001  C 0.5537600000000005 5.093399999999999  0.8053699999999999 5.075900000000001  0.8343500000000006 5.053000000000001  C 0.8053699999999999 5.053000000000001  0.5941600000000005 5.041599999999999  0.5018999999999991 4.961500000000001  Z M 3.0265000000000004 3.4327000000000005  L 3.0212000000000003 3.4388000000000005  C 2.562900000000001 3.6621999999999986  2.2479999999999993 4.4697  1.1141799999999993 4.360700000000001  C 1.08521 4.458300000000001  1.0226799999999994 4.481200000000001  0.9655000000000005 4.509399999999999  C 0.7306500000000007 4.509399999999999  0.45614999999999917 4.5611999999999995  0.4614899999999995 4.709900000000001  C 0.4614899999999995 4.887599999999999  0.7420899999999993 5.001899999999999  0.9250799999999995 4.979099999999999  C 1.1141799999999993 4.956199999999999  1.3086099999999998 4.778500000000001  1.3086099999999998 4.600899999999999  C 1.3086099999999998 4.600899999999999  1.3261500000000002 4.571899999999999  1.3429199999999994 4.571899999999999  C 2.597200000000001 4.3027000000000015  2.7916000000000007 3.6560999999999986  3.0265000000000004 3.4327000000000005  Z M 3.2156000000000002 3.4486999999999988  L 3.2217000000000002 3.4617000000000004  C 3.1698000000000004 3.7652  2.1793999999999993 4.675599999999999  2.1335999999999995 4.972999999999999  C 2.0817999999999994 4.932500000000001  2.0077999999999996 4.904299999999999  1.84769 4.909700000000001  C 1.93919 5.367899999999999  1.5617599999999996 5.5051999999999985  1.4580599999999997 5.4251000000000005  C 1.4580599999999997 5.631  1.7554300000000005 5.7170999999999985  1.9506300000000003 5.6767  C 2.1793999999999993 5.631  2.368499999999999 5.2818000000000005  2.2365999999999993 5.069800000000001  C 2.2654999999999994 4.691600000000001  2.7634000000000007 4.583300000000001  2.9693000000000005 4.0961  C 3.1523000000000003 4.0961  3.1813000000000002 3.8101999999999983  3.4047 3.7582999999999984  C 3.3589 3.6096000000000004  3.1698000000000004 3.8040999999999983  3.2156000000000002 3.4486999999999988  Z M 0.2152100000000008 3.6569000000000003  C 0.32424999999999926 3.6905  0.24418000000000006 3.4327000000000005  0.30137000000000036 3.4617000000000004  C 0.33033999999999963 3.6393999999999984  0.4103999999999992 3.7194000000000003  0.5476500000000009 3.8284999999999982  C 0.43862000000000023 3.7881  0.33568 3.7597999999999985  0.2152100000000008 3.6569000000000003  Z M 3.5305 3.021000000000001  C 2.9868000000000006 3.2101000000000006  2.7406000000000006 3.146799999999999  2.671900000000001 2.975200000000001  C 2.8839000000000006 3.021000000000001  3.1584000000000003 3.0439000000000007  3.5305 3.021000000000001  Z M 3.3589 2.6260000000000012  L 3.3589 2.6313999999999993  C 3.3589 2.6602999999999994  3.3132 2.717500000000001  3.2728 2.7517999999999994  C 3.5358 2.7517999999999994  3.7935999999999996 2.694600000000001  3.9772999999999996 2.4827000000000012  C 3.8057999999999996 2.5626999999999995  3.6106 2.6260000000000012  3.3589 2.6260000000000012  Z M 4.9274000000000004 0.8158999999999992  L 4.9335 0.8105000000000011  C 4.922000000000001 1.056799999999999  4.8359000000000005 1.2169999999999987  4.744400000000001 1.3260000000000005  C 4.819100000000001 1.3031000000000006  4.8931000000000004 1.2855999999999987  4.9678 1.2513000000000005  C 4.9617 1.1140000000000008  4.950200000000001 0.9539000000000009  4.9274000000000004 0.8158999999999992  Z M 3.7318 2.0252000000000017  L 3.7318 2.0305  C 3.7142999999999997 2.0648000000000017  3.6456 2.1396000000000015  3.5945 2.1906  C 3.8118999999999996 2.2135  4.241899999999999 2.1159  4.430199999999999 1.9046999999999983  C 4.258699999999999 1.9848  3.9833999999999996 2.0252000000000017  3.7318 2.0252000000000017  Z M 4.240399999999999 1.4510000000000005  L 4.234999999999999 1.4517999999999986  C 4.194599999999999 1.4922000000000004  4.0687999999999995 1.6179999999999986  4.0230999999999995 1.6576999999999984  C 4.240399999999999 1.6804999999999986  4.727600000000001 1.5090000000000003  4.915900000000001 1.3023999999999987  C 4.744400000000001 1.3824000000000005  4.486700000000001 1.4510000000000005  4.240399999999999 1.4510000000000005  Z " fill-rule="nonzero" fill="#dfdde2" stroke="none" transform="matrix(1 0 0 1 28 36 )" />
  </g>
</svg>