<?xml version="1.0" encoding="utf-8"?>
<svg version="1.1" xmlns:xlink="http://www.w3.org/1999/xlink" width="7px" height="6px" xmlns="http://www.w3.org/2000/svg">
  <g transform="matrix(1 0 0 1 -38 -36 )">
    <path d="M 2.4680999999999997 4.543600000000001  C 2.5427999999999997 4.285900000000002  2.3712000000000018 4.435400000000001  2.1707 4.6236999999999995  C 2.2912 4.589400000000001  2.4223 4.5261  2.4680999999999997 4.543600000000001  Z M 1.9990999999999983 4.424700000000001  L 1.9990999999999983 4.4178  C 2.2340000000000018 4.4178  2.5656999999999996 4.4582000000000015  2.6518000000000015 4.1433  C 3.0185999999999993 4.3210000000000015  3.402100000000001 3.9832  3.315899999999999 3.6682999999999986  C 3.315899999999999 3.6682999999999986  3.195499999999999 4.206600000000002  2.4398000000000017 3.8688000000000002  C 2.2851 3.846  2.0792 3.9436  2.0905999999999985 4.046500000000002  C 2.1021 4.1784  2.3598 4.2928  1.9990999999999983 4.424700000000001  Z M 4.0029 4.154800000000002  L 4.009 4.154800000000002  C 4.203499999999998 4.3492  4.323899999999998 4.533000000000001  4.2835 4.675599999999999  C 4.404 4.504000000000001  4.415400000000002 4.6068999999999996  4.438300000000002 4.675599999999999  C 4.581700000000001 4.784600000000001  4.6846 5.116299999999999  4.3293 5.334299999999999  C 4.4955 5.380099999999999  4.5123 5.5288  4.3293 5.5806000000000004  C 4.3354 5.7353999999999985  4.758600000000001 5.540199999999999  4.7928999999999995 5.6035  C 4.827200000000001 5.5920999999999985  4.8386 5.540199999999999  4.8447 5.494499999999999  C 4.879000000000001 5.448699999999999  4.885100000000001 5.391500000000001  4.8447 5.322900000000001  C 5.113900000000001 4.870799999999999  4.781400000000001 4.624500000000001  4.4894 4.572600000000001  C 4.311800000000002 4.3896000000000015  4.157 4.2806  4.0029 4.154800000000002  Z M 4.9300999999999995 4.015999999999998  C 4.7989999999999995 4.034300000000002  4.3354 3.7704999999999984  4.020499999999998 3.6675000000000004  C 4.3064 3.8505000000000003  4.7021000000000015 3.9939  5.074200000000001 4.2341000000000015  C 5.446300000000001 3.8619999999999983  5.721599999999999 4.4742999999999995  5.188600000000001 4.514700000000001  C 5.325900000000001 4.760999999999999  5.8931000000000004 4.743400000000001  5.875599999999999 4.5489999999999995  C 6.230899999999998 3.8787999999999982  5.268699999999999 3.7133000000000003  5.079599999999999 3.9534999999999982  C 4.787500000000001 3.7872999999999983  4.5245 3.6042999999999985  4.105899999999998 3.5294999999999987  C 4.9300999999999995 3.8848999999999982  5.073499999999999 3.9930999999999983  4.9300999999999995 4.015999999999998  Z M 4.278199999999998 3.140699999999999  L 4.272099999999998 3.152100000000001  C 4.500800000000002 3.054500000000001  4.993400000000001 3.065899999999999  5.125299999999999 2.946200000000001  C 5.342600000000001 2.5513000000000012  5.7437000000000005 2.6541999999999994  5.875599999999999 2.9118999999999993  C 5.9670999999999985 2.9118999999999993  6.0356999999999985 2.929500000000001  6.0472 3.003399999999999  C 5.9609999999999985 3.192499999999999  6.0182 3.6508000000000003  5.777999999999999 3.5355999999999987  C 5.8237999999999985 3.5013000000000005  5.800899999999999 3.4669999999999987  5.777999999999999 3.4327000000000005  C 5.6751000000000005 3.5355999999999987  5.6751000000000005 3.4212999999999987  5.6751000000000005 3.369399999999999  C 5.520299999999999 3.5471000000000004  5.446300000000001 3.5181000000000004  5.337299999999999 3.4898999999999987  C 5.366299999999999 3.4784000000000006  5.377700000000001 3.4495000000000005  5.371600000000001 3.3983999999999988  C 5.8184000000000005 3.226800000000001  5.428799999999999 2.705300000000001  5.068100000000001 3.192499999999999  C 4.947700000000001 3.226800000000001  4.461200000000002 3.117799999999999  4.278199999999998 3.140699999999999  Z M 0.7043999999999997 0.6504000000000012  L 0.7104999999999997 0.6504000000000012  L 0.6930000000000014 0.7022000000000013  C 0.8760000000000011 0.8685000000000009  2.4619999999999997 2.6145999999999994  2.9316999999999993 3.358699999999999  C 2.8629999999999995 3.198599999999999  2.8912000000000013 3.135300000000001  2.6106000000000016 2.797599999999999  C 3.326599999999999 3.198599999999999  3.681200000000001 2.8432999999999993  3.6354000000000006 2.763200000000001  C 3.578199999999999 2.769300000000001  3.5378000000000007 2.7807999999999993  3.5095999999999994 2.763200000000001  C 2.8455000000000013 3.100999999999999  2.3529000000000018 2.5397999999999996  2.0609 2.1677  C 2.433 2.4650999999999996  2.6738999999999997 2.5169999999999995  3.0627999999999993 2.5397999999999996  C 3.103200000000001 2.4711999999999996  3.1084999999999994 2.4369000000000014  3.1145999999999994 2.4025999999999996  C 3.080300000000001 2.3964999999999996  3.0459999999999994 2.3850000000000016  3.0230999999999995 2.3683000000000014  C 2.5710000000000015 2.5397999999999996  2.0326999999999984 2.1967  1.608699999999999 1.6240999999999985  C 2.0097999999999985 1.9161000000000001  2.3018 1.8871000000000002  2.5763 1.8871000000000002  C 2.6167000000000016 1.8353000000000002  2.6793000000000013 1.7956000000000003  2.6854000000000013 1.7323999999999984  C 2.6449999999999996 1.7323999999999984  2.6167000000000016 1.7209000000000003  2.5824 1.7094999999999985  C 2.3018 1.8070999999999984  1.6034000000000006 1.7728000000000002  1.2710000000000008 1.193999999999999  C 1.4997000000000007 1.3488000000000007  1.7574000000000005 1.4403000000000006  2.0838 1.3602999999999987  C 2.1470999999999982 1.308399999999999  2.221 1.2626999999999988  2.2325000000000017 1.2055000000000007  C 1.8261 1.308399999999999  1.4311000000000007 1.308399999999999  1.0703999999999994 0.9881999999999991  C 1.1734000000000009 0.9881999999999991  1.282399999999999 0.9539000000000009  1.3914000000000009 0.902000000000001  C 1.1795000000000009 0.9194999999999993  0.9560999999999992 0.902000000000001  0.7043999999999997 0.6504000000000012  Z " fill-rule="nonzero" fill="#dfdde2" stroke="none" transform="matrix(1 0 0 1 38 36 )" />
  </g>
</svg>