<?xml version="1.0" encoding="utf-8"?>
<svg version="1.1" xmlns:xlink="http://www.w3.org/1999/xlink" width="2px" height="3px" xmlns="http://www.w3.org/2000/svg">
  <g transform="matrix(1 0 0 1 -34 -36 )">
    <path d="M 1.6875999999999998 0.7539000000000016  L 1.6761 0.7591999999999999  C 1.5046 1.1489000000000011  1.5617 1.8931000000000004  1.0806000000000004 2.3741999999999983  C 1.4817 2.1682999999999986  1.6357 1.6696999999999989  1.6471 1.2807999999999993  L 1.6875999999999998 1.6933000000000007  C 1.5556 2.5351  1.1721000000000004 2.7638  0.9091000000000005 2.8095999999999997  C 0.9495000000000005 2.7981000000000016  1.3673000000000002 2.8842999999999996  1.7561999999999998 2.0364000000000004  C 1.7675999999999998 2.346  1.5503 2.6891  1.2697000000000003 2.8034999999999997  C 1.516 2.8095999999999997  1.7622999999999998 2.5862000000000016  1.8880999999999997 2.4085  C 1.6875999999999998 1.8077000000000005  1.6822 1.2807999999999993  1.6875999999999998 0.7539000000000016  Z " fill-rule="nonzero" fill="#e0dee2" stroke="none" transform="matrix(1 0 0 1 34 36 )" />
  </g>
</svg>