<?xml version="1.0" encoding="utf-8"?>
<svg version="1.1" xmlns:xlink="http://www.w3.org/1999/xlink" width="2px" height="4px" xmlns="http://www.w3.org/2000/svg">
  <g transform="matrix(1 0 0 1 -35 -36 )">
    <path d="M 0.8649000000000004 2.0296999999999983  L 0.8649000000000004 2.0183  C 0.9053000000000004 2.2188000000000017  0.9678000000000004 2.5107999999999997  1.1911999999999985 2.796800000000001  L 1.2088 3.152100000000001  C 1.3116999999999983 3.014800000000001  1.7128000000000014 1.8810000000000002  1.7180999999999997 1.5089000000000006  C 1.7356000000000016 1.3885000000000005  1.7409999999999997 1.2512000000000008  1.8271000000000015 1.3427000000000007  C 1.8385999999999996 1.3488000000000007  1.8500000000000014 1.3488000000000007  1.8613999999999997 1.3427000000000007  C 1.7409999999999997 1.256499999999999  1.6098 0.8501000000000012  1.5176000000000016 0.7129000000000012  C 1.5923000000000016 1.1536000000000008  1.6433999999999997 1.7834000000000003  1.1911999999999985 2.7227999999999994  C 1.0539999999999985 2.5626999999999995  0.9564000000000004 2.2988999999999997  0.8649000000000004 2.0296999999999983  Z " fill-rule="nonzero" fill="#c3bdc9" stroke="none" transform="matrix(1 0 0 1 35 36 )" />
  </g>
</svg>