<?xml version="1.0" encoding="utf-8"?>
<svg version="1.1" xmlns:xlink="http://www.w3.org/1999/xlink" width="2px" height="4px" xmlns="http://www.w3.org/2000/svg">
  <g transform="matrix(1 0 0 1 -35 -41 )">
    <path d="M 1.9408999999999992 0.9115000000000002  L 1.9362999999999992 0.9054000000000002  C 1.827300000000001 0.6651999999999987  1.7014999999999993 0.46470000000000056  1.7815000000000012 0.20080000000000098  C 1.7639999999999993 0.12079999999999913  1.7297000000000011 0.10930000000000106  1.6953999999999994 0.09179999999999922  C 1.6724999999999994 0.2350999999999992  1.6205999999999996 0.33200000000000074  1.5809999999999995 0.42960000000000065  C 1.7700999999999993 1.5634000000000015  1.5009000000000015 2.170300000000001  1.1914000000000016 2.6858000000000004  C 0.6820000000000004 1.9987999999999992  0.7735000000000003 1.2598999999999982  0.7674000000000003 0.6248000000000005  C 0.6187000000000005 1.9133999999999993  0.9275000000000002 2.474599999999999  1.1853000000000016 2.7666000000000004  L 1.1853000000000016 3.0814999999999984  C 1.912700000000001 2.016300000000001  1.844100000000001 1.0204999999999984  1.6831999999999994 0.5507999999999988  C 1.7632000000000012 0.6712999999999987  1.838000000000001 0.8023999999999987  1.9408999999999992 0.9115000000000002  Z " fill-rule="nonzero" fill="#c3bdc9" stroke="none" transform="matrix(1 0 0 1 35 41 )" />
  </g>
</svg>