<?xml version="1.0" encoding="utf-8"?>
<svg version="1.1" xmlns:xlink="http://www.w3.org/1999/xlink" width="3px" height="2px" xmlns="http://www.w3.org/2000/svg">
  <g transform="matrix(1 0 0 1 -33 -28 )">
    <path d="M 0.9085999999999999 1.4580000000000002  L 0.9070999999999998 1.4580000000000002  L 0.9642999999999997 1.487  C 1.0214999999999996 1.4008000000000003  1.0732999999999997 1.3841  1.0961999999999996 1.4184  C 1.1190999999999995 1.4527  1.0732999999999997 1.5099  1.1365999999999996 1.5671  C 1.3309999999999995 1.4123  1.7893000000000008 1.3040000000000003  1.8411000000000008 1.0745000000000005  C 1.9273000000000007 1.3093000000000004  2.2079000000000004 1.3147000000000002  2.4367 1.7157999999999998  C 2.3848000000000003 1.4123  2.0699000000000005 1.3261000000000003  1.9388000000000005 1.1203000000000003  C 1.8129000000000008 0.9144000000000005  1.8869000000000007 0.6567000000000007  1.9906000000000006 0.3241999999999994  C 1.7786000000000008 0.6102000000000007  1.9448000000000008 1.0227000000000004  1.5955999999999992 1.2057000000000002  C 1.3721999999999994 1.3200000000000003  0.9543999999999997 1.2972000000000001  0.9085999999999999 1.4519000000000002  L 0.9085999999999999 1.4580000000000002  Z " fill-rule="nonzero" fill="#c3bdc9" stroke="none" transform="matrix(1 0 0 1 33 28 )" />
  </g>
</svg>