<?xml version="1.0" encoding="utf-8"?>
<svg version="1.1" xmlns:xlink="http://www.w3.org/1999/xlink" width="4px" height="3px" xmlns="http://www.w3.org/2000/svg">
  <g transform="matrix(1 0 0 1 -33 -22 )">
    <path d="M 0.9709000000000003 1.8744800000000001  L 0.9587000000000003 1.86381  C 0.30599999999999916 0.6095199999999998  2.1900999999999993 0.38687000000000005  2.3846000000000007 1.4284299999999996  C 2.3846000000000007 1.4284299999999996  2.8542000000000005 1.4459600000000004  3.2659999999999982 1.6686100000000001  C 4.067399999999999 2.25267  3.5808999999999997 2.5843500000000006  3.4208 2.5614799999999995  C 3.0487 2.5675799999999995  2.974 2.2061600000000006  2.430300000000001 2.34417  C 2.298400000000001 2.39602  2.293100000000001 2.4585399999999993  2.235900000000001 2.4585399999999993  C 1.9094999999999995 2.3784799999999997  2.505000000000001 1.7196999999999996  3.1515999999999984 2.1954899999999995  C 3.2088 2.235900000000001  3.3345999999999982 2.1550700000000003  3.2262999999999984 2.0292600000000007  C 2.7971000000000004 1.59389  2.0467999999999993 1.8348300000000002  1.8866999999999994 1.8744800000000001  C 1.6807999999999996 1.5366999999999997  1.2164000000000001 1.6114199999999999  0.9709000000000003 1.8744800000000001  Z " fill-rule="nonzero" fill="#f7d256" stroke="none" transform="matrix(1 0 0 1 33 22 )" />
  </g>
</svg>