<?xml version="1.0" encoding="utf-8"?>
<svg version="1.1" xmlns:xlink="http://www.w3.org/1999/xlink" width="3px" height="4px" xmlns="http://www.w3.org/2000/svg">
  <g transform="matrix(1 0 0 1 -38 -30 )">
    <path d="M 0.6138000000000012 1.3377  L 0.6138000000000012 1.3361999999999998  C 0.6138000000000012 1.3361999999999998  0.6023999999999994 1.3476  0.6138000000000012 1.3590999999999998  C 0.7114000000000011 1.4108999999999998  0.837299999999999 1.4390999999999998  0.980599999999999 1.4505999999999997  L 1.3245000000000005 3.4604999999999997  C 1.2955000000000005 2.9396999999999984  1.2611999999999988 2.395299999999999  1.2498000000000005 1.8973999999999993  C 1.209299999999999 1.7997999999999994  1.1811000000000007 1.6228999999999996  1.1583000000000006 1.4451999999999998  C 1.2040000000000006 1.4451999999999998  1.2443999999999988 1.4337999999999997  1.2901999999999987 1.4223999999999997  C 1.5075000000000003 2.6934000000000005  2.0344000000000015 2.9450000000000003  2.1372999999999998 3.0487  C 1.8567 2.7566999999999986  1.4785000000000004 2.3442000000000007  1.3587999999999987 1.3941  C 1.5478999999999985 1.2912  1.6332999999999984 1.1654  1.6911999999999985 1.1425  C 1.7088 1.0907  1.6972999999999985 0.9595000000000002  1.6737000000000002 0.9023000000000003  C 1.4846000000000004 1.08  1.3184000000000005 1.2919999999999998  0.934899999999999 1.263  C 0.911999999999999 1.263  0.934899999999999 1.2973  0.934899999999999 1.2973  C 1.0835000000000008 1.4916999999999998  0.7862000000000009 1.3719999999999999  0.6252999999999993 1.3377  L 0.6138000000000012 1.3377  Z " fill-rule="nonzero" fill="#c3bdc9" stroke="none" transform="matrix(1 0 0 1 38 30 )" />
  </g>
</svg>