<?xml version="1.0" encoding="utf-8"?>
<svg version="1.1" xmlns:xlink="http://www.w3.org/1999/xlink" width="5px" height="4px" xmlns="http://www.w3.org/2000/svg">
  <g transform="matrix(1 0 0 1 -42 -27 )">
    <path d="M 0.3287000000000013 2.1042000000000005  L 0.3354999999999997 2.0981000000000005  C 0.3354999999999997 2.0981000000000005  0.3241000000000014 2.1438000000000006  0.3180000000000014 2.1667000000000005  C 1.0225000000000009 2.5388  1.5090000000000003 3.2257999999999996  1.4914999999999985 3.701599999999999  L 1.7316000000000003 3.896000000000001  C 1.6401000000000003 3.1060999999999996  1.3534000000000006 2.808  1.067499999999999 2.5159000000000002  L 4.428599999999999 3.832700000000001  L 1.165099999999999 2.3040000000000003  C 1.6005000000000003 2.2064000000000004  2.0526000000000018 2.1781000000000006  2.4308000000000014 1.7260000000000009  L 3.1979000000000006 1.6969999999999992  C 3.8567 1.5940999999999992  4.600899999999999 1.2158999999999995  4.674800000000001 0.8613  L 4.428599999999999 0.8902999999999999  C 4.113600000000002 1.5886999999999993  2.870799999999999 1.5658999999999992  2.2241999999999997 1.5886999999999993  C 1.9268 2.1499000000000006  0.9759999999999991 2.1896000000000004  0.3287000000000013 2.1042000000000005  Z " fill-rule="nonzero" fill="#c3bdc9" stroke="none" transform="matrix(1 0 0 1 42 27 )" />
  </g>
</svg>