<?xml version="1.0" encoding="utf-8"?>
<svg version="1.1" xmlns:xlink="http://www.w3.org/1999/xlink" width="24px" height="24px" xmlns="http://www.w3.org/2000/svg">
  <g transform="matrix(1 0 0 1 -24 -12 )">
    <path d="M 23.95330739299611 11.168187134502922  C 23.95556586759446 10.373671130067617  23.640243070305942 9.611323739764615  23.07772762645914 9.051321637426902  L 15.522241245136186 1.4801091617933724  C 13.575294242476417 -0.4649267096795353  10.42470575752358 -0.46492670967953476  8.47775875486381 1.4801091617933724  L 0.922272373540856 9.051321637426902  C 0.35975692969405404 9.611323739764615  0.04443413240553415 10.373671130067615  0.04669260700389105 11.168187134502922  L 0.04669260700389105 20.96605068226121  C 0.04669260700389105 22.61967519637446  1.3846121094550607 23.960202729044834  3.035019455252918 24  L 20.964980544747082 24  C 22.615387890544937 23.960202729044834  23.95330739299611 22.61967519637446  23.95330739299611 20.96605068226121  L 23.95330739299611 11.168187134502922  Z M 14.988326848249027 18.03776998050682  L 14.988326848249027 21.964101364522417  L 9.011673151750973 21.964101364522417  L 9.011673151750973 18.03776998050682  C 9.011673151750973 16.38414546639357  10.349592654202143 15.043617933723194  12 15.043617933723194  C 13.650407345797857 15.043617933723194  14.988326848249027 16.38414546639357  14.988326848249027 18.03776998050682  Z M 21.961089494163424 11.168187134502922  L 21.961089494163424 20.966050682261212  C 21.961089494163424 21.517258853632292  21.5151163266797 21.964101364522417  20.964980544747082 21.964101364522417  L 16.98054474708171 21.964101364522417  L 16.98054474708171 18.037769980506816  C 16.98054474708171 15.281729123651399  14.750678909663094 13.047516569200777  12 13.047516569200777  C 9.249321090336903 13.047516569200777  7.019455252918288 15.281729123651399  7.019455252918288 18.037769980506816  L 7.019455252918287 21.964101364522417  L 3.035019455252918 21.964101364522417  C 2.484883673320299 21.964101364522417  2.0389105058365757 21.517258853632292  2.0389105058365757 20.966050682261212  L 2.0389105058365757 11.168187134502922  C 2.0398340660896395 10.90368301229868  2.1446864166182102 10.650184323082588  2.330770428015564 10.462565302144247  L 9.886256809338521 2.8943469785575044  C 11.055239869267105 1.7285476316968402  12.944760130732895 1.7285476316968402  14.113743190661477 2.8943469785575044  L 21.669229571984438 10.465559454191034  C 21.854589696625023 10.652440695698253  21.959382978629215 10.904721516227367  21.961089494163424 11.168187134502922  Z " fill-rule="nonzero" fill="#014a93" stroke="none" transform="matrix(1 0 0 1 24 12 )" />
  </g>
</svg>