<?xml version="1.0" encoding="utf-8"?>
<svg version="1.1" xmlns:xlink="http://www.w3.org/1999/xlink" width="4px" height="8px" xmlns="http://www.w3.org/2000/svg">
  <g transform="matrix(1 0 0 1 -39 -24 )">
    <path d="M 2.7682 0.2988300000000006  C 2.2756000000000007 0.3735499999999998  1.6000000000000014 0.9171999999999993  1.4970999999999997 1.1459499999999991  C 1.4857000000000014 1.1688200000000002  1.4970999999999997 1.2031399999999994  1.3255000000000017 1.2946399999999993  L 1.3255000000000017 1.3236100000000004  C 1.5031999999999996 1.2488899999999994  1.961500000000001 1.3236100000000004  1.5314000000000014 1.4265399999999993  C 1.8120000000000012 1.4204399999999993  2.058299999999999 1.5294799999999995  2.224499999999999 1.9076699999999995  C 3.1348999999999982 1.7704299999999993  3.3637000000000015 2.4345999999999997  3.1348999999999982 2.8752999999999993  C 3.735800000000001 3.396000000000001  3.3583 4.0663  3.0259 4.1921  C 3.2264000000000017 4.6389  3.3293999999999997 5.228300000000001  2.7163000000000004 5.457800000000001  C 2.7163000000000004 5.8528  2.6590999999999987 6.4711  1.7197999999999993 6.4658  C 1.6053999999999995 6.734999999999999  1.2729 7.193199999999999  0.7063999999999986 6.946899999999999  C 0.7063999999999986 6.946899999999999  0.7063999999999986 6.964499999999999  0.7063999999999986 6.981299999999999  C 0.6950000000000003 7.010199999999999  0.9412999999999982 7.072800000000001  0.9466000000000001 7.061299999999999  C 1.1409999999999982 7.084199999999999  1.1639000000000017 7.210000000000001  0.9290999999999983 7.152799999999999  C 0.8429000000000002 7.129899999999999  0.7688999999999986 7.107100000000001  0.7057000000000002 7.078099999999999  C 0.7057000000000002 7.078099999999999  0.7057000000000002 7.118499999999999  0.6941999999999986 7.141400000000001  C 1.3064999999999998 7.353300000000001  1.6617999999999995 6.981299999999999  1.8508999999999993 6.6663  C 2.5837000000000003 6.6259  2.8817999999999984 6.2256  2.9213999999999984 5.5958000000000006  C 3.5168999999999997 5.223699999999999  3.4369000000000014 4.6564  3.2539000000000016 4.2676  C 3.786100000000001 3.8665000000000003  3.7464000000000013 3.168100000000001  3.3454000000000015 2.8416999999999994  C 3.6199000000000012 1.9198699999999995  2.8017000000000003 1.6735900000000008  2.366299999999999 1.7368799999999993  C 2.222999999999999 1.4905899999999992  2.1262000000000008 1.4562799999999996  2.022500000000001 1.3876600000000003  L 2.7956000000000003 0.33999999999999986  L 1.8562000000000012 1.3076000000000008  C 1.7647000000000013 1.2732799999999997  1.6388999999999996 1.2618500000000008  1.4894999999999996 1.2671899999999994  C 1.6900000000000013 0.7692800000000002  2.468499999999999 0.3857499999999998  2.7780999999999985 0.29959000000000024  L 2.7682 0.29959000000000024  Z " fill-rule="nonzero" fill="#c3bdc9" stroke="none" transform="matrix(1 0 0 1 39 24 )" />
  </g>
</svg>