<?xml version="1.0" encoding="utf-8"?>
<svg version="1.1" xmlns:xlink="http://www.w3.org/1999/xlink" width="4px" height="4px" xmlns="http://www.w3.org/2000/svg">
  <g transform="matrix(1 0 0 1 -31 -30 )">
    <path d="M 3.6770999999999994 1.4872999999999994  L 3.6801999999999992 1.4956999999999994  L 3.835000000000001 1.7129999999999992  L 3.794600000000001 1.6839999999999993  C 3.3591999999999995 1.8899000000000008  3.1357999999999997 1.8097999999999992  2.9246 1.7129999999999992  L 2.9017 1.6953999999999994  C 2.4549000000000003 1.7815999999999992  2.1743000000000006 1.6664999999999992  1.9341000000000008 1.4895999999999994  C 1.9515999999999991 1.6214999999999993  2.043100000000001 1.7243999999999993  2.1628000000000007 1.8158999999999992  L 1.6931999999999992 3.860099999999999  L 1.9166000000000007 1.9417000000000009  C 1.6473999999999993 2.692  1.2981999999999996 3.0412  0.8170999999999999 3.2531999999999996  L 0.8513999999999999 3.0412  C 1.2920999999999996 2.8177999999999983  1.6702999999999992 2.3885000000000005  1.8478999999999992 1.4605999999999995  C 1.6702999999999992 1.4834999999999994  1.4925999999999995 1.5062999999999995  1.3156999999999996 1.4605999999999995  L 0.875 2.9779000000000018  L 1.0869999999999997 1.4086999999999996  C 0.8978999999999999 1.2828999999999997  0.7378 1.1227999999999998  0.5776000000000003 0.9619  L 0.5776000000000003 0.9329999999999998  C 0.6234000000000002 1.0015999999999998  0.6752000000000002 0.7957000000000001  0.6691000000000003 0.7324000000000002  C 1.0015999999999998 1.2706999999999997  1.4651999999999994 1.3682999999999996  1.9234000000000009 1.2135999999999996  C 1.9234000000000009 1.2653999999999996  1.9234000000000009 1.3110999999999997  1.9004999999999992 1.3850999999999996  L 1.9234000000000009 1.3850999999999996  C 1.9234000000000009 1.3850999999999996  1.9524000000000008 1.3332999999999995  1.9638000000000009 1.2935999999999996  C 1.9524000000000008 1.2821999999999996  1.9463000000000008 1.2645999999999997  1.9410000000000007 1.2478999999999996  L 1.9410000000000007 1.2302999999999997  C 2.1987000000000005 1.6824999999999992  2.8224 1.4704999999999995  2.9032 1.5108999999999995  C 2.8918 1.5337999999999994  2.9032 1.6023999999999994  2.9208 1.6595999999999993  L 2.9322 1.6770999999999994  C 2.9322 1.6770999999999994  2.9436 1.6138999999999992  2.9322 1.5680999999999994  L 2.9093 1.5276999999999994  L 2.9269 1.5390999999999995  C 3.1388 1.6992999999999991  3.4308999999999994 1.6877999999999993  3.6770999999999994 1.4872999999999994  Z " fill-rule="nonzero" fill="#c3bdc9" stroke="none" transform="matrix(1 0 0 1 31 30 )" />
  </g>
</svg>