<?xml version="1.0" encoding="utf-8"?>
<svg version="1.1" xmlns:xlink="http://www.w3.org/1999/xlink" width="2px" height="4px" xmlns="http://www.w3.org/2000/svg">
  <g transform="matrix(1 0 0 1 -32 -31 )">
    <path d="M 1.2261000000000006 0.8635000000000002  L 1.2315000000000005 0.8574000000000002  C 1.3748000000000005 0.9260000000000002  1.5235000000000003 0.9779  1.6897000000000002 1.0122  C 1.6150000000000002 1.974499999999999  1.1285000000000007 3.0679000000000016  0.6130999999999993 3.3942000000000014  L 0.6244999999999994 3.1250999999999998  C 0.4986999999999995 2.9131  0.40109999999999957 2.5813999999999986  0.37289999999999957 1.8935999999999993  L 0.41329999999999956 1.853200000000001  C 0.4247999999999994 2.3343999999999987  0.47659999999999947 2.7689999999999984  0.6366999999999994 3.1075000000000017  C 0.8829999999999991 2.9244999999999983  1.4099000000000004 2.3114999999999988  1.4953000000000003 1.1380000000000017  C 1.4953000000000003 1.0633000000000017  1.4778000000000002 1.0235999999999983  1.4381000000000004 1.0008000000000017  C 1.3405000000000005 0.9489000000000001  1.2833000000000006 0.9032  1.2261000000000006 0.8635000000000002  Z " fill-rule="nonzero" fill="#c1c1c9" stroke="none" transform="matrix(1 0 0 1 32 31 )" />
  </g>
</svg>