<?xml version="1.0" encoding="utf-8"?>
<svg version="1.1" xmlns:xlink="http://www.w3.org/1999/xlink" width="4px" height="7px" xmlns="http://www.w3.org/2000/svg">
  <g transform="matrix(1 0 0 1 -29 -31 )">
    <path d="M 2.342599999999999 0.5138999999999996  L 2.3419000000000008 0.5077999999999996  L 2.2327999999999992 0.6793999999999993  L 1.0594000000000001 5.454799999999999  L 2.307499999999999 1.4815000000000005  C 2.370799999999999 1.7103000000000002  2.4448000000000008 1.9511999999999998  2.7711000000000006 2.3286000000000016  C 2.312900000000001 3.9488999999999983  1.5861999999999998 5.397600000000001  0.9678599999999999 5.781199999999998  L 1.0250000000000004 5.5867  C 0.7619900000000008 4.785399999999999  0.9732000000000003 3.095700000000001  1.4261 1.3952999999999989  C 1.1341 2.3286000000000016  0.5385799999999996 4.3614  0.9167699999999996 5.8444  L 0.7963000000000005 6.211200000000002  C 2.0276999999999994 5.369399999999999  2.7544000000000004 3.256599999999999  3.0296000000000003 2.1799  C 2.9610000000000003 2.2318  2.8863000000000003 2.2600000000000016  2.8123000000000005 2.2890000000000015  C 2.4227000000000007 1.9398000000000017  2.239699999999999 1.3846999999999987  2.342599999999999 0.5138999999999996  Z " fill-rule="nonzero" fill="#c3bdc9" stroke="none" transform="matrix(1 0 0 1 29 31 )" />
  </g>
</svg>