<?xml version="1.0" encoding="utf-8"?>
<svg version="1.1" xmlns:xlink="http://www.w3.org/1999/xlink" width="3px" height="2px" xmlns="http://www.w3.org/2000/svg">
  <g transform="matrix(1 0 0 1 -28 -29 )">
    <path d="M 0.6741200000000003 1.5290999999999997  C 0.7198700000000002 0.9732000000000003  1.0515500000000007 0.5036000000000005  1.7957400000000003 0.17190000000000083  C 1.5723299999999991 0.26340000000000074  0.7252100000000006 0.5729000000000006  0.6390499999999992 1.5290999999999997  L 0.4560499999999994 1.6319999999999997  C 1.6180800000000009 2.015599999999999  2.5002999999999993 1.1395  2.6717999999999993 0.9793000000000003  C 2.4887999999999995 0.8650000000000002  2.3050999999999995 0.7674000000000003  2.1510999999999996 0.49290000000000056  L 1.9962700000000009 0.5676000000000005  C 1.6241800000000008 0.8772000000000002  1.1720299999999995 1.1806  0.7366499999999991 1.4718999999999998  L 2.0877999999999997 0.7849000000000004  C 2.1677999999999997 0.8711000000000002  2.2539999999999996 0.9626000000000001  2.4430999999999994 1.0769000000000002  C 1.6241800000000008 1.6380999999999997  0.9829299999999996 1.6091999999999995  0.6741200000000003 1.5290999999999997  Z " fill-rule="nonzero" fill="#c3bdc9" stroke="none" transform="matrix(1 0 0 1 28 29 )" />
  </g>
</svg>