<?xml version="1.0" encoding="utf-8"?>
<svg version="1.1" xmlns:xlink="http://www.w3.org/1999/xlink" width="2px" height="2px" xmlns="http://www.w3.org/2000/svg">
  <g transform="matrix(1 0 0 1 -28 -28 )">
    <path d="M 1.4974900000000009 1.1884999999999994  L 1.5035900000000009 1.2060999999999993  C 1.3663399999999992 1.2631999999999994  1.2291000000000007 1.3089999999999993  1.0857500000000009 1.3890999999999991  C 0.43305999999999933 1.2914999999999992  0.3240300000000005 1.1312999999999995  0.043430000000000746 0.9940999999999995  L 0.10061999999999927 0.9711999999999996  C 0.2035499999999999 1.0458999999999996  0.3354700000000008 1.1030999999999995  0.45594 1.1655999999999995  C 0.6503700000000006 1.2288999999999994  0.6961200000000005 1.1541999999999994  0.50169 1.0855999999999995  C 0.2729400000000002 1.0108999999999995  0.12959000000000032 0.9139999999999997  0.0037800000000007827 0.8163999999999998  C 0.22719000000000023 0.3810000000000002  0.7594100000000008 0.16910000000000025  0.82803 0.13480000000000025  C 0.5359999999999996 0.3239000000000001  0.19211999999999918 0.49540000000000006  0.10671999999999926 0.7874999999999996  C 0.5649800000000003 0.7187999999999999  1.0514399999999995 0.6387999999999998  1.6469400000000007 0.5068999999999999  C 1.6926900000000007 0.5869  1.7331000000000003 0.6669999999999998  1.8185000000000002 0.7759999999999998  L 1.80096 0.7935999999999996  L 1.70946 0.6844999999999999  L 0.1120599999999996 0.8049999999999997  C 0.5527700000000006 1.1084999999999994  1.0277999999999992 1.1373999999999995  1.4974900000000009 1.1884999999999994  Z " fill-rule="nonzero" fill="#c3bdc9" stroke="none" transform="matrix(1 0 0 1 28 28 )" />
  </g>
</svg>