<?xml version="1.0" encoding="utf-8"?>
<svg version="1.1" xmlns:xlink="http://www.w3.org/1999/xlink" width="3px" height="2px" xmlns="http://www.w3.org/2000/svg">
  <g transform="matrix(1 0 0 1 -28 -26 )">
    <path d="M 1.7552000000000003 1.5631000000000004  L 1.7613000000000003 1.5631000000000004  C 1.6698000000000004 1.6546000000000003  1.6240500000000004 1.7919  1.5897400000000008 1.9413  C 0.54209 1.5974000000000004  0.37052000000000085 0.9446999999999992  0.3354499999999998 0.8760999999999992  C 0.9652600000000007 0.44069999999999965  1.3434600000000003 0.6015999999999995  1.8642400000000006 0.5901999999999994  C 0.7532999999999994 0.5382999999999996  0.46125999999999934 0.8303999999999991  0.4155099999999994 0.8874999999999993  C 0.8333499999999994 1.0018999999999991  1.1253799999999998 1.1049000000000007  2.019 1.2543000000000006  C 1.9328599999999998 1.3176000000000005  1.8817699999999995 1.3687000000000005  1.8413599999999999 1.4259000000000004  C 1.4974799999999995 1.2825000000000006  0.85623 1.0881000000000007  0.40408000000000044 0.9103999999999992  C 0.47879999999999967 1.2139000000000006  0.9423899999999996 1.6660000000000004  1.3373600000000003 1.7865000000000002  C 1.4463899999999992 1.8155000000000001  1.5661000000000005 1.8727  1.6118500000000004 1.7293000000000003  C 1.6293900000000008 1.6721000000000004  1.7147900000000007 1.5806000000000004  1.7552000000000003 1.5631000000000004  Z " fill-rule="nonzero" fill="#c3bdc9" stroke="none" transform="matrix(1 0 0 1 28 26 )" />
  </g>
</svg>