<?xml version="1.0" encoding="utf-8"?>
<svg version="1.1" xmlns:xlink="http://www.w3.org/1999/xlink" width="3px" height="3px" xmlns="http://www.w3.org/2000/svg">
  <g transform="matrix(1 0 0 1 -30 -24 )">
    <path d="M 1.0271000000000008 1.4433500000000006  L 1.0386000000000006 1.4441199999999998  C 0.9410000000000007 1.2839899999999993  0.7870000000000008 0.7914300000000001  0.8838000000000008 0.4589800000000004  C 2.2180999999999997 0.7449200000000005  2.4468999999999994 1.7986699999999995  2.4697999999999993 2.0106  C 2.2752999999999997 1.24892  1.5479000000000003 0.5565800000000003  1.0439000000000007 0.6480800000000002  C 1.3474000000000004 0.9286700000000003  1.7256 1.5066400000000009  1.9543 1.7529199999999996  C 1.8453 1.7529199999999996  1.7309 1.76436  1.6623 1.7933299999999992  C 1.4732000000000003 1.77046  1.3878000000000004 1.8108699999999995  1.2902000000000005 1.8390799999999992  C 1.1873000000000005 1.71861  1.1469000000000005 1.62711  1.0843000000000007 1.5295100000000001  C 1.2216000000000005 1.71861  1.4168000000000003 1.6896400000000007  1.6165000000000003 1.6324500000000004  C 1.4107000000000003 1.2603600000000004  1.2040000000000006 0.9911999999999992  0.9982000000000006 0.6701899999999998  C 0.8952000000000009 0.7449200000000005  0.9982000000000006 1.1452200000000001  1.0271000000000008 1.4433500000000006  Z " fill-rule="nonzero" fill="#e0dee4" stroke="none" transform="matrix(1 0 0 1 30 24 )" />
  </g>
</svg>