<?xml version="1.0" encoding="utf-8"?>
<svg version="1.1" xmlns:xlink="http://www.w3.org/1999/xlink" width="4px" height="2px" xmlns="http://www.w3.org/2000/svg">
  <g transform="matrix(1 0 0 1 -34 -20 )">
    <path d="M 0.9501000000000008 1.3335100000000004  C 0.9492999999999991 1.0064000000000002  0.9492999999999991 0.8058699999999996  0.8975000000000009 0.8409399999999998  C 1.0117999999999991 1.03538  0.6968999999999994 1.62554  1.2352000000000007 1.5393800000000004  C 1.4182000000000006 1.6537499999999996  1.5791000000000004 1.5912300000000004  1.6645000000000003 1.5912300000000004  C 2.0198 1.46542  2.0084000000000017 1.2191299999999998  2.0313000000000017 1.15585  C 1.7217000000000002 0.7204699999999997  2.0717 0.6350699999999998  2.1060000000000016 0.6121999999999996  C 2.2951000000000015 0.6350699999999998  2.3979999999999997 0.9903899999999997  2.1403 1.0986599999999997  C 2.1632 1.1162  2.1921999999999997 1.1101  2.2318 1.0925599999999998  C 2.2318 1.65909  2.6328999999999994 1.6994999999999996  2.907399999999999 1.6079999999999997  C 3.4571000000000005 1.7566899999999999  3.187999999999999 1.1215400000000004  3.4510000000000005 0.6518499999999996  C 3.158999999999999 1.1726200000000002  3.3480999999999987 1.6423100000000002  2.918800000000001 1.57979  C 3.027799999999999 1.3106299999999997  2.735800000000001 1.1047599999999997  2.884499999999999 0.8127300000000002  C 2.661100000000001 1.00183  3.033200000000001 1.3563799999999997  2.884499999999999 1.54014  C 2.735800000000001 1.6720499999999996  2.5870999999999995 1.5630199999999999  2.5809999999999995 1.5058299999999996  C 2.5177000000000014 1.3114  2.959199999999999 1.0818899999999996  2.6953999999999994 0.7273300000000003  C 2.7868999999999993 0.9164300000000001  2.752600000000001 1.00183  2.706800000000001 1.1284  C 2.661100000000001 1.2488700000000001  2.4720000000000013 1.3571400000000002  2.5581999999999994 1.6034300000000004  C 2.3637000000000015 1.5630199999999999  2.2661000000000016 1.34037  2.3180000000000014 1.1566099999999997  C 2.3698000000000015 0.9789500000000002  2.4613000000000014 0.6815800000000003  2.1235 0.5839800000000004  C 1.6996000000000002 0.7097899999999999  1.9177 1.04758  1.9687999999999999 1.1047599999999997  C 2.0717 1.2191400000000003  1.8826 1.5569199999999999  1.6424000000000003 1.5569199999999999  C 1.7514000000000003 1.3906999999999998  1.6195000000000004 1.3563799999999997  1.4594000000000005 1.0872200000000003  C 1.4480000000000004 1.2305700000000002  1.7804000000000002 1.41967  1.5913000000000004 1.53404  C 1.4937000000000005 1.6140999999999996  1.3565000000000005 1.5683499999999997  1.2993000000000006 1.51117  C 1.1903000000000006 1.3906900000000002  1.4480000000000004 1.2481099999999996  1.4022000000000006 1.0071599999999998  C 1.3336000000000006 1.3510499999999999  1.2307000000000006 1.3335100000000004  1.2474000000000007 1.4936299999999996  C 1.1216000000000008 1.52794  0.9896999999999991 1.57369  0.9501000000000008 1.3335100000000004  Z " fill-rule="nonzero" fill="#e0a231" stroke="none" transform="matrix(1 0 0 1 34 20 )" />
  </g>
</svg>