<?xml version="1.0" encoding="utf-8"?>
<svg version="1.1" xmlns:xlink="http://www.w3.org/1999/xlink" width="24px" height="24px" xmlns="http://www.w3.org/2000/svg">
  <g transform="matrix(1 0 0 1 -24 -12 )">
    <path d="M 6 2  L 18 2  C 20.206 2  22 3.7939999999999996  22 6  L 22 18  C 22 20.206  20.206 22  18 22  L 6 22  C 3.7939999999999996 22  2 20.206  2 18  L 2 6  C 2 3.7939999999999996  3.7939999999999996 2  6 2  Z M 24 6  C 24 2.686  21.314 0  18 0  L 6 0  C 2.686 0  0 2.686  0 6  L 0 18  C 0 21.314  2.686 24  6 24  L 18 24  C 21.314 24  24 21.314  24 18  L 24 6  Z " fill-rule="nonzero" fill="#014a93" stroke="none" transform="matrix(1 0 0 1 24 12 )" />
  </g>
</svg>