<?xml version="1.0" encoding="utf-8"?>
<!-- Generator: Adobe Illustrator 27.6.1, SVG Export Plug-In . SVG Version: 6.00 Build 0)  -->
<svg version="1.1" id="Warstwa_1" xmlns="http://www.w3.org/2000/svg" xmlns:xlink="http://www.w3.org/1999/xlink" x="0px" y="0px"
	 viewBox="0 0 229 114.886" style="enable-background:new 0 0 229 114.886;" xml:space="preserve">
<style type="text/css">
	.st0{fill:#DC173E;}
	.st1{fill-rule:evenodd;clip-rule:evenodd;fill:#F7D256;}
	.st2{fill-rule:evenodd;clip-rule:evenodd;fill:#FFFFFF;}
	.st3{fill-rule:evenodd;clip-rule:evenodd;fill:#DFDDE2;}
	.st4{fill-rule:evenodd;clip-rule:evenodd;fill:#F1EEF0;}
	.st5{fill-rule:evenodd;clip-rule:evenodd;fill:#E8E6EB;}
	.st6{fill-rule:evenodd;clip-rule:evenodd;fill:#C3BDC9;}
	.st7{fill-rule:evenodd;clip-rule:evenodd;fill:url(#path3384_00000010274640255278435910000002572649734885577355_);}
	.st8{fill-rule:evenodd;clip-rule:evenodd;fill:url(#path3386_00000150099649204461813820000014557366178940202390_);}
	.st9{fill-rule:evenodd;clip-rule:evenodd;fill:url(#path3411_00000131363176216161211430000001917340697180200112_);}
	.st10{fill-rule:evenodd;clip-rule:evenodd;fill:#CECAD5;}
	.st11{fill-rule:evenodd;clip-rule:evenodd;fill:#C5BDCB;}
	.st12{fill-rule:evenodd;clip-rule:evenodd;fill:#C4BDCB;}
	.st13{fill-rule:evenodd;clip-rule:evenodd;fill:#E0DEE2;}
	.st14{fill-rule:evenodd;clip-rule:evenodd;fill:#DFDDE1;}
	.st15{fill-rule:evenodd;clip-rule:evenodd;fill:#C4BEC9;}
	.st16{fill-rule:evenodd;clip-rule:evenodd;fill:#C3BECA;}
	.st17{fill-rule:evenodd;clip-rule:evenodd;fill:#C5C0CE;}
	.st18{fill-rule:evenodd;clip-rule:evenodd;fill:#E1DFE3;}
	.st19{fill-rule:evenodd;clip-rule:evenodd;fill:#E0DEE3;}
	.st20{fill-rule:evenodd;clip-rule:evenodd;fill:#C5BECC;}
	.st21{fill-rule:evenodd;clip-rule:evenodd;fill:#C3BEC9;}
	.st22{fill-rule:evenodd;clip-rule:evenodd;fill:#C5BECB;}
	.st23{fill-rule:evenodd;clip-rule:evenodd;fill:#B6B1BF;}
	.st24{fill-rule:evenodd;clip-rule:evenodd;fill:#AAA3B5;}
	.st25{fill-rule:evenodd;clip-rule:evenodd;fill:#DFDCE1;}
	.st26{fill-rule:evenodd;clip-rule:evenodd;fill:#E0A231;}
	.st27{fill-rule:evenodd;clip-rule:evenodd;fill:#DFA231;}
	.st28{fill-rule:evenodd;clip-rule:evenodd;fill:#C1C1C9;}
	.st29{fill-rule:evenodd;clip-rule:evenodd;fill:#DFDDE3;}
	.st30{fill-rule:evenodd;clip-rule:evenodd;fill:#E0DEE4;}
	.st31{fill-rule:evenodd;clip-rule:evenodd;fill:#E1A132;}
	.st32{fill:#1E1E1E;}
</style>
<g>
	<g>
		<g>
			<path class="st0" d="M85.414,29.086c0,29.086,0,29.086,29.086,29.086s29.086,0,29.086-29.086S143.586,0,114.5,0
				S85.414,0,85.414,29.086z"/>
		</g>
		<g>
			<g>
				<g>
					<path id="path3360_00000150070665710909817070000005421855716611349136_" class="st1" d="M111.247,7.904
						c0.697,1.207,0.968,2.363,1.353,3.456c0.635-0.083,1.364,0.083,2.082,0.135c0.822,0.156,1.468,0.229,2.082,0.135
						c0.375-1.728,0.697-2.592,1.447-3.799c-0.333,0.229-1.03,0.312-1.311,0.729c-0.416-0.364-0.739-0.135-0.947,0.25
						c0.073-0.312-0.021-0.572-0.427-0.604c0.239-0.448-0.135-0.677-0.52-0.479c-0.01-0.396-0.323-0.396-0.343-0.604
						c-0.052,0.239-0.333,0.125-0.291,0.708c-0.312-0.25-0.625-0.083-0.5,0.354c-0.385,0-0.489,0.312-0.448,0.708
						c-0.26-0.604-0.749-0.427-0.926-0.208c-0.302-0.604-0.541-0.219-1.239-0.781l0,0L111.247,7.904z"/>
					<path id="path3358_00000080194776023658912070000001339677264525130127_" class="st2" d="M117.368,10.985
						c-0.437,0.76-0.635,0.812-2.571,0.51c-1.53-0.156-2.914-0.583-2.977,0.801c0.51,0.062,1.249,0.114,1.561,1.197l-0.937,0.801
						c-0.666,0.104-1.707,0.989-2.394,0.167c-0.187,0.77,0.52,0.989,1.27,0.958c0.52-0.052,0.687-0.198,1.655-0.385l0.26,0.281
						c1.468,0.125,2.227,2.217-0.156,3.456c-0.094,0.281,0.062,0.625,0.281,0.666c-0.687,0.978-1.832,2.196-2.238,1.395
						c-0.094,0.094-0.364,0.76,0.156,1.124c-0.396,0.489-0.541,1.062-0.52,1.717c-1.572-0.25-2.602-0.51-2.248-1.978
						c1.665,0.073,2.123-1.936,1.874-2.956c-0.968-4.08-6.235-7.359-10.065-7.463c0.208,1.114,0.895,1.915,1.676,2.654
						c-1.02-0.5-2.196-0.978-3.435-0.718c0.146,0.874,0.614,1.894,2.623,3.549c-1.447-0.854-2.769-1.697-3.237-2.373
						c-0.208,0.281-0.323,1.426,0.906,2.259c-0.396-0.156-2.321-0.146-2.904,0.281c0.354,0.801,1.967,2.207,3.289,2.644
						c-1.259-0.187-2.436-0.687-3.508-1.603c-0.156,0.146,0,1.634,1.343,2.217c-0.437,0.031-1.915,0.448-2.29,0.916
						c0.77,1.03,2.748,1.936,3.726,1.936c-1.332,0.177-2.8-0.094-3.404-0.281c0.01,0.343-0.271,1.717,3.383,1.488
						c-1.301,0.614-3.279,1.905-3.591,3.029c1.27,0.562,3.539,0.094,4.715-0.271c-3.476,2.123-4.018,2.342-4.663,2.196
						c0.843,1.78,2.873,0.572,4.621-0.416c-2.155,2.883-2.508,4.351-2.456,6.401c1.738-0.208,4.247-2.696,5.589-4.819
						c-1.551,3.195-2.477,5.756-4.163,6.516c1.926,0.76,3.581-1.655,4.746-4.226c-0.448,1.624-0.625,5.069-0.062,5.912
						c1.738-1.176,3.06-3.799,3.945-6.807c-0.302,1.478-0.52,2.966-1.072,4.444c1.124,0.208,1.697-1.801,2.071-2.977
						c0.031,0.062,0.073,0.114,0.187,0.219c1.416-1.03,1.863-3.414,1.967-4.34c1.291,0.364,1.863-0.104,2.186-0.343
						c0.281,0.396,0.302,0.999,0.385,1.083c-1.405-1.145-2.904,0-2.966,1.905c-0.156,0.791-0.572,1.707-1.634,2.415
						c0.062,0.083,0.219,0.125,0.406,0.114c-0.187,0.323-0.354,0.593-0.666,0.885c0.083,0.052,0.177,0.052,0.281,0.073
						c-0.239,0.396-0.625,0.76-1.02,0.958c0.094,0.094,0.146,0.125,0.437,0.198c-0.26,0.343-0.687,0.666-1.093,0.833
						c0.77,0.458,1.353,0.51,1.832,0.468l0,0c-0.302,0.604-0.791,0.906-1.27,1.176c0.146,0.135,0.333,0.167,0.479,0.125
						c-0.437,0.448-0.895,0.801-1.301,0.937c0.073,0.052,0.125,0.135,0.396,0.114c-0.291,0.364-0.656,0.718-1.291,0.885
						c0.125,0.239,0.385,0.208,0.604,0.208c-0.177,0.375-0.718,0.5-1.27,0.614c0.416,0.114,0.697,0.343,0.448,0.281
						c-0.167,0.198-0.333,0.302-0.687,0.364c-0.364,0.052-1.686-0.416-2.217-0.239c-0.146-0.302-0.51-0.51-0.895-0.51
						c-0.489,0-0.968,0.312-0.999,0.749c-0.073-0.052-0.396-0.094-0.343,0.281c0.114,0.219,0.125,0.406,0.822,0.677
						c0.114,0.052,0.25,0.073,0.427,0.073c0.25-0.01,0.531-0.135,0.739-0.323l0,0c0.354,0.073,0.739,0.135,0.947,0.219
						c-0.552,0.042-0.749,0.354-1.062,0.572c-0.135,0-0.239-0.042-0.364-0.062l0,0c-0.073-0.01-0.146-0.021-0.219-0.021
						c-0.396,0.021-0.801,0.468-0.843,0.978c0,0.104,0.021,0.198,0.062,0.291v0.083c-0.125,0.146-0.073,0.26,0.042,0.343
						c0.489,0.187,0.77,0.073,0.947,0.042c0.437-0.052,0.812-0.416,0.812-0.822l0,0l0,0c0.52-0.094,1.03-0.239,1.322-0.448
						c0.01,0.031,0.021,0.062,0.021,0.104c-0.177,0.104-0.479,0.281-0.635,0.801c-0.052,0-0.094,0-0.135,0
						c-0.593,0-0.739,0.406-0.729,0.749c0,0.323,0.125,0.541,0.302,0.666c-0.031,0.208-0.01,0.375,0.198,0.437
						c0.708,0.114,0.885-0.26,1.02-0.25c0-0.094,0.01-0.156,0.042-0.219c0.219-0.104,0.364-0.187,0.385-0.593
						c0.021-0.25-0.021-0.406-0.104-0.51h0.021l0,0l0,0l0,0l0,0c0.645-0.552,1.062-0.989,1.343-1.364
						c0.25,0.062,0.812,0.042,1.082-0.052v0.104c-0.271,0.25-0.094,0.843,0.25,0.822c-0.01,0.052-0.01,0.104,0,0.167
						c0.219,0.135,0.635,0.042,0.947,0.114c0.167-0.021,0.239-0.125,0.198-0.343l0,0c0.25-0.156,0.427-0.427,0.385-0.76
						c0-0.468-0.364-0.843-0.822-0.874l0,0c-0.489-0.052-0.947,0.291-0.854-0.458c1.332-1.572,3.143-3.955,3.643-4.236
						c-0.042-0.052-0.062-0.114-0.094-0.187c0.198,0.52,0.937,1.072,1.728,1.02c-0.146-0.271-0.302-0.51-0.354-1.228
						c0.114,0.167,0.312,0.25,0.562,0.302c-0.364-1.676,0.177-3.06,1.301-4.32c-0.094,1.624-0.291,3.258-1.28,4.902
						c0.51,0.156,1.166-0.354,1.259-0.666c0.104,1.457-1.28,3.341-2.363,2.436c-0.677,1.499,0.937,2.217,1.946,1.353
						c-0.177,0.906-0.874,1.436-1.645,1.645s-1.572-0.114-1.062-1.353c-0.104-0.062-1.655-0.104-1.697,1.582
						c0.042,0.968,0.708,1.343,0.76,1.353c-2.207,1.665,0.021,3.529,1.832,3.175c1.436-0.219,2.259-1.395,2.779-2.238
						c-0.156,0.614-0.812,2.561,0.854,4.684c1.645-2.571,0.947-4.299,0.906-4.569c1.291,1.988,2.571,2.134,3.32,2.092
						c1.291,0.021,3.112-1.998,0.791-3.3c1.187-0.562,1.27-2.914-0.406-3.029c0.343,0.926-0.385,1.488-1.187,1.416
						c-0.801-0.073-1.54-0.531-1.822-1.572c1.582,0.76,2.311-0.739,1.769-1.54c-1.343,1.114-1.988-0.677-2.165-1.738
						c0.343,0.26,0.645,0.354,1.218,0.271c-1.093-1.405-1.353-3.3-1.447-5.069c0.749,1.187,1.478,2.633,1.457,4.059
						c0.177-0.083,0.333-0.104,0.635-0.729c0.031,1.062-0.094,1.207-0.458,1.655c0.593,0.25,1.364-0.229,1.728-0.864l0,0
						c1.145,1.54,2.384,3.133,3.581,4.361c0.26,0.271,0.354,0.541-0.135,0.635c-1.54-0.572-1.707,1.041-1.062,1.259
						c-0.052,0.146-0.062,0.302-0.021,0.458c0.302,0.094,0.926-0.156,1.093-0.167c0.073-0.073,0.073-0.219,0.073-0.364
						c0.156,0,0.26-0.094,0.333-0.219c0.302,0.062,0.593,0.094,0.978-0.219l1.145,1.145c0.062,0.031-0.062,0.156,0.104,0.177
						c-0.125,0.76,0.167,0.843,0.416,1.041c-0.052,0.729,1.041,0.312,1.145,0.354c0.114-0.073,0.125-0.146,0.104-0.229
						c0.125-0.135,0.062-0.198,0.021-0.291c0.541-0.833-0.229-1.468-0.656-1.395c-0.458-0.5-0.781-0.708-1.145-1.01
						c0.749,0.281,1.905,0.604,2.238,0.843c0.125,0.854,0.874,0.5,1.426,0.531c0.167-0.239,0.083-0.312,0-0.396
						c0.718-0.937-0.801-1.697-1.447-1.145c-0.385-0.354-0.718-0.416-1.062-0.562c0.146-0.146,0.448-0.26,1.145-0.302
						c0.312,0.208,0.614,0.281,0.926,0.052c0.135,0.291,0.396,0.219,0.489,0.167c0.229-0.26,0.229-0.656,0.291-1.02
						c-0.062-0.135-0.156-0.219-0.333-0.208c-0.468-0.801-1.374-0.312-1.426,0.042c-0.781,0.062-1.478,0.167-2.3,0.489
						c-0.271,0.083-0.531-0.208-0.76-0.385c0.208-0.083,0.396-0.177,0.385-0.354c-0.333-0.031-0.656,0-1.041-0.406l0.104-0.271
						c-0.302-0.094-0.614-0.312-1.01-0.926c0.083-0.052,0.156-0.135,0.229-0.271c-0.448-0.104-0.812-0.343-1.103-0.687
						c0.104-0.052,0.208-0.146,0.302-0.291c-0.416-0.25-0.812-0.468-1.613-1.509v-0.01c0.843,0.135,1.717,0.062,2.227-0.323
						c-0.416-0.114-1.135-0.354-1.468-0.978c0.156-0.01,0.25-0.042,0.354-0.073c-0.625-0.416-0.791-0.635-0.958-0.978
						c0.135,0.01,0.323-0.052,0.385-0.135c-0.406-0.187-0.583-0.437-0.729-0.708c0.167,0,0.343,0.031,0.479-0.062
						c-1.603-0.718-1.374-4.465-3.102-4.476c-0.77,0.062-0.906,0.229-1.301,0.427c0.115-0.323,0.312-0.625,0.52-0.916
						c0.937,0.437,1.686,0.187,1.936-0.031c0.125,1.509,0.614,3.123,1.655,3.924c0.177-0.104,0.396-0.229,0.52-0.375
						c0.187,1.395,0.708,3.237,1.884,3.081c-0.541-1.343-0.531-2.696-0.593-4.049c0.489,3.945,1.707,6.245,2.706,6.943
						c0.458-0.614,0.801-3.487,0.583-5.225c0.989,1.78,2.082,3.435,2.998,3.424c0.416,0,0.874-0.343,1.155-0.427
						c-1.436-0.583-2.415-3.227-3.289-4.871c1.655,2.592,3.622,3.758,4.549,3.934c0.031-0.801,0.208-3.039-1.853-6.152
						c3.685,1.946,4.465,0.687,4.684,0.021c-1.665,0.583-3.903-1.561-5.402-2.238l-0.021-0.062c2.196,0.999,4.351,1.343,5.694,0.5
						c-1.145-1.769-2.259-2.415-3.466-2.873c2.384,0.26,3.164-0.541,3.216-1.436c-0.874,0.291-1.676,0.343-2.717,0.177
						c2.279-0.458,2.696-1.426,2.675-1.52c-0.583-0.458-1.686-0.968-2.685-1.062c2.748-0.989,1.874-1.926,1.769-2.217
						c-0.854,0.801-2.342,1.374-2.613,1.353c1.28-0.666,2.394-2.425,2.321-2.623c-0.645-0.333-1.967-0.312-2.508-0.156
						c0.531-0.583,1.239-1.593,0.593-2.425c-0.625,0.885-1.218,1.343-1.801,1.811c0.541-0.677,1.155-1.457,1.374-3.05
						c-0.801,0.104-1.53,0.031-2.571,0.718c0.593-0.749,0.968-1.478,1.041-2.373c-3.591,0.25-7.796,2.134-9.826,6.838
						c-0.593,1.384-0.125,3.726,1.717,3.456c0.291,1.187-0.489,1.905-2.196,1.853c-0.031-0.396,0.083-1.187-0.396-1.593
						c0.416-0.031,0.5-0.239,0.583-0.416c-1.114-0.26-0.937-0.625-0.729-2.602c0.146,0.062,0.312,0.021,0.437-0.094
						c-0.458-0.427-0.312-1.207-0.073-3.674c0.042-1.072-0.177-1.613-0.416-1.801c0.146-0.073,0.239-0.187,0.167-0.458
						c0.51-0.094,0.291-0.718,0.083-0.926c-0.104,0.281-0.541,0.385-0.958,0.073c0.51-0.229,0.51-0.801,0.125-1.197l0,0
						L117.368,10.985z M119.449,37.517c0,0,0.031,0.042,0.052,0.062c-0.021-0.021-0.031-0.031-0.052-0.052l0,0l0,0V37.517z
						 M108.937,37.59c-0.052,0.187,0.042,0.697,0.052,1.03c0.167,0.083,0.468,0,0.812-0.135c-0.021,0-0.042,0.021-0.052,0.021
						c-0.26,0.094-0.572,0.198-0.76,0.114l-0.062-0.76c-0.01-0.083-0.01-0.177,0.01-0.281l0,0l0,0L108.937,37.59z M108.812,37.621
						c0,0-0.062,0.021-0.083,0.021C108.76,37.642,108.791,37.631,108.812,37.621z M119.668,37.714
						c0.385,0.281,0.854,0.281,1.02,0.239c0-0.021,0.021-0.042,0.031-0.062c0,0.021-0.01,0.052-0.021,0.073
						C120.345,38.016,119.991,37.964,119.668,37.714L119.668,37.714z M106.574,44.053L106.574,44.053L106.574,44.053L106.574,44.053
						L106.574,44.053z M116.316,44.48c0.354,0.375,1.738,1.395,3.331,0.906c0.135,0.906-0.635,1.239-1.239,1.124
						c-0.593-0.125-1.478-0.593-2.092-2.019l0,0V44.48z M113.142,44.709c-0.52,0.989-1.374,1.822-2.144,2.019
						c-0.76,0.198-1.478-0.177-1.197-1.176c1.655,0.552,2.998-0.427,3.341-0.854l0,0V44.709z"/>
					<path id="path3362_00000163766530064110024690000004669112026016559533_" class="st3" d="M105.523,26.431
						c-0.562-0.656-0.479-1.072-0.458-1.311c-0.614-0.468-0.458-0.645-0.562-0.833c0.219,0.375,0.427,0.625,0.645,0.656
						c0.406,0.375,0.812,0.5,1.218,0.739c-2.488-1.364-1.801-3.029-1.769-3.508c-0.385,0.01-0.677-0.062-0.885-0.219
						c0.073-0.677,0.427-1.218,1.176-1.593c-0.094,0.031-0.187,0.073-0.281,0.094c-0.083-0.021-0.302-0.572-0.031-0.937
						c0.156-0.094,0.572-0.135,0.999,0.031c0.25-0.51,0.572-0.958,1.249-1.135c0.167,0.177,0.448,0.687,0.25,1.582
						c0.281,0.104,0.552,0.229,0.77,0.562c-0.073,0.281-0.135,0.364-0.208,0.437c1.093,0.01,1.197-1.52-0.021-1.676
						c0.198-1.436-1.645-2.29-2.446-0.52c-1.478-0.396-1.874,0.749-1.311,1.655c-0.177,0.135-1.645,1.207-0.25,2.748
						c0,0.76,0.187,1.499,1.218,2.144c0.291,0.874,0.479,0.874,0.697,1.062l0,0V26.431z"/>
					<path id="path3364_00000072963352045219470770000015500500243827611323_" class="st3" d="M123.811,18.406l0.198-0.375
						c1.332-0.208,2.134,0.677,1.613,1.728c1.072,0.916,0.479,2.113-0.167,2.342c0.77-0.572,0.343-0.749,0.219-0.739
						c0.042-0.021,0.104-0.052,0.156-0.104c-0.042-0.5-0.239-0.978-1.01-1.551c0.385-0.427,0.343-0.822,0.291-1.103
						c-0.427-0.114-0.801-0.073-1.135,0.094l-0.167-0.312l0,0V18.406z"/>
					<path id="path3366_00000082346411432026282560000006087565854893107116_" class="st3" d="M121.968,20.998
						c0.062-0.208,0.114-0.541,0.489-0.854c-0.114,0.083-0.25,0.187-0.396,0.312c-0.479-0.198-0.791-0.635-0.864-0.906
						c0.291-0.385,0.999-0.323,1.093-0.302c-0.208-0.77,0.062-1.343,0.25-1.561c0.635,0.062,0.968,0.385,1.228,0.677l0.187-0.343
						c-0.177-0.541-0.708-0.947-1.332-0.822c-0.52,0.052-1.124,0.51-0.885,1.582c-1.582,0.635-0.906,2.155,0.219,2.207l0,0
						L121.968,20.998z"/>
					<path id="path3368_00000045601748407131229450000009513134917754211771_" class="st4" d="M118.533,23.694
						c-0.062,0.583-0.177,1.01-0.302,1.405c2.144-0.323,5.329-0.874,4.902-3.237c-0.396,0.281-0.781,0.333-1.176,0.343
						c-0.062-0.333-0.104-0.697,0.01-1.166c-0.354,0.479-0.77,0.666-1.207,0.77c1.946,0.864-0.822,2.404-1.978,1.884h-0.26l0,0
						L118.533,23.694z"/>
					<path id="path3370_00000006695180770075817510000017598193596193815207_" class="st5" d="M110.779,24.579
						c0.062,0.666,0.271,1.478,0.468,2.238C111.112,26.598,110.696,25.287,110.779,24.579z"/>
					<path id="path3372_00000147938757436379712090000015454222519154801071_" class="st6" d="M117.17,24.11
						c-0.52,2.061,1.769,1.853,0.167-0.25c1.561,0.958,0.541,2.384,0.458,2.706C117.545,25.463,116.587,25.182,117.17,24.11z"/>
					<path id="path3374_00000137097741341973165940000014207312341147548349_" class="st2" d="M106.824,18.469l-0.781,2.279
						c-0.187-0.083-0.375-0.156-0.625-0.448c0-0.791,0.708-1.769,1.395-1.832L106.824,18.469z"/>
					<path id="path3376_00000010292694236152917780000002805530073595937706_" class="st6" d="M107.438,22.913l-1.395-2.155
						c0.219,0,0.468,0,0.781-0.073c0.416,0.385,0.864,1.384,0.625,2.227H107.438z"/>
					<path id="path3378_00000134931536166310138350000012657577230137757079_" class="st2" d="M107.042,20.03
						c0.416,0.114,0.708,0.396,0.76,0.562l-0.989,0.094C106.907,20.478,106.98,20.259,107.042,20.03z"/>
					<path id="path3380_00000107569734080458249870000008864176139310273925_" class="st2" d="M104.596,20.467
						c-0.187-0.271-0.187-0.812,0-0.926l0.822,0.76c-0.219,0.052-0.614,0.073-0.833,0.167L104.596,20.467z"/>
					<path id="path3382_00000000222991767680636410000007321094978498077622_" class="st2" d="M103.732,21.945l2.3-1.187
						c0,0-0.323-0.385-0.614-0.458C104.804,20.218,103.784,20.988,103.732,21.945z"/>
					
						<linearGradient id="path3384_00000010273133985302881940000007748326116840976798_" gradientUnits="userSpaceOnUse" x1="120.2246" y1="-10.805" x2="124.7836" y2="-7.2036" gradientTransform="matrix(1 0 0 1 -14.8249 33.1849)">
						<stop  offset="0" style="stop-color:#C3BDC9"/>
						<stop  offset="1" style="stop-color:#C3BDC9;stop-opacity:0"/>
					</linearGradient>
					
						<path id="path3384_00000046302099883264692460000011959025477141922740_" style="fill-rule:evenodd;clip-rule:evenodd;fill:url(#path3384_00000010273133985302881940000007748326116840976798_);" d="
						M105.648,21.956c-1.187,3.404,3.934,3.934,5.298,4.028l-0.167-0.854c-2.477-0.114-4.788-0.656-4.444-2.519
						c-0.448-0.281-0.541-0.406-0.687-0.666l0,0V21.956z"/>
					
						<linearGradient id="path3386_00000085940500460422921140000018276788650363510448_" gradientUnits="userSpaceOnUse" x1="133.9074" y1="-2.6057" x2="120.0951" y2="-9.7565" gradientTransform="matrix(1 0 0 1 -14.8249 33.1849)">
						<stop  offset="0" style="stop-color:#C3BDC9"/>
						<stop  offset="1" style="stop-color:#C3BDC9;stop-opacity:0"/>
					</linearGradient>
					
						<path id="path3386_00000088097459365344583290000016600630915576942509_" style="fill-rule:evenodd;clip-rule:evenodd;fill:url(#path3386_00000085940500460422921140000018276788650363510448_);" d="
						M105.648,21.945c-0.271,0.135-0.666,0.198-1.051,0.25c-0.989,4.132,5.413,4.455,6.641,4.611
						c-0.187-0.385-0.239-0.583-0.291-0.833C107.698,25.765,104.7,24.547,105.648,21.945z"/>
					<path id="path3388_00000161595862275539571000000017692071784330139064_" class="st6" d="M122.572,17.709
						c0.354,0.739,0.739,1.613,1.01,2.436c0.156-0.229,0.302-0.458,0.614-0.718c-0.167-0.781-0.562-1.603-1.634-1.728
						L122.572,17.709z"/>
					<path id="path3390_00000016050867395988640540000006176546986272625552_" class="st2" d="M122.572,17.699
						c0.364,0.76,0.781,1.665,1.02,2.446l-0.874-0.125C122.197,19.458,122.072,18.334,122.572,17.699z"/>
					<path id="path3392_00000093140755234739753940000002239278997777087913_" class="st6" d="M121.229,19.541
						c0.229-0.26,0.708-0.343,1.093-0.271c0.083,0.219,0.229,0.52,0.385,0.749l-1.488-0.479H121.229z"/>
					<path id="path3395_00000145778974597816769420000015231536824166481833_" class="st6" d="M125.081,18.646l-0.885,0.791
						l0.583,0.302c0.468-0.396,0.333-1.103,0.312-1.093l0,0H125.081z"/>
					<path id="path3397_00000156563654466263065200000011019416062988637866_" class="st6" d="M124.196,19.426
						c-0.146,0.031-0.635,0.718-0.604,0.708l2.217,1.135C125.809,20.884,125.466,19.936,124.196,19.426L124.196,19.426z"/>
					<path id="path3399_00000059309287414135827630000014789943474380234116_" class="st6" d="M123.582,20.134l-1.603,2.071
						c1.02-0.042,1.436-0.5,1.79-1.062l-0.198-0.999L123.582,20.134z"/>
					<path id="path3401_00000164490399154587736980000008474342684866094483_" class="st2" d="M125.081,18.646
						c-0.343-0.114-0.801-0.073-1.114,0.094c0.104,0.219,0.177,0.5,0.229,0.697L125.081,18.646z"/>
					<path id="path3403_00000019643079182814281750000005777835091714511764_" class="st2" d="M123.582,20.134l2.238,1.135
						c-0.406,0.333-1.697,0.021-2.051-0.125L123.582,20.134L123.582,20.134z"/>
					<path id="path3405_00000142898273959721195890000017115188634263604096_" class="st2" d="M123.582,20.134l-0.874-0.125
						c-0.968,0.406-0.801,2.061-0.729,2.186L123.582,20.134z"/>
					<path id="path3407_00000117668843688147820530000004034457955531578045_" class="st2" d="M122.697,20.02l-1.468-0.479
						c0.073,0.354,0.51,0.76,0.833,0.895C122.135,20.374,122.458,20.072,122.697,20.02L122.697,20.02z"/>
					<path id="path3409_00000039132956053788516230000011676881269065904054_" class="st2" d="M123.8,21.144
						c-0.271,0.406-0.354,0.51-0.656,0.708c0.52,2.394-2.914,2.987-4.902,3.268c-0.021,0.333-0.125,0.604-0.219,0.864
						C118.377,25.963,125.424,25.828,123.8,21.144L123.8,21.144z"/>
					
						<linearGradient id="path3411_00000034072434801811462520000007496176442010856846_" gradientUnits="userSpaceOnUse" x1="141.2974" y1="-12.2287" x2="133.033" y2="-5.9107" gradientTransform="matrix(1 0 0 1 -14.8249 33.1849)">
						<stop  offset="0" style="stop-color:#C3BDC9"/>
						<stop  offset="1" style="stop-color:#C3BDC9;stop-opacity:0"/>
					</linearGradient>
					
						<path id="path3411_00000065055211900077686470000017199930297227796901_" style="fill-rule:evenodd;clip-rule:evenodd;fill:url(#path3411_00000034072434801811462520000007496176442010856846_);" d="
						M123.842,21.175c0.947,3.476-2.155,4.465-5.808,4.798c-0.094,0.219-0.177,0.448-0.26,0.697c4.965-0.343,7.557-1.946,6.88-5.298
						C124.331,21.321,124.081,21.248,123.842,21.175z"/>
					<path id="path3413_00000106851605930517697650000006170204779806490770_" class="st1" d="M100.662,45.531
						c0.396,0.187,0.895,0.062,1.155-0.021c0.146,0.135-0.042,0.677,0.375,1.062c-0.239,0.104-1.561-0.302-1.54-1.041l0,0H100.662z"
						/>
					<path id="path3415_00000074404866570376374070000014336040558644916610_" class="st1" d="M100.1,42.669
						c0.167,0.531,0.635,0.583,0.822,0.697c0,0.198-0.52,0.187-0.531,0.916c-0.354-0.031-0.854-0.864-0.291-1.603V42.669z"/>
					<path id="path3417_00000041272808031741203670000010695021368056043711_" class="st1" d="M102.754,47.041
						c0.645,0.104,0.874-0.239,1.02-0.26c0.073,0.208,0.364,0.489,0.645,0.635C104.284,47.894,102.723,47.79,102.754,47.041
						L102.754,47.041z"/>
					<path id="path3419_00000062896245840029002510000016955127924540776333_" class="st1" d="M107.74,45.271
						c-0.042-0.083-0.781,0-0.916-0.114c-0.094,0.114-0.125,0.489-0.396,0.635c0.177,0.323,1.416,0.219,1.311-0.531V45.271z"/>
					<path id="path3422_00000025428064741546309710000005367330682361715100_" class="st3" d="M109.145,38.672
						c0.114-0.01,0.219-0.031,0.312-0.052c-0.437,0.52-1.166,1.436-1.894,2.207c-0.729,0.77-1.395,1.53-1.145,2.227
						c-0.51-0.5-0.052-0.999,0.625-1.811C107.792,40.358,108.624,39.349,109.145,38.672L109.145,38.672z M108.229,44.261
						c0,0.354-0.302,0.687-1.02,0.656c0.812-0.885-0.833-0.947-0.437-1.311C107.854,42.919,108.312,43.98,108.229,44.261z
						 M107.459,45.042c0.239,0.052,0.385-0.239,0.437-0.094C108,45.24,107.469,45.292,107.459,45.042z M101.973,41.961
						c-0.167,0-0.114,0.666-1.103,0.635c-0.021,0-0.114,0-0.167,0.094c-0.114,0.219,0.281,0.677,0.645,0.656
						c0.323-0.021,0.583-0.208,0.749-0.437c0.073-0.042,0.593-0.333,0.552-0.208c-0.614,0.302-0.458,0.489,0.51,0.562
						c0.614-0.094,1.135-0.625,1.353-0.729c-0.625,0.104-1.957-0.312-2.259-0.312C102.213,42.107,102.119,42.013,101.973,41.961
						L101.973,41.961L101.973,41.961z M100.88,45.375c-0.021,0.052-0.052,0.094-0.094,0.125c0.177,0.114,0.635,0.083,0.687,0.042
						c-0.052,0-0.437-0.021-0.604-0.167H100.88z M105.45,42.607c-0.833,0.406-1.405,1.874-3.466,1.676
						c-0.052,0.177-0.167,0.219-0.271,0.271c-0.427,0-0.926,0.094-0.916,0.364c0,0.323,0.51,0.531,0.843,0.489
						c0.343-0.042,0.697-0.364,0.697-0.687l0,0c0,0,0.031-0.052,0.062-0.052c2.279-0.489,2.633-1.665,3.06-2.071l0,0L105.45,42.607z
						 M105.814,42.648c-0.094,0.552-1.894,2.207-1.978,2.748c-0.094-0.073-0.229-0.125-0.52-0.114
						c0.167,0.833-0.52,1.083-0.708,0.937c0,0.375,0.541,0.531,0.895,0.458c0.416-0.083,0.76-0.718,0.52-1.103
						c0.052-0.687,0.958-0.885,1.332-1.769c0.333,0,0.385-0.52,0.791-0.614c-0.083-0.271-0.427,0.083-0.343-0.562l0,0
						L105.814,42.648z M100.506,42.648c0.052,0.323,0.198,0.468,0.448,0.666c-0.198-0.073-0.385-0.125-0.604-0.312
						C100.547,43.064,100.402,42.596,100.506,42.648z M104.815,41.763c0.385,0.083,0.885,0.125,1.561,0.083
						C105.387,42.19,104.94,42.076,104.815,41.763z M106.064,41.139c0,0.052-0.083,0.156-0.156,0.219
						c0.479,0,0.947-0.104,1.28-0.489c-0.312,0.146-0.666,0.26-1.124,0.26V41.139z M106.74,40.046
						c-0.031,0.062-0.156,0.198-0.25,0.291c0.396,0.042,1.176-0.135,1.52-0.52c-0.312,0.146-0.812,0.219-1.27,0.219V40.046z
						 M107.656,38.995c-0.073,0.073-0.302,0.302-0.385,0.375c0.396,0.042,1.28-0.271,1.624-0.645
						c-0.312,0.146-0.781,0.271-1.228,0.271H107.656z M108.926,37.829c-0.021,0.448-0.177,0.739-0.343,0.937
						c0.135-0.042,0.271-0.073,0.406-0.135c-0.01-0.25-0.031-0.541-0.073-0.791l0,0L108.926,37.829z"/>
					<path id="path3424_00000046298264516880093700000000061164082782658218_" class="st1" d="M121.583,44.824
						c0.396,0.094,0.874-0.156,1.103-0.167c0.104,0.208,0.146,0.437,0.583,0.583c-0.291,0.323-1.374,0.427-1.686-0.427l0,0V44.824z"
						/>
					<path id="path3426_00000024693496890331680490000007224522065608392860_" class="st1" d="M125.965,46.603
						c-0.146,0.146-0.302,0.291-0.583,0.458c0.489,0.448,1.488-0.052,1.447-0.489c-0.094-0.167-0.375,0.198-0.874,0.031
						L125.965,46.603z"/>
					<path id="path3428_00000116199574714146434260000000221721965287839881_" class="st1" d="M127.88,45.042
						c0,0.583-0.062,0.739-0.135,0.937c0.281,0.187,0.999-0.26,1.082-0.947C128.755,44.865,128.443,45.157,127.88,45.042
						L127.88,45.042z"/>
					<path id="path3430_00000093867179913428787450000001998300750710462878_" class="st1" d="M129.202,41.826
						c-0.208,0.052-0.083,0.76-0.323,0.978c0.198,0.104,0.333,0.364,0.468,0.604C129.806,43.064,129.785,42.076,129.202,41.826
						L129.202,41.826z"/>
					<path id="path3432_00000051365400443369558660000017999642293783939497_" class="st3" d="M122.083,44.761
						c0.219-0.062,0.458-0.177,0.541-0.146C122.759,44.147,122.447,44.418,122.083,44.761z M121.771,44.386
						c0.427,0,1.03,0.073,1.187-0.5c0.666,0.323,1.364-0.291,1.207-0.864c0,0-0.219,0.978-1.593,0.364
						c-0.281-0.042-0.656,0.135-0.635,0.323c0.021,0.239,0.489,0.448-0.167,0.687l0,0L121.771,44.386z M125.424,43.908
						c0.354,0.354,0.572,0.687,0.5,0.947c0.219-0.312,0.239-0.125,0.281,0c0.26,0.198,0.448,0.801-0.198,1.197
						c0.302,0.083,0.333,0.354,0,0.448c0.01,0.281,0.781-0.073,0.843,0.042c0.062-0.021,0.083-0.114,0.094-0.198
						c0.062-0.083,0.073-0.187,0-0.312c0.489-0.822-0.114-1.27-0.645-1.364c-0.323-0.333-0.604-0.531-0.885-0.76l0,0L125.424,43.908
						z M125.445,43.023c0.52,0.333,1.239,0.593,1.915,1.03c0.677-0.677,1.176,0.437,0.208,0.51c0.25,0.448,1.28,0.416,1.249,0.062
						c0.645-1.218-1.103-1.52-1.447-1.083c-0.531-0.302-1.01-0.635-1.769-0.77c1.499,0.645,1.759,0.843,1.499,0.885
						C126.86,43.689,126.017,43.21,125.445,43.023z M125.903,42.086c0.416-0.177,1.311-0.156,1.551-0.375
						c0.396-0.718,1.124-0.531,1.364-0.062c0.167,0,0.291,0.031,0.312,0.167c-0.156,0.343-0.052,1.176-0.489,0.968
						c0.083-0.062,0.042-0.125,0-0.187c-0.187,0.187-0.187-0.021-0.187-0.114c-0.281,0.323-0.416,0.271-0.614,0.219
						c0.052-0.021,0.073-0.073,0.062-0.167c0.812-0.312,0.104-1.259-0.552-0.375c-0.219,0.062-1.103-0.135-1.436-0.094l0,0
						L125.903,42.086z M119.429,37.537l-0.031,0.094c0.333,0.302,3.216,3.476,4.07,4.83c-0.125-0.291-0.073-0.406-0.583-1.02
						c1.301,0.729,1.946,0.083,1.863-0.062c-0.104,0.01-0.177,0.031-0.229,0c-1.207,0.614-2.103-0.406-2.633-1.083
						c0.677,0.541,1.114,0.635,1.822,0.677c0.073-0.125,0.083-0.187,0.094-0.25c-0.062-0.01-0.125-0.031-0.167-0.062
						c-0.822,0.312-1.801-0.312-2.571-1.353c0.729,0.531,1.259,0.479,1.759,0.479c0.073-0.094,0.187-0.167,0.198-0.281
						c-0.073,0-0.125-0.021-0.187-0.042c-0.51,0.177-1.78,0.114-2.384-0.937c0.416,0.281,0.885,0.448,1.478,0.302
						c0.114-0.094,0.25-0.177,0.271-0.281c-0.739,0.187-1.457,0.187-2.113-0.396c0.187,0,0.385-0.062,0.583-0.156
						c-0.385,0.031-0.791,0-1.249-0.458l0,0L119.429,37.537z"/>
					<path id="path3434_00000094612247977433287220000017887325190877692863_" class="st6" d="M110.498,14.93
						c1.436,0.77,3.081-0.978,4.236-0.031c0.125,0,0.146-0.083,0.125-0.167C113.516,13.525,112.08,15.305,110.498,14.93
						L110.498,14.93z"/>
					<path id="path3436_00000154421658877223255410000002271772931629569707_" class="st6" d="M109.978,36.923l-0.114,0.114
						c-0.135,0.625-0.468,1.135-0.854,1.613c0.354,0.052,0.781-0.135,1.187-0.323c-0.26-0.479-0.312-0.801-0.229-1.416l0,0
						L109.978,36.923z"/>
					<path id="path3438_00000108991965517751154850000003621040685944950173_" class="st3" d="M110.383,36.08
						c0.198,0.396,0.583-0.25,0.76-0.427c-0.239,0.854-0.718,1.717,0.323,2.519c-0.531,0.052-0.677,0.281-0.187,0.812
						C110.311,38.505,109.769,37.725,110.383,36.08z"/>
					<path id="path3440_00000130648602878674279090000014157044995212997291_" class="st10" d="M111.185,35.612
						c-0.333,1.686,0.219,2.352,0.77,2.508c-0.208-1.822,0.52-3.133,1.53-4.122c-0.062-1.697-0.302-2.467-0.489-3.685
						c0.01,0.572,0.416,2.123,0.146,3.206c-0.281,1.135-1.093,2.227-1.946,2.103l0,0L111.185,35.612z"/>
					<path id="path3442_00000052786978434508530890000003310880689064148628_" class="st6" d="M107.823,37.361
						c0.958,0.062,1.738-0.239,2.373-0.885c-0.343,0.843-1.135,1.249-2.311,1.124C108.312,37.527,108.323,37.454,107.823,37.361z"/>
					<path id="path3444_00000121978808785718358400000010046649566299537040_" class="st6" d="M107.708,36.382
						c-0.094,0.146-0.167,0.208-0.239,0.281c1.509,0.198,2.352-0.52,2.925-1.155c0.833,0.052,1.416-0.5,1.915-1.051
						c-0.562,0.448-1.145,0.812-1.801,0.729c-0.645,0.937-1.561,1.374-2.8,1.187l0,0V36.382z"/>
					<path id="path3446_00000013158277370102553800000007448066175273056667_" class="st6" d="M108.302,35.237
						c-0.114,0.239-0.146,0.229-0.208,0.312c0.51,0.104,1.218-0.094,2.415-1.093c1.187-0.031,1.676-0.801,2.019-1.145
						c-0.625,0.541-1.27,0.833-1.915,0.843c-0.625,0.645-1.311,1.166-2.3,1.083H108.302z"/>
					<path id="path3448_00000098195554027150973690000000960347541310972570_" class="st6" d="M108.687,34.29l-0.219,0.333
						c0.416-0.021,0.958,0,2.113-1.072c0.885-0.187,1.686-0.854,2.384-2.019c-0.583,0.718-1.114,1.478-2.28,1.582
						c-0.302,0.687-1.093,0.968-1.998,1.166V34.29z"/>
					<path id="path3450_00000053505683049744042930000005029126781880725655_" class="st6" d="M118.429,35.695
						c-0.083,0.614-0.219,1.166-0.489,1.593c0.031,0.198,0.021,0.406,0.01,0.604C118.367,37.465,118.669,36.268,118.429,35.695z"/>
					<path id="path3452_00000144332874450303598530000007165805335082578862_" class="st6" d="M119.033,35.987
						c0.448,1.155,0.042,2.696-1.374,2.966c0.437,0.187,1.759-0.416,1.946-2.207l1.083,1.218c0.062-0.281,0.094-0.562-0.104-0.978
						c-0.854-0.177-1.135-0.52-1.54-0.999l0,0L119.033,35.987z"/>
					<path id="path3454_00000005983623594095254830000009655124603073157528_" class="st11" d="M119.73,36.361
						c0.583,0.25,1.603,0.635,2.623,0.187c0.156,0.062,0.302,0.114,0.458,0.135c-0.343,0.364-1.322,0.448-2.217,0.333
						C121.823,36.851,119.959,36.715,119.73,36.361L119.73,36.361z"/>
					<path id="path3456_00000080174094509152789530000001559480800089925042_" class="st12" d="M117.701,34.3
						c0.427,0.302,0.895,0.479,1.436,0.479c0.406,0.76,1.572,0.978,2.227,0.937c0.031,0.104,0.104,0.198,0.187,0.281
						c-0.552,0-1.259-0.177-2.342-0.864C118.919,35.029,117.888,34.55,117.701,34.3L117.701,34.3z"/>
					<path id="path3458_00000145036511936728980070000001931289778435063698_" class="st6" d="M117.482,33.155
						c0.427,0.354,0.885,0.531,1.384,0.593c0.51,0.541,1.114,0.822,1.905,0.926l0.167,0.291c-0.25,0.021-1.447-0.51-1.884-0.916
						c-0.739-0.187-1.291-0.552-1.561-0.885l0,0L117.482,33.155z"/>
					<path id="path3460_00000021805462615365732810000011720420492480433846_" class="st6" d="M117.576,32.239
						c0.489,0.479,1.041,0.677,1.488,0.677c0.333,0.354,0.645,0.718,1.353,0.906c0.031,0.094,0.073,0.177,0.125,0.239
						c-0.531,0-1.27-0.749-1.353-0.864c-0.718-0.104-1.53-0.468-1.624-0.947L117.576,32.239z"/>
					<path id="path3462_00000029738387742201105100000015954945018548169650_" class="st3" d="M113.319,30.074
						c0.156-0.062,0.229-0.146,0.302-0.229c0.125,0.177,0.312,0.219,0.489,0.26c-0.343-0.01-0.385,0.146-0.219,0.437
						c0.073,0.114,0.187,1.811,0.219,2.831c0,0.947,0.135,1.561,0.323,1.978c-0.749-0.635-0.333-4.444-1.114-5.267l0,0V30.074z"/>
					<path id="path3464_00000053520861418625047560000002244753270164360639_" class="st10" d="M114.568,30.147
						c0.416-0.042,0.833-0.062,1.332-0.364l0.177,0.208c-0.354,0.781-0.562,2.613-0.781,4.257c0.062-1.051,0.083-1.988,0.031-2.248
						c-0.115-0.593-0.094-0.947-0.083-1.051c0.229-0.822-0.396-0.625-0.677-0.812l0,0V30.147z"/>
					<path id="path3466_00000137094309557580208820000011540880078386795651_" class="st6" d="M116.244,30.085l0.052,0.052
						c-0.708,1.54,0,5.069-1.52,6.849l-0.031-0.687C115.9,35.539,115.609,31.646,116.244,30.085L116.244,30.085z"/>
					<path id="path3468_00000089562445018308861060000011307595066784473517_" class="st6" d="M113.693,33.884
						c0,2.519,0.406,2.998-1.311,5.1c0.801-0.666,1.697-2.706,1.582-1.54c0.198-0.375,0.396-0.749,0.448-1.072
						C113.745,35.237,113.777,34.581,113.693,33.884L113.693,33.884z"/>
					<path id="path3470_00000101804139325293399790000009475522965966252712_" class="st6" d="M115.088,36.663l-0.323,0.385
						l0.094,3.331C114.901,38.995,114.974,37.725,115.088,36.663L115.088,36.663z"/>
					<path id="path3472_00000000938889852112579760000010014181176799393429_" class="st3" d="M115.848,34.238
						c-0.083,0.52-0.146,1.135-0.281,1.478c0.229,2.665,0.958,2.925,1.561,3.164C116.119,37.454,115.921,35.539,115.848,34.238
						L115.848,34.238z"/>
					<path id="path3474_00000145743486890559576910000006295941476986337969_" class="st13" d="M113.912,37.735
						c-0.312,0.708-0.208,2.061-1.083,2.935c0.729-0.375,1.01-1.28,1.03-1.988l0.073,0.749c-0.239,1.53-0.937,1.946-1.416,2.03
						c0.073-0.021,0.833,0.135,1.54-1.405c0.021,0.562-0.375,1.187-0.885,1.395c0.448,0.01,0.895-0.396,1.124-0.718
						c-0.364-1.093-0.375-2.051-0.364-3.008l0,0L113.912,37.735z"/>
					<path id="path3476_00000063597401005224932770000012374551713509012892_" class="st6" d="M114.255,40.025
						c0.073,0.364,0.187,0.895,0.593,1.416l0.031,0.645c0.187-0.25,0.916-2.311,0.926-2.987c0.031-0.219,0.042-0.468,0.198-0.302
						c0.021,0.01,0.042,0.01,0.062,0c-0.219-0.156-0.458-0.895-0.625-1.145c0.135,0.801,0.229,1.946-0.593,3.653
						c-0.25-0.291-0.427-0.77-0.593-1.259l0,0V40.025z"/>
					<path id="path3478_00000034807651347360077340000018020049492519903931_" class="st3" d="M117.774,41.337
						c-0.885,0.458-1.645-0.645-2.019-1.322l0.167-0.926c0,0,0.073-0.052,0.094-0.01c0.146,1.02,0.791,2.217,1.749,2.269
						L117.774,41.337z"/>
					<path id="path3480_00000116198547451038898890000015340301519586777734_" class="st14" d="M115.598,40.369l-0.094,0.281
						c0.343,0.76,0.749,1.02,1.27,1.218C115.744,41.357,115.671,40.868,115.598,40.369z"/>
					<path id="path3482_00000021113945987388587140000017965643505296411795_" class="st3" d="M114.609,41.67l0.271,0.468
						l0.208-0.458c-0.042,1.239-0.114,2.727-0.156,4.101C114.818,44.397,114.661,42.96,114.609,41.67L114.609,41.67z"/>
					<path id="path3484_00000156558506726184620730000017663269802474297514_" class="st6" d="M115.411,40.899
						c-0.021,0.073-0.052,0.135-0.073,0.177c0.916,3.393-0.167,5.194-0.406,5.465c-0.635-1.124-0.625-2.227-0.77-3.175
						c0.083,0.854-0.01,1.957,0.729,3.331v0.562c0.906-1.114,1.457-2.675,0.76-6.037c-0.104-0.083-0.156-0.208-0.239-0.312l0,0
						V40.899z"/>
					<path id="path3486_00000084495834501773440690000010749346014205445557_" class="st3" d="M114.599,46.947
						c0.073,0.125,0.146,0.25,0.302,0.354c0.198-0.208,0.239-0.312,0.323-0.448c-0.167,0.895-0.239,1.78-0.364,2.665
						c-0.083-0.874-0.146-1.832-0.26-2.581V46.947z"/>
					<path id="path3488_00000031171639658704298420000001955996405768304827_" class="st6" d="M116.202,47.093
						c-0.198-0.437-0.427-0.801-0.281-1.28c-0.031-0.146-0.094-0.167-0.156-0.198c-0.042,0.26-0.135,0.437-0.208,0.614
						c0.343,2.061-0.146,3.164-0.708,4.101c-0.926-1.249-0.76-2.592-0.77-3.747c-0.271,2.342,0.291,3.362,0.76,3.893v0.572
						c1.322-1.936,1.197-3.747,0.906-4.601c0.146,0.219,0.281,0.458,0.468,0.656l0,0L116.202,47.093z"/>
					<path id="path3490_00000042722008929899042950000017198098336230151818_" class="st15" d="M111.195,41.181
						c0.177,1.697,2.332,1.187,3.206-0.104l-0.083-0.229C113.506,41.899,111.768,42.846,111.195,41.181L111.195,41.181z"/>
					<path id="path3492_00000098923053828438766880000011349638392575466686_" class="st3" d="M114.203,41.805
						c-0.791,1.645-1.749,2.81-3.06,2.925c0.895,0.073,1.853-0.656,2.155-0.968c0.219-0.375,0.489-0.51,0.219,0
						c-0.104,0.177-0.208,0.302-0.375,0.468c0.208-0.083,0.645-0.76,0.739-0.822c0.042-0.708,0.198-1.103,0.323-1.593l0,0
						L114.203,41.805z"/>
					<path id="path3494_00000124151290053709658440000002254240765243599761_" class="st16" d="M113.881,43.45
						c-0.01,0.187-0.031,0.375-0.031,0.531c-1.249,1.28-2.321,1.686-3.466,1.416C111.331,45.417,112.424,45.521,113.881,43.45z"/>
					<path id="path3496_00000070085171085224468670000003351833226848042421_" class="st3" d="M109.842,44.189
						c-0.271-0.677-0.167-1.228,0.312-1.645c-0.978-0.021-2.04,1.801-0.229,2.717c-0.906-0.531-0.947-1.634-0.656-1.998
						c0.198-0.312,0.489-0.406,0.281-0.052c-0.135,0.572,0.114,0.854,0.281,0.968l0,0L109.842,44.189z"/>
					<path id="path3498_00000111893375544813273220000005701210840851928729_" class="st3" d="M115.702,41.316
						c0.187,0.291,0.416,0.552,0.708,0.729c-0.083,1.665,1.749,2.758,2.987,2.29c-0.708,0.52-3.05,0.396-3.695-3.029L115.702,41.316
						z"/>
					<path id="path3500_00000099621661188247143490000014961988269083836089_" class="st17" d="M115.973,43.408v0.198
						c0.854,1.426,2.3,1.478,2.737,1.426C117.368,45.011,116.525,44.386,115.973,43.408L115.973,43.408z"/>
					<path id="path3502_00000023261723718730687080000009941827464419455927_" class="st18" d="M119.71,42.367
						c1.135,0.791,0.822,2.019-0.396,2.529C120.251,44.282,120.719,43.481,119.71,42.367z"/>
					<path id="path3504_00000121976881684095342650000004459962430925053118_" class="st6" d="M118.377,45.24
						c1.083,0.198,2.904-0.656,1.926-2.54C121.292,43.856,120.188,45.916,118.377,45.24z"/>
					<path id="path3506_00000091732175648920476040000006560369630791133862_" class="st19" d="M115.973,44.543
						c0,0.104-0.01,0.177-0.042,0.354c0.926,1.842,1.447,1.967,2.04,2.446C116.847,46.51,116.275,45.552,115.973,44.543z"/>
					<path id="path3508_00000054975463819589660330000000160317001471128995_" class="st20" d="M117.493,48.009
						c0.198,0.083,0.343,0.021,0.51,0.083c1.416,0.489,3.164-0.343,2.644-2.061c0.926,0.906-0.781,3.497-3.143,1.978L117.493,48.009
						z"/>
					<path id="path3510_00000106847197343867640020000009593989596711326343_" class="st16" d="M119.98,45.531
						c1.072,1.062-0.031,2.529-1.457,2.03C120.043,47.769,120.605,46.51,119.98,45.531L119.98,45.531z"/>
					<path id="path3512_00000162317441053425410320000014106243379038958981_" class="st3" d="M109.572,45.521
						c-1.468,0.968-0.656,2.155,0.021,2.436c-0.26-0.187-0.531-0.854,0.271-0.489c0.26,0.114,0.5,0.125,0.729,0.104
						c-1.499-0.489-1.166-1.291-1.02-2.061V45.521z"/>
					<path id="path3514_00000061457422252823274550000007894350043311187362_" class="st3" d="M113.86,44.178
						c0.031,0.5,0.094,0.906,0.167,1.218c-0.468,0.937-1.041,1.572-1.624,2.019c0.687-0.666,1.218-1.332,1.447-2.03
						c-1.197,1.863-2.019,2.155-2.873,2.196c1.062-0.239,2.613-1.155,2.894-3.393L113.86,44.178z"/>
					<path id="path3516_00000053514822868814557900000000000120268509335721_" class="st21" d="M114.037,45.469
						c0.031,0.146,0.073,0.302,0.156,0.416c-1.509,2.904-3.518,2.821-4.205,2.581c1.301,0.135,0.854-0.104,0.427-0.177
						c1.54,0.052,2.904-0.999,3.622-2.81l0,0V45.469z"/>
					<path id="path3518_00000138547045427840353710000010709070544445591479_" class="st22" d="M112.798,29.502
						c0.198-0.135,0.291-0.291,0.396-0.448c0.042,0.083,0.114,0.146,0.219,0.219c-0.281,0.094-0.385,0.51-0.541,0.51
						c-0.021-0.094-0.031-0.198-0.073-0.291V29.502z"/>
					<path id="path3520_00000168818091859724588440000000045415250264188833_" class="st6" d="M113.433,29.283
						c0.427,0.156,0.864,0.135,1.395-0.239c0.052,0.052,0.114,0.104,0.177,0.167c-0.51,0.364-1.353,0.271-1.582,0.073H113.433z"/>
					<path id="path3522_00000166636662368877350010000006153097218412009619_" class="st6" d="M115.255,29.273
						c0.302,0.052,0.604,0.125,0.989-0.094c0.052,0.073,0.114,0.135,0.167,0.187c-0.125,0.125-0.781,0.114-1.166-0.094l0,0H115.255z
						"/>
					<path id="path3524_00000042731334090103636130000017975104230495452288_" class="st6" d="M116.504,28.472
						c0.094,0.062,0.271,0.239,0.437,0.333c-0.125,0.177-0.25,0.375-0.375,0.604C116.004,28.919,116.4,28.409,116.504,28.472z"/>
					<path id="path3526_00000033348659819963923060000011972929669569238417_" class="st6" d="M112.413,28.607
						c0.083,0.114,0.135,0.187,0.187,0.271c0.343-0.239,0.458-0.5,0.572-0.749c-0.052-0.031-0.094-0.073-0.135-0.146
						c-0.271,0.479-0.437,0.541-0.625,0.635l0,0V28.607z"/>
					<path id="path3528_00000149368284259830805240000004780286114888109482_" class="st6" d="M113.194,28.138l-0.042,0.073
						c0.677,0.385,1.78,0.677,3.175-0.031l-0.135-0.281C115.286,28.607,114.266,28.732,113.194,28.138z"/>
					<path id="path3530_00000125566702247415296360000007240676061969456560_" class="st6" d="M116.441,28.128
						c0.396-0.073,0.26-0.572,0.635-0.718c0.604,0.906,1.645,0.677,2.061-0.021l0.062,0.51c-0.396,0.25-0.926,0.697-1.811,0.281
						c-0.073,0.146-0.083,0.375-0.094,0.635C116.91,28.69,116.597,28.482,116.441,28.128L116.441,28.128z"/>
					<path id="path3532_00000183945178938177275770000009425163347913904527_" class="st6" d="M117.67,26.442
						c0.156,0.291,0,0.968,0.021,1.197c-0.291-0.042-0.458-0.281-0.614-0.479c0.031,0,0.052-0.01,0.062-0.042
						C117.17,26.931,117.524,26.848,117.67,26.442L117.67,26.442z"/>
					<path id="path3534_00000052812101142866744330000000631481673748145845_" class="st16" d="M115.015,27.275l-0.031,0.042
						c0.468,0.167,1.426,0.25,2.113-0.208l-0.125-0.219C116.493,27.295,115.879,27.493,115.015,27.275z"/>
					<path id="path3536_00000147194411679125738880000006713906710909065100_" class="st6" d="M114.745,27.118
						c0.083,0.062,0.167,0.125,0.239,0.146c-0.635,0.583-1.561,0.427-2.488-0.062c0-0.031,0-0.052,0-0.083
						C113.569,27.701,114.318,27.535,114.745,27.118z"/>
					<path id="path3538_00000061429743599764813180000018047466127164229557_" class="st21" d="M112.444,27.118
						c0.229,0.354-0.343,0.468-0.354,0.999l-0.229-0.281c0-0.343,0.458-0.291,0.572-0.718L112.444,27.118z"/>
					<path id="path3540_00000131334272125446765320000007339569453165624250_" class="st21" d="M111.82,27.722l-0.437-0.666
						c-0.458-0.604,1.062-0.718,0.895-1.842c0.094,0.073,0.198,0.177,0.291,0.229c-0.052,0.906-0.854,0.885-0.864,1.499
						c-0.104-0.042-0.156-0.135-0.177-0.26c-0.042,0.031-0.052,0.031-0.094,0.073c-0.187,0.239,0.094,0.375,0.375,0.958l0,0
						L111.82,27.722z"/>
					<path id="path3542_00000091015777263296874030000015922445741666457755_" class="st6" d="M112.236,26.504
						c0.448,0.062,0.885,0,1.301-0.396c0.073,0.073,0.125,0.146,0.229,0.208C113.235,26.64,112.517,26.681,112.236,26.504
						L112.236,26.504z"/>
					<path id="path3545_00000090974511760814970200000003761291209133890233_" class="st22" d="M113.787,26.327l-0.052,0.042
						c0.739,0.427,1.769,0.416,2.321,0.042c-0.083-0.042-0.146-0.104-0.208-0.156c-0.666,0.489-1.655,0.333-2.061,0.083l0,0V26.327z
						"/>
					<path id="path3547_00000066484555105159685240000000854142868330659998_" class="st15" d="M116.077,26.411l-0.042,0.052
						c0.52,0.208,1.176,0.187,1.624-0.062c-0.031-0.083-0.062-0.167-0.125-0.239c-0.489,0.385-0.978,0.354-1.468,0.25l0,0H116.077z"
						/>
					<path id="path3549_00000063611542968902085830000014008426074819483324_" class="st15" d="M112.653,25.495
						c0.77,0.396,1.613,0.135,2.071-0.271c0.083,0.104,0.156,0.156,0.239,0.208C114.391,25.932,112.913,25.869,112.653,25.495
						L112.653,25.495z"/>
					<path id="path3551_00000179607709116215966060000002448102627803534725_" class="st6" d="M114.984,25.443l-0.042,0.031
						c0.697,0.479,1.759,0.187,2.04,0c-0.031-0.114-0.073-0.208-0.104-0.291c-0.489,0.416-1.218,0.552-1.894,0.25l0,0V25.443z"/>
					<path id="path3553_00000111906746935509093610000012212049742787165367_" class="st6" d="M110.696,24.464l0.104,0.052
						c0.104-0.156,0.198-0.187,0.239-0.125c0.042,0.062-0.042,0.167,0.073,0.271c0.354-0.281,1.187-0.479,1.28-0.895
						c0.156,0.427,0.666,0.437,1.082,1.166c-0.094-0.552-0.666-0.708-0.906-1.082c-0.229-0.375-0.094-0.843,0.094-1.447
						c-0.385,0.52-0.083,1.27-0.718,1.603c-0.406,0.208-1.166,0.167-1.249,0.448l0,0L110.696,24.464z"/>
					<path id="path3555_00000036932425781753041770000002979259769777256332_" class="st6" d="M114.027,21.82l0.021,0.5
						c-0.656,0.26-0.146,1.905-0.406,2.269c-0.104-1.405-0.687-1.915,0.385-2.758l0,0V21.82z"/>
					<path id="path3557_00000078730531482968255840000009865628897311353502_" class="st6" d="M114.557,23.017h0.083
						c0.083,0.916,1.051,1.01,1.218,1.915c-0.208-0.625-0.749-0.812-1.051-1.145c-0.167,0.708-1.02,0.916-1.228,1.311
						C113.516,24.776,114.755,24.319,114.557,23.017z"/>
					<path id="path3559_00000137817635285918938330000013133896442883003542_" class="st6" d="M116.025,22.133
						c-0.51,0.801,0.5,1.311-0.042,2.644c0.281-1.738-0.937-1.603-0.167-2.862c0.271,0.26,1.187,0.52,1.27,0.958
						c-0.312-0.437-0.781-0.468-1.062-0.749l0,0V22.133z"/>
					<path id="path3561_00000175321306479179483910000014412101556101481876_" class="st6" d="M117.076,22.997
						c0.094,0.312,0.177,0.427,0.26,0.635c-0.281,0.906-1.374,1.218-1.436,1.551C115.713,24.756,117.087,24.527,117.076,22.997z"/>
					<path id="path3563_00000039819187637026585330000017254238270626988698_" class="st6" d="M118.117,22.07
						c-0.177-0.042-0.333,0-0.531-0.198c0.031,0.291-0.021,0.468-0.052,0.645c0.354,0.208,0.593,2.134,0.739,2.217
						c-0.073-0.822-0.042-1.915-0.541-2.508l0.021-0.104C117.909,22.174,118.023,22.164,118.117,22.07L118.117,22.07z"/>
					<path id="path3565_00000073686783394835209180000011758871543027870910_" class="st6" d="M111.404,23.569
						c0.343-0.51,0.645-1.114,1.083-1.426c0.437-0.312,0.718-0.187,1.603-0.916l0.333-0.874c-0.749,1.093-1.634,1.853-2.904,1.593
						c0.073,0.042,0.115,0.146,0.645,0.177C111.893,22.382,111.664,22.955,111.404,23.569L111.404,23.569z"/>
					<path id="path3567_00000134960773987506298120000009917835446284556712_" class="st3" d="M111.216,21.144
						c0.666,0.333,1.488,0.51,2.894-1.499c0.302-0.083,0.593-0.239,0.864-0.531C114.068,21.279,111.508,22.611,111.216,21.144z"/>
					<path id="path3569_00000098934040290780330480000018395947898508994191_" class="st4" d="M114.203,22.393
						c1.072-4.039,4.32-6.453,1.509-8.598C117.753,17.324,114.505,18.823,114.203,22.393z"/>
					<path id="path3571_00000005974522417838934150000014395080331376270218_" class="st3" d="M113.433,18.906
						c0.052,1.062,1.395,0.271,1.717-0.416C114.609,18.854,114.068,19.187,113.433,18.906z"/>
					<path id="path3573_00000152960969417706291890000002527390006871418301_" class="st3" d="M115.442,17.261
						c0.125-0.177,0.146-0.01,0.354,0.031c-0.489,1.02-1.322,1.301-1.769,1.322c0.614-0.323,1.176-0.687,1.416-1.364V17.261z"/>
					<path id="path3575_00000002365184986717810650000017035415941811933100_" class="st6" d="M115.119,15.544l0.104,0.104
						c0.146,0,0.291,0,0.448-0.146c0,0.125-0.042,0.187-0.114,0.219c0.083,0.739,0,1.176-0.104,1.509
						c0.125-0.135,0.229,0.052,0.354,0.052c0.187-0.291,0.5-1.311,0-2.186c0.01,0.25-0.26,0.51-0.677,0.448l0,0L115.119,15.544z"/>
					<path id="path3577_00000010292621678981433170000014340484029488530589_" class="st6" d="M113.371,15.221
						c0.812-0.333,1.28,0.25,1.645,0.302c0.583,0.854-0.021,1.593-0.406,2.051c0.26-0.437,0.635-2.217-1.228-2.352H113.371z"/>
					<path id="path3579_00000071546823914750976090000005185828200468235199_" class="st10" d="M114.099,22.872
						c0.885,0.416,1.301-0.593,1.717-0.978c-0.208-0.479-0.146-0.874-0.167-1.291C114.88,21.019,114.901,22.539,114.099,22.872
						L114.099,22.872z"/>
					<path id="path3581_00000158723348775108062110000007077196933590933153_" class="st10" d="M117.118,15.742
						c-0.073,0.031-0.083,0.323-0.177,0.312c-0.062,2.04-1.915,3.164-2.352,6.11c0.271-0.312,0.468-1.561,1.155-2.696
						c0.729-1.187,1.436-1.863,1.364-3.726l0,0H117.118z"/>
					<path id="path3583_00000096045611177311338850000016738673261363009931_" class="st3" d="M116.171,19.593
						c-0.739,1.988,0.729,2.009,0.854,2.654C115.505,21.737,115.4,20.634,116.171,19.593z"/>
					<path id="path3585_00000152228348814595123070000007455900977732126092_" class="st3" d="M116.441,13.889
						c2.456,1.593,0.343,4.809-0.572,5.683C116.233,18.76,118.44,16.522,116.441,13.889z"/>
					<path id="path3587_00000029034926574243501900000008395023886713885831_" class="st10" d="M117.274,13.004
						c0.25,0.458,0.656,1.187,0.062,1.041c1.041,2.311-0.104,3.508-0.677,4.798c-1.207,3.154,0.791,1.905,0.562,4.101
						c0.677-0.791-0.208-1.946-0.167-2.352c-0.052-0.583,0.312-1.822,0.437-2.581c0.146,0.416,0.364,0.666,0.635,0.833
						c-0.468-1.645,0.999-4.871-0.843-5.839l0,0L117.274,13.004z"/>
					<path id="path3589_00000069400160430683396530000009018104797624240533_" class="st10" d="M117.513,18.438
						c0.114,0.167,0.198,0.354,0.396,0.468c0.094,0.645-0.801,2.675,0.552,2.831c-1.103,0.552-1.707-1.03-0.947-3.289l0,0V18.438z"
						/>
					<path id="path3591_00000126295528983928718090000006869178831814543804_" class="st6" d="M116.92,12.369
						c0.229,0.021,0.781,0.406,1.301,0c0.354,0.479-0.302,0.885-0.999,0.531c-0.177-0.114,0.396-0.167-0.302-0.52V12.369z"/>
					<path id="path3593_00000013190152344211648310000007892462229548447632_" class="st3" d="M112.819,12.546
						c0.208,0.229,0.416,0.354,0.614,0.906c0.146,0,0.291,0.021,0.437,0.062C113.631,13.129,113.329,12.775,112.819,12.546z"/>
					<path id="path3595_00000142894696678932619580000002732075507542641599_" class="st6" d="M115.057,11.88
						c2.134,0.572,1.936-0.416,2.321-0.562C117.753,11.922,116.712,12.713,115.057,11.88z"/>
					<path id="path3597_00000047763031990015138130000009633797474913384122_" class="st21" d="M112.444,12.297
						c-0.125-0.042-0.229-0.031-0.302-0.021c0.187-1.53,1.884-0.562,2.8,0.01c-1.155-0.552-2.602-1.259-2.498,0l0,0V12.297z"/>
					<path id="path3599_00000037687869428377341610000002995505415571061926_" class="st4" d="M112.455,12.297
						c-0.094-1.738,2.415,0.25,3.57,0.312c-0.812,0.094-3.466-1.676-3.445-0.291l-0.125-0.031l0,0V12.297z"/>
					<path id="path3601_00000056423368050076320570000014575203776668581257_" class="st6" d="M112.611,12.349l0.208,0.083
						c0.021-0.156,0.083-0.323,0.156-0.343c0.489-0.094,0.031,0.156,0.114,0.239c0.094,0.062,0.198,0.135,0.302,0.198
						c0-0.073,0-0.156,0.01-0.26c0-0.396,1.145,0.239,1.946,0.5c0.083,0.239-0.448,0.531-0.864,0.448
						c0.375,0.302,1.176,0.156,1.53-0.333c0.614,0.042,0.749-0.052,0.885-0.208c-0.468-0.094-0.687,0.135-1.863-0.187
						C113.954,12.172,112.642,11.256,112.611,12.349L112.611,12.349z"/>
					<path id="path3603_00000003079043389063102840000017844260038683010745_" class="st23" d="M113.589,12.151
						c0.135-0.01,0.25,0.031,0.375,0.083c-0.239,0.375,0.114,0.729,0.312,0.666c0.062,0.062,0.135,0.125,0.354,0.177
						c-0.312,0.062-1.374-0.26-1.041-0.937l0,0V12.151z"/>
					<path id="path3665_00000127029223999479624010000003282607272908688544_" class="st1" d="M110.789,14.295
						c-1.187-2.279,2.238-2.685,2.592-0.791c0,0,0.854,0.031,1.603,0.437c1.457,1.062,0.572,1.665,0.281,1.624
						c-0.677,0.01-0.812-0.645-1.801-0.396c-0.239,0.094-0.25,0.208-0.354,0.208c-0.593-0.146,0.489-1.343,1.665-0.479
						c0.104,0.073,0.333-0.073,0.135-0.302c-0.781-0.791-2.144-0.354-2.436-0.281c-0.375-0.614-1.218-0.479-1.665,0l0,0
						L110.789,14.295z"/>
					<path id="path3605_00000025408073475813422840000018344207637957434557_" class="st24" d="M114.193,12.432
						c0.146,0.114,0.906,0.239,0.926,0.312C114.88,13.317,114.089,13.14,114.193,12.432z"/>
					<path id="path3607_00000116914152215269093820000009529731217298515094_" class="st6" d="M119.252,27.878
						c0,0-0.021,0.021,0,0.042c0.177,0.094,0.406,0.146,0.666,0.167l0.625,3.653c-0.052-0.947-0.114-1.936-0.135-2.842
						c-0.073-0.177-0.125-0.5-0.167-0.822c0.083,0,0.156-0.021,0.239-0.042c0.396,2.311,1.353,2.769,1.54,2.956
						c-0.51-0.531-1.197-1.28-1.416-3.008c0.343-0.187,0.5-0.416,0.604-0.458c0.031-0.094,0.01-0.333-0.031-0.437
						c-0.343,0.323-0.645,0.708-1.343,0.656c-0.042,0,0,0.062,0,0.062c0.271,0.354-0.271,0.135-0.562,0.073l0,0L119.252,27.878z"/>
					<path id="path3609_00000090253923754904393580000010154814185925238455_" class="st10" d="M120.574,32.125l0.031,0.552
						c0.343-0.219,0.666-0.291,1.124-1.343c0.187,1.874,0.208,3.695,1.301,4.07c-0.562-1.291-0.562-2.696-0.604-4.059
						c-0.062,0.083-0.135,0.146-0.198,0.208c-0.448-0.26-0.583-0.468-0.822-0.708c-0.146,0.468-0.229,0.958-0.822,1.28l0,0
						L120.574,32.125z"/>
					<path id="path3611_00000125566315910415762360000004046274514559724416_" class="st3" d="M121.385,27.597
						c0.146,0.052,0.323,0.073,0.5,0.073l0.187,2.717L121.385,27.597L121.385,27.597z"/>
					<path id="path3613_00000127025124960377219230000017260643849835973540_" class="st6" d="M122.687,27.399l0.094-0.062
						c0.219,0.5,0.52,0.937,0.958,1.28l1.176,7.89l-1.697-7.911c0,1.364-0.385,2.269-0.999,2.883l-0.062-0.52
						c0.645-0.874,1.03-1.926,0.541-3.56H122.687z"/>
					<path id="path3615_00000084502977542597665950000013007448069824015242_" class="st15" d="M124.477,29.221
						c0.177,0.104,0.385,0.198,0.614,0.26c0.708,2.384,0.978,7.078,0.042,8.774l-0.083-0.645c-1.634-1.249-2.051-4.736-2.373-6.693
						l0.052-0.094c0.312,1.78,0.687,5.215,2.29,6.609c0.291-0.916,0.916-3.549-0.208-7.931
						C124.727,29.408,124.591,29.315,124.477,29.221L124.477,29.221z"/>
					<path id="path3617_00000054982171692303336990000011750849615485384852_" class="st3" d="M123.478,26.681
						c0.146-0.021,0.219,0,0.448-0.062l1.561,2.332L123.478,26.681L123.478,26.681z"/>
					<path id="path3619_00000134250962132512094040000009330157277412943748_" class="st3" d="M125.153,29.502
						c0.229,0.073,0.51,0.146,0.801,0.208c0,0.073,2.279,5.923,3.872,6.37c-2.03,0.406-3.05-3.154-4.372-5.256
						c-0.094-0.448-0.198-0.885-0.302-1.311V29.502z"/>
					<path id="path3621_00000023969781740550690240000010443992921880384431_" class="st6" d="M124.883,25.984
						c0,0-0.042,0.062-0.073,0.083c0.926,1.436,0.947,2.311,0.822,3.091l0.375,0.489c0.187-1.093-0.01-1.905-0.281-2.675
						l4.611,6.693l-4.07-6.516l0.864,0.125C126.413,27.035,125.684,26.952,124.883,25.984L124.883,25.984z"/>
					<path id="path3623_00000138534463551810151670000012575977220605941656_" class="st6" d="M127.662,27.285
						c0.177,0,0.333,0,0.458-0.042c0.916,1.488,3.268,4.184,2.987,7.869l-0.291-0.562c-2.186-0.5-3.705-3.247-4.476-4.361
						c1.28,1.686,2.727,3.882,4.424,4.226C130.899,31.667,128.838,28.982,127.662,27.285L127.662,27.285z"/>
					<path id="path3625_00000008852670149914280040000002258430241147613075_" class="st3" d="M128.141,27.233l0.083,0.135
						c2.019,1.072,4.288,3.206,5.694,1.634c-1.457,0.583-3.81-1.468-5.36-2.238l0.073,0.333c-0.167,0.083-0.323,0.104-0.479,0.135
						l0,0L128.141,27.233z"/>
					<path id="path3627_00000086684940456918651300000012603658029504785316_" class="st3" d="M125.278,24.714
						c0,0.062,0,0.104-0.01,0.146l2.508,1.561l-2.29-1.832C125.434,24.652,125.351,24.672,125.278,24.714L125.278,24.714z"/>
					<path id="path3629_00000070836975547757153310000004862904422399541658_" class="st6" d="M128.411,26.182
						c0.042,0.167,0.094,0.333,0.125,0.51c3.008,1.395,4.809,1.051,5.683,0.5l-0.468-0.167
						C132.429,27.899,129.223,26.723,128.411,26.182L128.411,26.182z"/>
					<path id="path3631_00000031196191518401836650000007105373611102026113_" class="st6" d="M126.017,23.808
						c0,0-0.021,0.083-0.031,0.125c1.28,0.677,2.165,1.926,2.134,2.79l0.437,0.354c-0.167-1.436-0.687-1.978-1.207-2.508l6.11,2.394
						l-5.933-2.779c0.791-0.177,1.613-0.229,2.3-1.051l1.395-0.052c1.197-0.187,2.55-0.874,2.685-1.52l-0.448,0.052
						c-0.572,1.27-2.831,1.228-4.007,1.27c-0.541,1.02-2.269,1.093-3.445,0.937L126.017,23.808z"/>
					<path id="path3633_00000109744462394967561490000000449548126402127756_" class="st3" d="M129.431,23.527
						c-0.156,0.125-0.312,0.208-0.479,0.281c0.635,0.135,1.228,0.312,1.78,0.52c1.582,0.167,3.143-0.073,3.216-1.416
						c-0.666,1.072-2.561,0.874-4.507,0.614l0,0H129.431z"/>
					<path id="path3635_00000065784268919341895810000017222946913216319372_" class="st3" d="M125.996,22.591
						c0.042,0.135,0.062,0.25,0.083,0.375l3.237-0.083C128.214,22.788,127.079,22.705,125.996,22.591L125.996,22.591z"/>
					<path id="path3637_00000078041005048727754290000017490416102398484127_" class="st6" d="M127.558,21.29
						c0.656,0.302,1.259,0.635,1.738,1.02l-0.427-0.396c1.384-0.114,2.79-0.229,4.351-0.312l-4.923-0.031L127.558,21.29
						L127.558,21.29z"/>
					<path id="path3639_00000063631439832763958780000000492636265103965107_" class="st6" d="M126.517,21.404
						c-0.01,0.073-0.052,0.135-0.083,0.208l1.082-0.312c1.624-1.166,1.697-1.738,1.905-2.373l2.467-1.54l-2.81,1.395
						c-1.52,0.01-1.915,0.229-2.373,0.354c1.291-0.281,2.144-0.323,2.613-0.177l-0.302,0.187c-0.385,1.291-1.842,2.04-2.508,2.269
						l0,0L126.517,21.404z"/>
					<path id="path3641_00000137115402398013655310000001765002284918265004_" class="st3" d="M126.506,20.342
						c0.042,0.083,0.052,0.187,0.073,0.281c0.77-0.416,1.499-0.874,2.217-1.343c-0.76,0.375-1.53,0.76-2.29,1.072V20.342z"/>
					<path id="path3643_00000083068488013018003520000017289913856636230053_" class="st3" d="M128.588,20.509
						c0.874-0.073,1.749-0.094,2.665-0.021c0.208-0.114,2.415-0.76,1.884-1.926c-0.635,1.28-2.987,1.717-3.175,1.822
						c-0.375,0.042-1.28,0.073-1.374,0.135V20.509z"/>
					<path id="path3645_00000159451036894974160820000009840457902530613431_" class="st25" d="M132.221,17.22l0.489-0.208
						c0.052,0.094-0.302,0.76-0.926,1.457c-0.822,0.906-1.301,1.301-2.852,1.582c0.031-0.042,0.062-0.083,0.083-0.125
						c1.207-0.323,2.862-1.499,3.206-2.696l0,0V17.22z"/>
					<path id="path3647_00000089546931303463471850000005778696350417309849_" class="st3" d="M127.048,18.5l-0.146,0.219
						c1.384-0.999,2.488-1.613,3.32-1.874c0.833-0.874,1.02-1.749,0.677-2.248c0.052,1.624-2.529,2.842-3.862,3.903l0,0H127.048z"/>
					<path id="path3649_00000022559374660341949100000006490628993481090746_" class="st21" d="M126.153,19.125l-0.052,0.416
						c1.03-0.749,1.582-2.113,1.436-3.258l-0.364,0.375l-1.603,1.301c0.083,0.073,0.177,0.156,0.239,0.229l1.364-1.488
						C127.266,17.928,126.434,18.885,126.153,19.125z"/>
					<path id="path3651_00000131356166771945909520000017093348850248065195_" class="st3" d="M127.547,17.199l-0.094,0.343
						c0.666-0.416,1.124-0.854,1.54-1.301c1.145-1.332,1.291-2.488,1.395-3.05l-0.489,0.396c0.083,1.697-1.822,3.32-2.332,3.601l0,0
						L127.547,17.199z"/>
					<path id="path3653_00000029728049511741566020000001654402433973926070_" class="st6" d="M126.985,16.241
						c0.187,0,0.385-0.01,0.572,0l2.248-2.581L126.985,16.241z"/>
					<path id="path3655_00000076587129889849071550000003794785515643871161_" class="st6" d="M125.33,14.784l-0.281,0.323
						c0.114,0.635,0.114,1.488-0.822,2.529l0.031,0.052l0.062-0.021c0.749-0.926,1.53-1.166,2.311-1.395
						c-0.458,0.114-0.916,0.187-1.426,0.458c0.354-1.062,0.198-1.603,0.125-1.936l0,0L125.33,14.784z"/>
					<path id="path3657_00000119815444002833498790000000020785302864685952_" class="st3" d="M125.434,15.627v0.208
						c0.801-0.5,1.613-1.093,2.352-1.915c0.427-0.552,0.978-1.332,1.051-2.384l-0.427,0.333c-0.083,1.759-2.352,3.268-2.977,3.768
						l0,0L125.434,15.627z"/>
					<path id="path3659_00000177477470691939256680000004635823210108185743_" class="st3" d="M123.613,15.398
						c0.656-0.281,1.291-0.552,1.728-0.635l2.831-2.633c-0.76,0.552-2.352,1.926-3.102,2.488c-0.26,0.198-0.52,0.187-1.468,0.781
						l0,0L123.613,15.398z"/>
					<path id="path3661_00000044169239668955284680000010736863706229276040_" class="st4" d="M128.328,11.88
						c-7.172,1.249-11.148,9.899-6.349,9.118l-0.271-0.062c-0.958,0.083-1.207-0.749-1.114-1.28
						c0.083-0.572,0.635-0.895,0.791-0.947c-0.042-0.51-0.062-1.02,0.437-1.436c0.198-0.479,0.427-0.729,0.656-0.978
						c0.749-2.727,4.559-4.091,5.85-4.403l0,0V11.88z"/>
					<path id="path3663_00000039119205607028546040000006446783291205919137_" class="st6" d="M124.987,15.086
						c-0.895,0.135-2.123,1.124-2.311,1.54c-0.021,0.042,0,0.104-0.312,0.271v0.052c0.323-0.135,1.155,0,0.375,0.187
						c0.51-0.01,0.958,0.187,1.259,0.874c1.655-0.25,2.071,0.958,1.655,1.759c1.093,0.947,0.406,2.165-0.198,2.394
						c0.364,0.812,0.552,1.884-0.562,2.3c0,0.718-0.104,1.842-1.811,1.832c-0.208,0.489-0.812,1.322-1.842,0.874
						c0,0,0,0.031,0,0.062c-0.021,0.052,0.427,0.167,0.437,0.146c0.354,0.042,0.396,0.271-0.031,0.167
						c-0.156-0.042-0.291-0.083-0.406-0.135l0,0c0,0,0,0.073-0.021,0.114c1.114,0.385,1.759-0.291,2.103-0.864
						c1.332-0.073,1.874-0.801,1.946-1.946c1.083-0.677,0.937-1.707,0.604-2.415c0.968-0.729,0.895-1.998,0.167-2.592
						c0.5-1.676-0.989-2.123-1.78-2.009c-0.26-0.448-0.437-0.51-0.625-0.635l1.405-1.905l-1.707,1.759
						c-0.167-0.062-0.396-0.083-0.666-0.073c0.364-0.906,1.78-1.603,2.342-1.759l0,0L124.987,15.086z"/>
					<path id="path3667_00000064356196035153668630000002024094496986056373_" class="st26" d="M111.934,13.088
						c0.208,0.323,0.572-0.094,1.166,0.541l0.073-0.031c-0.135-0.541-0.5-0.864-1.041-0.926c0.229,0.198,0.062,0.208,0.052,0.343
						C112.184,13.129,112.184,13.265,111.934,13.088z"/>
					<path id="path3669_00000057121428045362171850000017130518985983440514_" class="st26" d="M110.987,14.066
						c0.323-0.177,1.03-0.437,1.478,0.187c1.416-0.416,2.415-0.031,2.55,0.531c0.083-0.156-0.312-1.01-1.926-0.864
						c-1.374-0.968-2.155-0.094-2.113,0.146l0,0L110.987,14.066z"/>
					<path id="path3671_00000096773477372463206720000007701859902321866145_" class="st27" d="M113.142,15.284
						c-0.25,0,0.52-0.916,1.769-0.052c0.448,0.177,0.666-0.052,0.583-0.427c-0.031-0.271-0.177-0.427-0.271-0.635
						c0.635,0.468,0.708,1.062,0.281,1.291c-0.666,0.333-1.135-0.843-2.363-0.187l0,0V15.284z"/>
					<path id="path3673_00000023986332232604335570000004907667152506924694_" class="st6" d="M112.101,28.17l0.281,0.396
						l-0.073-0.052c-0.791,0.375-1.197,0.229-1.582,0.052l-0.042-0.031c-0.812,0.156-1.322-0.052-1.759-0.375
						c0.031,0.239,0.198,0.427,0.416,0.593l-0.854,3.716l0.406-3.487c-0.489,1.364-1.124,1.998-1.998,2.384l0.062-0.385
						c0.801-0.406,1.488-1.187,1.811-2.873c-0.323,0.042-0.645,0.083-0.968,0l-0.801,2.758l0.385-2.852
						c-0.343-0.229-0.635-0.52-0.926-0.812V27.15c0.083,0.125,0.177-0.25,0.167-0.364c0.604,0.978,1.447,1.155,2.28,0.874
						c0,0.094,0,0.177-0.042,0.312h0.042c0,0,0.052-0.094,0.073-0.167c-0.021-0.021-0.031-0.052-0.042-0.083v-0.031
						c0.468,0.822,1.603,0.437,1.749,0.51c-0.021,0.042,0,0.167,0.031,0.271l0.021,0.031c0,0,0.021-0.114,0-0.198l-0.042-0.073
						l0.031,0.021c0.385,0.291,0.916,0.271,1.364-0.094l0,0L112.101,28.17z"/>
					<path id="path3675_00000090982507794628671940000013630461913634802590_" class="st28" d="M109.468,28.825
						c0.26,0.125,0.531,0.219,0.833,0.281c-0.135,1.749-1.02,3.737-1.957,4.33l0.021-0.489c-0.229-0.385-0.406-0.989-0.458-2.238
						l0.073-0.073c0.021,0.874,0.114,1.665,0.406,2.279c0.448-0.333,1.405-1.447,1.561-3.581c0-0.135-0.031-0.208-0.104-0.25
						c-0.177-0.094-0.281-0.177-0.385-0.25l0,0L109.468,28.825z"/>
					<path id="path3677_00000140697258017664693110000014478819023193582219_" class="st6" d="M106.095,36.205
						c1.01,0.271,1.676-1.676,2.051-2.977c-0.177-0.354-0.427-0.718-0.448-2.3l-0.083,0.083c-0.104,2.04-0.125,4.288-1.53,5.194l0,0
						L106.095,36.205z"/>
					<path id="path3679_00000008850182923729619200000009192043390111234434_" class="st29" d="M106.574,27.337l0.062,0.062
						c-0.073,0.385-0.593,1.78,0.052,3.143c-0.364-0.531-0.656-1.374-0.104-3.206l0,0H106.574z"/>
					<path id="path3681_00000047774544906611195470000003577000183926383526_" class="st6" d="M106.033,28.191l-0.198,0.312
						l-2.134,8.681l2.269-7.224c0.114,0.416,0.25,0.854,0.843,1.54c-0.833,2.946-2.155,5.579-3.279,6.276l0.104-0.354
						c-0.479-1.457-0.094-4.528,0.729-7.619c-0.531,1.697-1.613,5.392-0.926,8.088l-0.219,0.666c2.238-1.53,3.56-5.371,4.059-7.328
						c-0.125,0.094-0.26,0.146-0.396,0.198c-0.708-0.635-1.041-1.645-0.854-3.227l0,0V28.191z"/>
					<path id="path3683_00000160887570503089035070000005318023350263514253_" class="st6" d="M104.69,25.765
						c0.052,0.271,0.364,0.583,0.52,0.854c0.083,0.135,0.177,0.198,0.291,0.031l0.094-0.156c0.229,0.26,0.552,0.406,1.02,0.323
						l-0.562,1.301c-0.656,1.27-1.52,1.54-2.384,1.842l0.271-0.5c1.124-0.104,1.926-1.218,2.342-2.238
						c-0.281-0.062-0.552-0.177-0.864-0.375l-1.322,2.3l0.874-2.332C105.148,26.452,104.68,26.161,104.69,25.765L104.69,25.765z"/>
					<path id="path3685_00000120526660927511656660000009715607184730198436_" class="st10" d="M104.149,29.804
						c-0.156,0.062-0.323,0.125-0.5,0.167c-1.447,3.237-2.248,6.12-4.83,7.026c2.332,0.448,3.903-3.3,4.476-4.424
						c0.416-1.02,0.666-1.967,0.854-2.779V29.804z"/>
					<path id="path3687_00000085941624383152599430000004097383370541837989_" class="st30" d="M104.471,25.859
						c-0.26,0.312-1.155,1.561-0.593,3.643l0.052-0.062c-0.406-1.384,0.021-2.925,0.541-3.591V25.859z"/>
					<path id="path3689_00000075850379456056467270000003632556799234279349_" class="st6" d="M103.514,27.701
						c-0.073,0.541-0.052,0.968-0.021,1.395c-1.749,3.102-4.673,5.964-6.36,6.079c2.155-2.883,4.299-5.86,6.453-8.795
						c0.135-0.062,0.281-0.156,0.416-0.25c-0.229,0.333-0.333,0.604-0.375,0.854l-5.912,7.588c1.978-0.167,5.215-4.85,5.704-6.11
						c0-0.375,0.052-0.583,0.104-0.76H103.514z"/>
					<path id="path3691_00000026885556128508293890000005800648033336759209_" class="st25" d="M97.487,34.675l0.135-0.167
						c-0.167-2.925,3.143-6.401,4.039-7.494c-0.146,0.312-4.372,4.028-4.174,7.671l0,0V34.675z"/>
					<path id="path3693_00000057854739600494049930000004783581210722070670_" class="st3" d="M95.083,29.44
						c0.5,0.781,1.332,1.259,4.465-0.635c0.625-0.687,1.249-1.395,1.874-1.988h-0.156c-1.051,0.427-3.778,3.279-6.183,2.633l0,0
						V29.44z"/>
					<path id="path3695_00000137824098235970102910000009978124025427967145_" class="st6" d="M103.222,23.944
						c-0.406,0.167-1.946,0.729-2.103,2.467l-0.333,0.187c2.113,0.697,3.716-0.895,4.028-1.187
						c-0.333-0.208-0.666-0.385-0.947-0.885l-0.281,0.135c-0.677,0.562-1.499,1.114-2.29,1.645l2.456-1.249
						c0.146,0.156,0.302,0.323,0.645,0.531c-1.488,1.02-2.654,0.968-3.216,0.822C101.265,25.401,101.869,24.547,103.222,23.944
						L103.222,23.944z"/>
					<path id="path3697_00000155833061762270549850000017341047969100532096_" class="st10" d="M100.849,26.015
						c-0.042,0.208-0.104,0.437-0.094,0.593c-0.666,0.26-1.416,0.479-2.248,0.614c-0.052,0.01-0.271,0.094-0.354-0.062
						c-0.094-0.062-0.208-0.073-0.312-0.062c-0.021-0.052-0.125-0.031-0.135-0.073c2.04-0.354,2.966-0.843,3.143-0.999l0,0V26.015z"
						/>
					<path id="path3699_00000113331933306616859790000003900587134873765551_" class="st14" d="M98.57,24.516
						c-0.541,0.26-2.779,1.447-3.164,2.592c1.093,0.333,1.905,0.042,2.404,0c-0.021-0.031-0.115-0.021-0.125-0.073
						c-0.812,0.114-1.79,0.177-2.061,0.01l0.198-0.104c0.062-0.968,2.373-2.175,2.737-2.425l0,0H98.57z"/>
					<path id="path3701_00000166637553537131645010000014101288536789863100_" class="st6" d="M95.957,26.9
						c3.643-1.353,5.413-2.436,7.359-3.091v0.062c-0.156,0.094-1.436,0.396-1.936,1.124L95.957,26.9L95.957,26.9z"/>
					<path id="path3703_00000128443301596206885190000015472566636779347598_" class="st6" d="M102.691,24.006
						c-0.25,0.104-0.5,0.187-0.76,0.333c-1.187-0.177-1.384-0.468-1.894-0.718l0.104-0.042c0.187,0.135,0.427,0.239,0.645,0.354
						c0.354,0.114,0.437-0.021,0.083-0.146c-0.416-0.135-0.677-0.312-0.906-0.489c0.406-0.791,1.374-1.176,1.499-1.239
						c-0.531,0.343-1.155,0.656-1.311,1.187c0.833-0.125,1.717-0.271,2.8-0.51c0.083,0.146,0.156,0.291,0.312,0.489l-0.031,0.031
						l-0.167-0.198l-2.904,0.219c0.801,0.552,1.665,0.604,2.519,0.697l0,0L102.691,24.006z"/>
					<path id="path3705_00000044876056040125290810000010750153627628937919_" class="st3" d="M95.218,22.893
						c0.333,1.124,3.154,0.833,4.819,0.718l0.083-0.031c-0.135-0.094-0.25-0.187-0.323-0.281
						C99.111,23.153,95.957,23.819,95.218,22.893L95.218,22.893z"/>
					<path id="path3707_00000079487839544291590790000016802428190923884438_" class="st3" d="M100.526,22.278l0.031,0.031
						c-0.198,0.167-0.396,0.312-0.593,0.552c-2.602,0-4.247-1.03-4.715-1.634c0.645-0.52,1.457-0.708,2.321-0.791
						c-0.739,0.219-1.603,0.343-1.998,0.812h-0.187c1.207,1.353,4.434,1.957,5.131,1.041l0,0L100.526,22.278z"/>
					<path id="path3709_00000140714234990877823270000014851783049175506852_" class="st6" d="M95.738,21.29
						c1.728,0.239,3.424,0.458,5.204,0.739c0.239-0.208,0.677-0.354,1.343-0.396c-0.229,0-0.416-0.031-0.781,0.021
						C99.527,21.685,97.654,21.435,95.738,21.29L95.738,21.29z"/>
					<path id="path3711_00000113349599234601280120000002121450657443384739_" class="st6" d="M103.16,21.019
						c-0.167,0.167-0.25,0.416-0.312,0.687c-1.905-0.625-2.217-1.811-2.279-1.936c1.145-0.791,1.832-0.5,2.779-0.52
						c-2.019-0.094-2.55,0.437-2.633,0.541c0.76,0.208,1.291,0.396,2.914,0.666c-0.156,0.114-0.25,0.208-0.323,0.312
						c-0.625-0.26-1.79-0.614-2.613-0.937c0.135,0.552,0.978,1.374,1.697,1.593c0.198,0.052,0.416,0.156,0.5-0.104
						c0.031-0.104,0.187-0.271,0.26-0.302l0,0H103.16z"/>
					<path id="path3713_00000072975153386727685960000002293822751968290743_" class="st3" d="M95.915,18.521
						c0.364,0.364,1.749,1.572,4.288,1.27c0.094,0.25,0.198,0.343,0.291,0.437c-0.677-0.104-1.353-0.177-2.04-0.125
						c-1.114-0.333-2.134-0.739-2.55-1.582l0,0H95.915z"/>
					<path id="path3715_00000135690161204350404710000009076394287046499771_" class="st3" d="M101.099,19.041
						c0,0,0.073,0.052,0.125,0.062c-0.416,0.167-0.739,0.343-0.989,0.531c-1.28-0.396-3.091-1.343-3.747-2.529
						c0.791-0.354,2.134-0.187,2.914,0c-0.864,0-1.905-0.187-2.415,0.156l-0.396-0.135c0.156,0.51,2.883,2.883,4.497,1.915l0,0
						H101.099z"/>
					<path id="path3717_00000096775283296849684700000017746437167616902540_" class="st6" d="M97.123,17.334
						c1.624,0.572,3.175,1.135,4.465,1.676c0.406-0.094,0.801-0.073,1.197,0c-0.094-0.094-0.187-0.167-0.26-0.291h-0.031
						l0.167,0.229c-2.207-0.749-3.83-1.166-5.527-1.603l0,0L97.123,17.334z"/>
					<path id="path3719_00000040570179073549895950000000601774705728909977_" class="st3" d="M102.244,17.98
						c-0.125-0.229-0.239-0.479-0.25-0.822c-0.614,0.291-3.404-0.926-4.07-2.446c0.042,1.332,2.425,2.384,4.32,3.258l0,0V17.98z"/>
					<path id="path3721_00000182517609754432764040000011292888366093482673_" class="st6" d="M103.857,18.812
						c-0.083,0.094-0.156,0.208-0.26,0.26c-0.052,0.031-0.104,0.031-0.156,0c-0.989-0.635-1.187-1.728-1.155-1.946
						c0.76-0.125,1.811-0.114,3.268,0.791c-0.323-0.073-1.395-0.864-3.123-0.718c-0.031,0.593,0.416,1.728,1.416,1.613l0,0H103.857z
						"/>
					<path id="path3723_00000170252403735720890440000016618139405024996521_" class="st6" d="M102.567,17.303l1.749,1.27
						c0.229,0.01,0.448,0,0.677,0.114c0.01-0.042,0.031-0.104,0.073-0.187C104.107,18.105,103.399,17.699,102.567,17.303z"/>
					<path id="path3725_00000095316740045253825690000003142904608321465275_" class="st3" d="M98.632,13.233l0.468,0.281
						c-0.062,1.051,1.811,3.112,3.893,3.268c-0.343,0.031-0.718,0.021-0.989,0.146c-0.989-0.614-1.645-1.259-2.196-1.832
						c-0.114,0.021-0.208-0.271-0.396-0.177c-0.531-0.687-0.739-1.218-0.77-1.676l0,0L98.632,13.233z"/>
					<path id="path3727_00000095323104199844155480000017764703985793896072_" class="st22" d="M101.671,14.056
						c-0.697-0.271-1.332-0.583-2.54-0.531c1.884,1.364,2.904,2.217,4.288,3.289c0.635,0.094,1.239,0.375,1.853,0.614
						c-0.083-0.167-0.146-0.333-0.177-0.51c0,0.146,0,0.281,0.094,0.427c-0.822-0.239-4.195-2.633-5.85-3.705
						C99.964,13.441,100.849,13.806,101.671,14.056L101.671,14.056z"/>
					<path id="path3729_00000144334874276405981310000003377769185677628329_" class="st3" d="M102.629,14.118
						c-0.76-0.656-1.603-1.405-1.79-2.456c0.885,0.104,2.613,0.697,3.955,1.665c-1.249-0.718-2.425-1.249-3.383-1.239
						c-0.083,0.874,0.718,1.447,1.228,2.03l0,0H102.629z"/>
					<path id="path3731_00000061454028995272892650000000586373710052370337_" class="st6" d="M101.463,12.12l-0.042,0.031
						c1.28,0.947,2.207,1.842,3.216,2.758c0.281,0.239,0.25,0.5,0.281,0.76c0.104-0.125-0.031-0.531,0.187-0.583
						c0.208-0.042,1.01,0.375,1.062,0.312c-1.884-0.833-3.143-2.175-4.694-3.279H101.463z"/>
					<path id="path3733_00000097489681199589063580000001309168906295587257_" class="st30" d="M105.481,17.168
						c-0.177-0.291-0.458-1.187-0.281-1.79c2.425,0.52,2.842,2.436,2.883,2.821c-0.354-1.384-1.676-2.644-2.592-2.477
						c0.552,0.51,1.239,1.561,1.655,2.009c-0.198,0-0.406,0.021-0.531,0.073c-0.343-0.042-0.5,0.031-0.677,0.083
						c-0.187-0.219-0.26-0.385-0.375-0.562c0.25,0.343,0.604,0.291,0.968,0.187c-0.375-0.677-0.749-1.166-1.124-1.749
						c-0.187,0.135,0,0.864,0.052,1.405l0,0H105.481z"/>
					<path id="path3735_00000159438081356273702350000018257493254740620693_" class="st3" d="M106.459,14.586
						c4.132,2.748,4.445,7.255,1.52,6.516C111.487,20.686,107.375,15.471,106.459,14.586z"/>
					<path id="path3737_00000127012508506903052000000017314418174688961416_" class="st6" d="M106.657,17.813
						c0.343-0.146,1.249-0.125,1.291,1.28l-0.302,0.229c0-0.385,0.062-1.249-0.989-1.499l0,0V17.813z"/>
					<path id="path3739_00000102518931313467212900000009819933103525725091_" class="st6" d="M107.646,19.343l0.312-0.229
						c1.509,0.572,0.77,2.196-0.281,1.936C108.926,20.925,108.656,19.322,107.646,19.343z"/>
					<path id="path3741_00000004530535237402965440000004014325688734072721_" class="st26" d="M112.496,8.799
						c0.208,0.354-0.364,1.426,0.614,1.27c0.333,0.208,0.625,0.094,0.781,0.094c0.645-0.229,0.625-0.677,0.666-0.791
						c-0.562-0.791,0.073-0.947,0.135-0.989c0.343,0.042,0.531,0.687,0.062,0.885c0.042,0.031,0.094,0.021,0.167-0.01
						c0,1.03,0.729,1.103,1.228,0.937c0.999,0.271,0.51-0.885,0.989-1.738c-0.531,0.947-0.187,1.801-0.968,1.686
						c0.198-0.489-0.333-0.864-0.062-1.395c-0.406,0.343,0.271,0.989,0,1.322c-0.271,0.239-0.541,0.042-0.552-0.062
						c-0.114-0.354,0.687-0.77,0.208-1.416c0.167,0.343,0.104,0.5,0.021,0.729c-0.083,0.219-0.427,0.416-0.271,0.864
						c-0.354-0.073-0.531-0.479-0.437-0.812c0.094-0.323,0.26-0.864-0.354-1.041c-0.77,0.229-0.375,0.843-0.281,0.947
						c0.187,0.208-0.156,0.822-0.593,0.822c0.198-0.302-0.042-0.364-0.333-0.854c-0.021,0.26,0.583,0.604,0.239,0.812
						c-0.177,0.146-0.427,0.062-0.531-0.042c-0.198-0.219,0.271-0.479,0.187-0.916c-0.125,0.625-0.312,0.593-0.281,0.885
						c-0.229,0.062-0.468,0.146-0.541-0.291C112.59,9.101,112.59,8.737,112.496,8.799L112.496,8.799z"/>
					<path id="path3743_00000042016868836480967900000011978621151572399788_" class="st26" d="M116.504,11.224v0.062
						c-1.187,0.073-2.404-0.156-3.57-0.177v-0.052C114.12,11.089,115.057,11.297,116.504,11.224L116.504,11.224z"/>
					<path id="path3745_00000094611686995445025280000013806183455695380131_" class="st26" d="M114.661,11.422v0.052
						c0.687,0.104,1.374,0.219,1.946,0.156v-0.052C115.921,11.662,115.296,11.526,114.661,11.422z"/>
					<path id="path3747_00000133531376204562074750000002474618641937666731_" class="st31" d="M113.027,10.444
						c-0.187,0.062-0.104,0.343,0,0.333c0.219,0.01,0.437,0.042,0.656,0c0.125-0.062,0.167-0.281,0.021-0.364
						c-0.229-0.031-0.458-0.031-0.677,0.021l0,0V10.444z M112.986,10.402c0.375-0.073,0.718-0.021,0.916,0.01
						c0.177,0.042,0.177,0.354,0,0.416c-0.198,0.021-0.625,0.01-0.916-0.01C112.798,10.662,112.892,10.465,112.986,10.402
						L112.986,10.402z"/>
					<path id="path3749_00000112598579426674886590000010387969487354592140_" class="st31" d="M114.339,10.746
						c0.489,0.062,0.906,0.104,0.801-0.281C115.005,10.465,114.047,10.256,114.339,10.746z M114.328,10.798
						c-0.062-0.073-0.156-0.219,0.021-0.406c0.271-0.021,0.552,0,0.843,0.042c0.26,0.104,0.239,0.343,0.021,0.437
						C114.755,10.871,114.505,10.839,114.328,10.798L114.328,10.798z"/>
					<path id="path3751_00000142167502962540727310000010532150778335309453_" class="st31" d="M115.671,10.808
						c0.489,0.104,0.895,0.198,0.822-0.198C116.358,10.61,115.432,10.298,115.671,10.808z M115.65,10.86
						c-0.062-0.073-0.135-0.229,0.052-0.406c0.697,0.031,0.583,0.042,0.833,0.104c0.25,0.125,0.208,0.364-0.01,0.437
						c-0.604,0.01-0.708-0.083-0.874-0.146l0,0V10.86z"/>
					<path id="path3753_00000005249118057638225990000010460577768546945207_" class="st6" d="M106.813,18.469l-0.77,2.279
						c0.219,0,0.396,0.01,0.77-0.062C107.167,19.968,107.24,18.948,106.813,18.469L106.813,18.469z"/>
					<path id="path3755_00000085970791626842672990000012782718597968778144_" class="st2" d="M107.438,22.913l-1.395-2.165
						c0,0-0.354,0.895-0.396,1.187C105.824,22.414,106.647,22.903,107.438,22.913L107.438,22.913z"/>
					<path id="path3757_00000103231550440215896870000001957348969253766064_" class="st6" d="M107.209,21.248
						c0.489-0.177,0.583-0.468,0.593-0.645l-0.989,0.083C106.949,20.863,107.094,21.04,107.209,21.248L107.209,21.248z"/>
					<path id="path3759_00000103224347865523709960000006789979451149071495_" class="st6" d="M105.575,19.603
						c-0.198-0.135-0.843-0.177-0.978-0.062l0.822,0.76C105.45,20.082,105.502,19.822,105.575,19.603L105.575,19.603z"/>
					<path id="path3761_00000120541144891460438580000011127598683475893380_" class="st6" d="M103.722,21.945l2.3-1.187
						c0.052-0.021-0.281,0.906-0.385,1.187c-0.271,0.146-1.416,0.416-1.926,0l0,0H103.722z"/>
				</g>
			</g>
		</g>
	</g>
	<g>
		<path class="st32" d="M20.833,89.021c2.01,0,3.535,0.513,4.56,1.552c1.026,1.04,1.539,2.689,1.539,4.948v11.56H22.08V96.728
			c0-1.261-0.222-2.232-0.651-2.869s-1.109-0.97-2.01-0.97c-1.275,0-2.19,0.457-2.731,1.372c-0.541,0.915-0.804,2.218-0.804,3.923
			v8.899h-4.837V96.728c0-0.846-0.097-1.552-0.291-2.121c-0.194-0.568-0.485-0.998-0.873-1.289c-0.388-0.291-0.887-0.43-1.511-0.43
			c-0.901,0-1.608,0.222-2.121,0.679c-0.513,0.444-0.873,1.109-1.095,1.982c-0.222,0.873-0.319,1.941-0.319,3.188v8.344H0V89.354
			h3.701l0.651,2.273h0.263c0.36-0.61,0.818-1.109,1.358-1.497c0.541-0.374,1.15-0.665,1.802-0.846s1.317-0.263,1.996-0.263
			c1.303,0,2.398,0.208,3.313,0.638c0.901,0.43,1.594,1.081,2.079,1.968h0.43c0.527-0.915,1.275-1.566,2.245-1.982
			C18.809,89.229,19.807,89.021,20.833,89.021z M52.648,95.48c0-2.412-0.388-4.505-1.178-6.293c-0.79-1.788-1.996-3.174-3.618-4.158
			c-1.622-0.984-3.673-1.469-6.21-1.469s-4.602,0.485-6.251,1.469s-2.855,2.37-3.645,4.144c-0.79,1.774-1.178,3.867-1.178,6.265
			c0,1.788,0.222,3.424,0.665,4.893c0.444,1.469,1.109,2.717,2.024,3.784s2.051,1.871,3.438,2.44
			c1.386,0.568,3.022,0.846,4.921,0.846s3.535-0.277,4.921-0.846c1.386-0.568,2.537-1.386,3.438-2.44
			c0.901-1.053,1.58-2.315,2.024-3.784c0.444-1.469,0.665-3.091,0.665-4.879L52.648,95.48z M35.751,95.452
			c0-1.636,0.208-3.036,0.61-4.2c0.402-1.164,1.04-2.065,1.913-2.689c0.873-0.624,1.996-0.943,3.382-0.943
			c2.093,0,3.576,0.693,4.491,2.093c0.901,1.4,1.358,3.313,1.358,5.738c0,1.608-0.194,3.008-0.596,4.172s-1.026,2.065-1.899,2.689
			s-2.024,0.943-3.396,0.943c-1.372,0-2.481-0.319-3.354-0.943s-1.511-1.525-1.913-2.689c-0.402-1.164-0.61-2.55-0.61-4.172H35.751z
			 M61.135,82.409h-4.837v24.686h3.701l0.804-1.954h0.333c0.471,0.582,1.081,1.109,1.83,1.566c0.748,0.457,1.733,0.693,3.077,0.693
			s2.537-0.347,3.562-1.04c1.026-0.693,1.83-1.719,2.398-3.091c0.568-1.372,0.859-3.063,0.859-5.087
			c0-3.008-0.624-5.281-1.857-6.833s-2.855-2.329-4.837-2.329c-1.275,0-2.315,0.263-3.119,0.776
			c-0.804,0.513-1.428,1.123-1.899,1.857h-0.194c0.055-0.36,0.097-0.873,0.139-1.525c0.042-0.651,0.055-1.317,0.055-1.982v-5.738
			H61.135z M64.628,92.874c1.026,0,1.83,0.444,2.426,1.317c0.596,0.887,0.887,2.19,0.887,3.923c0,1.733-0.305,3.063-0.887,3.978
			c-0.582,0.929-1.372,1.386-2.37,1.386c-1.345,0-2.259-0.457-2.772-1.372c-0.513-0.915-0.762-2.232-0.762-3.95v-0.527
			c0.028-1.067,0.152-1.954,0.374-2.647c0.222-0.693,0.582-1.22,1.081-1.566c0.499-0.347,1.164-0.527,2.01-0.527L64.628,92.874z
			 M74.087,89.354l7.041,17.603l-0.291,0.873c-0.194,0.568-0.444,1.095-0.776,1.58c-0.333,0.485-0.735,0.859-1.22,1.15
			c-0.485,0.291-1.067,0.43-1.746,0.43c-0.374,0-0.721-0.028-1.067-0.069c-0.347-0.042-0.624-0.083-0.846-0.139v3.839
			c0.277,0.055,0.624,0.125,1.026,0.18c0.402,0.055,0.873,0.083,1.428,0.083c1.137,0,2.176-0.208,3.119-0.624
			c0.943-0.402,1.774-1.026,2.509-1.844s1.317-1.843,1.774-3.063l7.499-19.987h-5.184l-3.285,9.98
			c-0.166,0.485-0.305,0.97-0.416,1.469c-0.111,0.485-0.194,1.026-0.263,1.594h-0.097c-0.028-0.388-0.069-0.748-0.125-1.095
			c-0.055-0.347-0.125-0.679-0.194-1.012c-0.069-0.333-0.152-0.651-0.263-0.97l-3.34-9.98h-5.295L74.087,89.354z M109.668,107.096
			h5.267l5.101-17.728h-4.74l-2.121,7.845c-0.139,0.554-0.291,1.22-0.43,1.996c-0.139,0.776-0.263,1.525-0.374,2.232
			c-0.111,0.721-0.18,1.247-0.222,1.608h-0.125c0-0.402-0.055-0.956-0.152-1.663c-0.083-0.707-0.194-1.386-0.319-2.051
			c-0.125-0.665-0.222-1.15-0.291-1.455l-2.079-8.497h-5.323l-2.19,8.497c-0.042,0.166-0.097,0.457-0.18,0.901
			c-0.069,0.43-0.166,0.929-0.249,1.469c-0.083,0.541-0.166,1.067-0.236,1.58c-0.069,0.513-0.111,0.915-0.139,1.22h-0.125
			c-0.055-0.416-0.125-0.97-0.236-1.677c-0.111-0.707-0.208-1.442-0.347-2.19s-0.263-1.4-0.402-1.954l-2.051-7.845h-4.824
			l5.045,17.728h5.198l1.428-6.14c0.083-0.388,0.194-0.943,0.374-1.677c0.18-0.735,0.36-1.525,0.554-2.356
			c0.194-0.832,0.374-1.608,0.527-2.315c0.152-0.707,0.277-1.22,0.347-1.552h0.139c0.083,0.333,0.194,0.846,0.36,1.552
			c0.166,0.707,0.347,1.469,0.541,2.301c0.194,0.832,0.374,1.608,0.541,2.329c0.166,0.721,0.291,1.261,0.36,1.636l1.358,6.196
			L109.668,107.096z M129.675,88.979c-1.247,0-2.453,0.139-3.618,0.43c-1.164,0.291-2.218,0.679-3.16,1.178l1.608,3.271
			c0.818-0.36,1.636-0.679,2.467-0.915c0.832-0.236,1.663-0.36,2.523-0.36s1.539,0.222,2.024,0.651
			c0.499,0.444,0.735,1.123,0.735,2.051v0.776l-3.077,0.097c-2.647,0.097-4.63,0.596-5.946,1.483
			c-1.317,0.887-1.982,2.273-1.982,4.158c0,1.275,0.236,2.329,0.707,3.16c0.471,0.832,1.123,1.442,1.954,1.844
			c0.832,0.402,1.774,0.596,2.814,0.596c0.984,0,1.816-0.097,2.509-0.291s1.303-0.485,1.83-0.887
			c0.527-0.402,1.04-0.915,1.552-1.552h0.125l0.929,2.412h3.382V95.272c0-2.121-0.624-3.687-1.899-4.727
			c-1.275-1.04-3.091-1.552-5.475-1.552L129.675,88.979z M132.226,98.904v1.455c0,1.137-0.36,2.01-1.067,2.62
			c-0.707,0.61-1.58,0.915-2.62,0.915c-0.693,0-1.261-0.152-1.691-0.471c-0.43-0.319-0.651-0.846-0.651-1.58
			c0-0.846,0.305-1.539,0.915-2.051c0.61-0.527,1.691-0.804,3.257-0.846l1.871-0.069L132.226,98.904z M148.732,103.547
			c-0.624,0-1.137-0.166-1.525-0.499c-0.388-0.333-0.582-0.832-0.582-1.511v-8.552h4.962v-3.632h-4.962v-3.77h-3.091l-1.4,3.742
			l-2.661,1.622v2.051h2.315v8.552c0,1.525,0.236,2.717,0.721,3.562c0.485,0.846,1.137,1.442,1.982,1.788
			c0.832,0.347,1.788,0.513,2.841,0.513c0.901,0,1.746-0.083,2.509-0.236c0.762-0.152,1.414-0.347,1.927-0.582v-3.604
			c-0.499,0.166-0.998,0.291-1.497,0.402c-0.513,0.097-1.026,0.152-1.552,0.152L148.732,103.547z M162.577,89.035
			c-1.677,0-3.133,0.347-4.394,1.04c-1.261,0.693-2.232,1.719-2.939,3.105c-0.707,1.372-1.053,3.133-1.053,5.17
			s0.388,3.729,1.164,5.073s1.844,2.342,3.216,2.994c1.358,0.651,2.939,0.984,4.713,0.984c1.358,0,2.523-0.111,3.479-0.305
			c0.956-0.208,1.871-0.527,2.744-0.956v-3.742c-0.984,0.471-1.954,0.818-2.897,1.053c-0.943,0.236-1.968,0.347-3.105,0.347
			c-1.358,0-2.426-0.388-3.188-1.164c-0.776-0.776-1.178-1.857-1.234-3.216h11.435v-2.342c0-1.733-0.319-3.188-0.97-4.38
			c-0.651-1.192-1.566-2.107-2.744-2.731c-1.178-0.624-2.592-0.943-4.228-0.943V89.035z M162.605,92.459
			c0.762,0,1.4,0.166,1.885,0.499c0.485,0.333,0.859,0.776,1.109,1.331s0.388,1.192,0.388,1.913h-6.792
			c0.097-1.289,0.444-2.232,1.067-2.841C160.886,92.763,161.662,92.459,162.605,92.459L162.605,92.459z M178.993,82.409h-4.837
			v24.672h4.837V82.409z M206.303,104.673h-11.846v-0.111l5.043-5.027c1.174-1.152,2.199-2.241,3.076-3.267
			c0.878-1.036,1.56-2.077,2.046-3.124c0.486-1.057,0.729-2.199,0.729-3.425c0-1.269-0.285-2.363-0.857-3.283
			c-0.56-0.92-1.359-1.628-2.394-2.125c-1.036-0.497-2.267-0.745-3.694-0.745c-0.941,0-1.829,0.116-2.665,0.349
			c-0.824,0.233-1.601,0.55-2.33,0.951c-0.719,0.402-1.385,0.862-1.999,1.38l1.411,1.776c0.899-0.698,1.777-1.237,2.632-1.617
			c0.857-0.381,1.84-0.571,2.95-0.571c1.268,0,2.288,0.349,3.06,1.047c0.783,0.687,1.174,1.686,1.174,2.997
			c0,1.057-0.205,2.03-0.618,2.918c-0.413,0.877-1.015,1.771-1.808,2.68c-0.782,0.909-1.749,1.945-2.902,3.108l-6.2,6.295v2.204
			h15.192V104.673z M209.266,107.036c0.36,0.328,0.799,0.492,1.317,0.492c0.539,0,0.994-0.164,1.364-0.492
			c0.37-0.338,0.555-0.872,0.555-1.602c0-0.74-0.185-1.263-0.555-1.57c-0.37-0.317-0.825-0.476-1.364-0.476
			c-0.518,0-0.957,0.159-1.317,0.476c-0.359,0.307-0.539,0.83-0.539,1.57C208.727,106.164,208.907,106.698,209.266,107.036z
			 M228.175,89.054c-0.549-1.787-1.389-3.15-2.521-4.091c-1.131-0.951-2.569-1.427-4.313-1.427c-1.84,0-3.32,0.481-4.44,1.443
			c-1.121,0.951-1.935,2.32-2.442,4.107c-0.497,1.776-0.745,3.901-0.745,6.375c0,2.516,0.275,4.667,0.824,6.454
			c0.561,1.776,1.401,3.134,2.522,4.075c1.131,0.941,2.559,1.411,4.282,1.411c1.363,0,2.531-0.264,3.504-0.793
			c0.973-0.539,1.766-1.321,2.379-2.347c0.614-1.025,1.063-2.278,1.348-3.758c0.285-1.48,0.428-3.161,0.428-5.043
			C229,92.965,228.725,90.83,228.175,89.054z M216.837,90.132c0.327-1.438,0.856-2.516,1.585-3.235
			c0.73-0.729,1.703-1.094,2.918-1.094c1.216,0,2.188,0.365,2.918,1.094c0.729,0.719,1.258,1.797,1.586,3.235
			c0.327,1.427,0.492,3.203,0.492,5.328c0,2.167-0.169,3.97-0.507,5.407c-0.328,1.438-0.862,2.511-1.602,3.219
			c-0.729,0.708-1.691,1.062-2.886,1.062s-2.162-0.354-2.902-1.062c-0.729-0.719-1.259-1.797-1.586-3.235
			c-0.327-1.438-0.492-3.235-0.492-5.392C216.362,93.335,216.52,91.559,216.837,90.132z"/>
	</g>
</g>
</svg>
