<?xml version="1.0" encoding="utf-8"?>
<!-- Generator: Adobe Illustrator 27.5.0, SVG Export Plug-In . SVG Version: 6.00 Build 0)  -->
<svg version="1.1" id="Layer_1" xmlns="http://www.w3.org/2000/svg" xmlns:xlink="http://www.w3.org/1999/xlink" x="0px" y="0px"
	 viewBox="0 0 165.54 99.28" style="enable-background:new 0 0 165.54 99.28;" xml:space="preserve">
<style type="text/css">
	.st0{fill:#E30613;}
	.st1{fill:#FFFFFF;}
	.st2{fill:#1D1D1B;}
	.st3{clip-path:url(#SVGID_00000112591178504278316440000005757710845985579678_);}
</style>
<rect x="17.01" y="78.19" class="st0" width="131.52" height="4.11"/>
<rect x="17.01" y="74.08" class="st1" width="131.52" height="4.11"/>
<rect x="17.01" y="73.8" class="st2" width="131.52" height="0.28"/>
<g>
	<defs>
		<rect id="SVGID_1_" y="0" width="165.54" height="99.28"/>
	</defs>
	<clipPath id="SVGID_00000113328209306938770570000005003624717985122982_">
		<use xlink:href="#SVGID_1_"  style="overflow:visible;"/>
	</clipPath>
	<g style="clip-path:url(#SVGID_00000113328209306938770570000005003624717985122982_);">
		<path class="st2" d="M34.03,17.33v16.48h-1.96V21.7c0-0.16,0.01-0.33,0.02-0.52c0.01-0.18,0.02-0.37,0.04-0.56l-5.66,10.3
			c-0.18,0.35-0.44,0.52-0.81,0.52h-0.32c-0.36,0-0.63-0.17-0.81-0.52l-5.77-10.35c0.05,0.41,0.07,0.78,0.07,1.13v12.11h-1.96V17.33
			h1.64c0.2,0,0.35,0.02,0.46,0.06c0.11,0.04,0.21,0.15,0.31,0.32l5.69,10.14c0.09,0.18,0.18,0.38,0.27,0.58
			c0.09,0.2,0.17,0.4,0.25,0.61c0.08-0.21,0.16-0.41,0.24-0.62s0.18-0.4,0.28-0.58l5.59-10.13c0.09-0.18,0.19-0.28,0.3-0.32
			c0.11-0.04,0.27-0.06,0.47-0.06H34.03z"/>
		<path class="st2" d="M40.19,18.51c0,0.2-0.04,0.39-0.12,0.56c-0.08,0.17-0.19,0.33-0.32,0.46c-0.13,0.13-0.29,0.24-0.47,0.32
			c-0.18,0.08-0.37,0.12-0.57,0.12s-0.39-0.04-0.56-0.12c-0.17-0.08-0.32-0.18-0.45-0.32s-0.23-0.29-0.31-0.46
			c-0.08-0.17-0.12-0.36-0.12-0.56c0-0.2,0.04-0.39,0.12-0.57c0.08-0.18,0.18-0.34,0.31-0.47s0.28-0.24,0.45-0.32
			s0.36-0.11,0.56-0.11s0.39,0.04,0.57,0.11s0.34,0.18,0.47,0.32c0.13,0.13,0.24,0.29,0.32,0.47
			C40.15,18.12,40.19,18.31,40.19,18.51z M39.76,22.16v11.65h-2.05V22.16H39.76z"/>
		<path class="st2" d="M45.04,23.86c0.25-0.28,0.52-0.54,0.81-0.77s0.58-0.43,0.9-0.59c0.32-0.16,0.66-0.29,1.01-0.38
			c0.36-0.09,0.74-0.13,1.16-0.13c0.64,0,1.2,0.11,1.69,0.32c0.49,0.21,0.89,0.51,1.22,0.9c0.33,0.39,0.57,0.85,0.74,1.4
			c0.17,0.54,0.25,1.15,0.25,1.81v7.42h-2.06V26.4c0-0.88-0.2-1.57-0.6-2.05s-1.01-0.73-1.83-0.73c-0.61,0-1.17,0.15-1.7,0.44
			c-0.53,0.29-1.01,0.69-1.46,1.18v8.58h-2.06V22.16h1.23c0.29,0,0.47,0.14,0.54,0.43L45.04,23.86z"/>
		<path class="st2" d="M58.55,18.51c0,0.2-0.04,0.39-0.12,0.56c-0.08,0.17-0.19,0.33-0.32,0.46c-0.13,0.13-0.29,0.24-0.47,0.32
			c-0.18,0.08-0.37,0.12-0.57,0.12s-0.39-0.04-0.56-0.12c-0.17-0.08-0.32-0.18-0.45-0.32s-0.23-0.29-0.31-0.46
			c-0.08-0.17-0.12-0.36-0.12-0.56c0-0.2,0.04-0.39,0.12-0.57c0.08-0.18,0.18-0.34,0.31-0.47s0.28-0.24,0.45-0.32
			s0.36-0.11,0.56-0.11s0.39,0.04,0.57,0.11s0.34,0.18,0.47,0.32c0.13,0.13,0.24,0.29,0.32,0.47
			C58.51,18.12,58.55,18.31,58.55,18.51z M58.11,22.16v11.65h-2.05V22.16H58.11z"/>
		<path class="st2" d="M68.25,24.09c-0.09,0.17-0.23,0.25-0.43,0.25c-0.12,0-0.25-0.04-0.39-0.13s-0.32-0.18-0.53-0.28
			c-0.21-0.1-0.46-0.2-0.75-0.29c-0.29-0.09-0.64-0.13-1.03-0.13c-0.35,0-0.66,0.04-0.93,0.13c-0.28,0.09-0.51,0.21-0.71,0.36
			c-0.2,0.15-0.34,0.33-0.45,0.53c-0.1,0.2-0.16,0.42-0.16,0.66c0,0.3,0.09,0.55,0.26,0.75c0.17,0.2,0.4,0.37,0.68,0.52
			c0.28,0.15,0.61,0.27,0.97,0.39c0.36,0.11,0.73,0.23,1.11,0.36c0.38,0.13,0.75,0.27,1.11,0.42s0.68,0.35,0.97,0.58
			s0.51,0.51,0.68,0.85c0.17,0.33,0.26,0.73,0.26,1.2c0,0.54-0.1,1.03-0.29,1.49c-0.19,0.46-0.48,0.85-0.85,1.18
			s-0.84,0.6-1.38,0.79C65.84,33.9,65.22,34,64.5,34c-0.81,0-1.55-0.13-2.21-0.4c-0.66-0.26-1.22-0.6-1.68-1.02l0.48-0.78
			c0.06-0.1,0.13-0.18,0.22-0.23c0.08-0.05,0.19-0.08,0.32-0.08c0.14,0,0.28,0.05,0.44,0.16c0.15,0.11,0.34,0.23,0.56,0.36
			c0.22,0.13,0.48,0.25,0.8,0.36c0.31,0.11,0.71,0.16,1.17,0.16c0.4,0,0.75-0.05,1.05-0.16c0.3-0.1,0.55-0.24,0.75-0.42
			s0.35-0.38,0.44-0.61s0.14-0.48,0.14-0.74c0-0.32-0.09-0.59-0.26-0.8c-0.17-0.21-0.4-0.39-0.68-0.54s-0.61-0.28-0.97-0.39
			c-0.36-0.11-0.74-0.23-1.12-0.35c-0.38-0.12-0.75-0.26-1.12-0.42c-0.36-0.16-0.69-0.35-0.97-0.59c-0.28-0.24-0.51-0.53-0.68-0.88
			c-0.17-0.35-0.26-0.77-0.26-1.27c0-0.44,0.09-0.87,0.28-1.28s0.45-0.77,0.81-1.08c0.35-0.31,0.79-0.56,1.3-0.74
			s1.1-0.28,1.76-0.28c0.77,0,1.46,0.12,2.06,0.36c0.61,0.24,1.14,0.57,1.58,0.99L68.25,24.09z"/>
		<path class="st2" d="M75,34c-0.92,0-1.63-0.26-2.12-0.77s-0.74-1.25-0.74-2.22v-7.13h-1.4c-0.12,0-0.23-0.04-0.31-0.11
			c-0.08-0.07-0.13-0.19-0.13-0.34v-0.82l1.91-0.24l0.47-3.6c0.02-0.12,0.07-0.21,0.16-0.28s0.19-0.11,0.32-0.11h1.04v4.01h3.37
			v1.48h-3.37v6.99c0,0.49,0.12,0.85,0.36,1.09c0.24,0.24,0.54,0.36,0.92,0.36c0.21,0,0.4-0.03,0.56-0.09
			c0.16-0.06,0.29-0.12,0.41-0.19c0.11-0.07,0.21-0.13,0.29-0.19c0.08-0.06,0.15-0.09,0.21-0.09c0.11,0,0.2,0.06,0.29,0.2l0.6,0.98
			c-0.35,0.33-0.78,0.59-1.28,0.78C76.04,33.9,75.53,34,75,34z"/>
		<path class="st2" d="M89.08,32.18c-0.25,0.31-0.56,0.57-0.91,0.8c-0.35,0.23-0.73,0.41-1.13,0.56s-0.82,0.25-1.25,0.33
			s-0.85,0.11-1.28,0.11c-0.8,0-1.55-0.14-2.23-0.41c-0.68-0.27-1.27-0.67-1.76-1.2c-0.49-0.52-0.88-1.17-1.16-1.95
			c-0.28-0.77-0.41-1.66-0.41-2.67c0-0.81,0.12-1.57,0.37-2.28s0.61-1.32,1.08-1.83s1.04-0.92,1.71-1.22
			c0.67-0.3,1.43-0.44,2.28-0.44c0.7,0,1.34,0.12,1.94,0.35c0.59,0.23,1.11,0.57,1.54,1.01c0.43,0.44,0.77,0.99,1.02,1.63
			c0.25,0.65,0.37,1.39,0.37,2.21c0,0.32-0.03,0.54-0.1,0.64c-0.07,0.11-0.2,0.16-0.39,0.16h-7.79c0.02,0.74,0.12,1.38,0.3,1.92
			s0.43,1,0.75,1.36c0.32,0.36,0.71,0.64,1.15,0.82c0.44,0.18,0.94,0.27,1.5,0.27c0.51,0,0.96-0.06,1.33-0.18
			c0.37-0.12,0.69-0.25,0.96-0.39c0.27-0.14,0.49-0.27,0.67-0.39c0.18-0.12,0.33-0.18,0.47-0.18c0.17,0,0.3,0.07,0.39,0.2
			L89.08,32.18z M87.42,26.72c0-0.48-0.07-0.91-0.2-1.31c-0.13-0.39-0.33-0.74-0.59-1.02s-0.57-0.51-0.94-0.67s-0.79-0.24-1.25-0.24
			c-0.98,0-1.76,0.29-2.33,0.86c-0.57,0.57-0.93,1.36-1.06,2.37H87.42z"/>
		<path class="st2" d="M93.71,24.5c0.37-0.8,0.82-1.42,1.36-1.87c0.54-0.45,1.19-0.67,1.97-0.67c0.25,0,0.48,0.03,0.71,0.08
			c0.23,0.05,0.43,0.14,0.6,0.25l-0.15,1.53c-0.05,0.19-0.16,0.29-0.34,0.29c-0.11,0-0.26-0.02-0.47-0.07s-0.44-0.07-0.7-0.07
			c-0.37,0-0.7,0.05-0.98,0.16c-0.29,0.11-0.54,0.27-0.77,0.48c-0.23,0.21-0.43,0.47-0.61,0.78c-0.18,0.31-0.34,0.67-0.49,1.06v7.36
			h-2.06V22.16h1.17c0.22,0,0.38,0.04,0.46,0.13c0.08,0.08,0.14,0.23,0.17,0.44L93.71,24.5z"/>
		<path class="st2" d="M106.88,24.09c-0.09,0.17-0.23,0.25-0.43,0.25c-0.11,0-0.25-0.04-0.39-0.13s-0.32-0.18-0.54-0.28
			s-0.46-0.2-0.75-0.29c-0.29-0.09-0.64-0.13-1.04-0.13c-0.34,0-0.66,0.04-0.93,0.13c-0.28,0.09-0.51,0.21-0.71,0.36
			s-0.34,0.33-0.45,0.53c-0.1,0.2-0.16,0.42-0.16,0.66c0,0.3,0.09,0.55,0.26,0.75c0.17,0.2,0.4,0.37,0.68,0.52
			c0.28,0.15,0.61,0.27,0.97,0.39c0.36,0.11,0.73,0.23,1.11,0.36c0.38,0.13,0.75,0.27,1.11,0.42c0.36,0.15,0.68,0.35,0.97,0.58
			c0.28,0.23,0.51,0.51,0.68,0.85c0.17,0.33,0.26,0.73,0.26,1.2c0,0.54-0.1,1.03-0.29,1.49s-0.48,0.85-0.85,1.18
			c-0.38,0.33-0.83,0.6-1.38,0.79c-0.54,0.19-1.17,0.29-1.89,0.29c-0.81,0-1.55-0.13-2.21-0.4c-0.66-0.26-1.22-0.6-1.68-1.02
			l0.48-0.78c0.06-0.1,0.13-0.18,0.22-0.23c0.08-0.05,0.19-0.08,0.32-0.08c0.14,0,0.28,0.05,0.44,0.16
			c0.15,0.11,0.34,0.23,0.56,0.36c0.22,0.13,0.48,0.25,0.8,0.36c0.31,0.11,0.71,0.16,1.17,0.16c0.4,0,0.75-0.05,1.05-0.16
			s0.55-0.24,0.75-0.42s0.35-0.38,0.44-0.61c0.1-0.23,0.14-0.48,0.14-0.74c0-0.32-0.09-0.59-0.26-0.8c-0.17-0.21-0.4-0.39-0.68-0.54
			s-0.61-0.28-0.97-0.39c-0.36-0.11-0.74-0.23-1.12-0.35c-0.38-0.12-0.75-0.26-1.12-0.42c-0.36-0.16-0.69-0.35-0.97-0.59
			c-0.28-0.24-0.51-0.53-0.68-0.88c-0.17-0.35-0.26-0.77-0.26-1.27c0-0.44,0.09-0.87,0.28-1.28c0.18-0.41,0.45-0.77,0.8-1.08
			s0.79-0.56,1.3-0.74s1.1-0.28,1.76-0.28c0.77,0,1.46,0.12,2.06,0.36c0.61,0.24,1.14,0.57,1.58,0.99L106.88,24.09z"/>
		<path class="st2" d="M113.63,34c-0.92,0-1.63-0.26-2.12-0.77s-0.74-1.25-0.74-2.22v-7.13h-1.4c-0.12,0-0.23-0.04-0.31-0.11
			c-0.08-0.07-0.13-0.19-0.13-0.34v-0.82l1.91-0.24l0.47-3.6c0.02-0.12,0.07-0.21,0.16-0.28c0.08-0.07,0.19-0.11,0.32-0.11h1.04
			v4.01h3.37v1.48h-3.37v6.99c0,0.49,0.12,0.85,0.36,1.09c0.24,0.24,0.54,0.36,0.92,0.36c0.21,0,0.4-0.03,0.56-0.09
			c0.16-0.06,0.29-0.12,0.41-0.19s0.21-0.13,0.29-0.19c0.08-0.06,0.15-0.09,0.21-0.09c0.11,0,0.2,0.06,0.29,0.2l0.6,0.98
			c-0.35,0.33-0.78,0.59-1.28,0.78C114.67,33.9,114.16,34,113.63,34z"/>
		<path class="st2" d="M134.36,22.16l-3.77,11.65h-1.62c-0.2,0-0.34-0.13-0.41-0.39l-2.58-7.9c-0.06-0.18-0.11-0.35-0.15-0.53
			c-0.04-0.18-0.08-0.36-0.11-0.53c-0.04,0.18-0.08,0.35-0.12,0.53s-0.09,0.36-0.15,0.55l-2.62,7.89c-0.07,0.26-0.22,0.39-0.46,0.39
			h-1.54l-3.77-11.65h1.61c0.16,0,0.3,0.04,0.41,0.13s0.19,0.18,0.22,0.3l2.23,7.5c0.13,0.55,0.23,1.07,0.31,1.56
			c0.07-0.25,0.14-0.51,0.21-0.77c0.07-0.26,0.15-0.52,0.24-0.79l2.46-7.54c0.04-0.11,0.1-0.21,0.2-0.29
			c0.1-0.08,0.21-0.11,0.35-0.11h0.9c0.15,0,0.28,0.04,0.38,0.11s0.17,0.17,0.21,0.29l2.4,7.54c0.08,0.27,0.16,0.53,0.23,0.79
			c0.07,0.26,0.13,0.52,0.2,0.77c0.04-0.25,0.09-0.51,0.14-0.76s0.12-0.52,0.19-0.8l2.28-7.5c0.04-0.12,0.11-0.22,0.22-0.3
			c0.11-0.08,0.23-0.12,0.38-0.12H134.36z"/>
		<path class="st2" d="M141.14,21.98c0.85,0,1.62,0.14,2.3,0.43c0.68,0.28,1.26,0.69,1.75,1.21c0.48,0.52,0.85,1.15,1.11,1.89
			s0.39,1.57,0.39,2.48c0,0.92-0.13,1.75-0.39,2.48c-0.26,0.74-0.63,1.36-1.11,1.89c-0.48,0.52-1.07,0.92-1.75,1.2
			c-0.68,0.28-1.45,0.42-2.3,0.42c-0.86,0-1.63-0.14-2.32-0.42c-0.69-0.28-1.27-0.68-1.75-1.2s-0.85-1.15-1.11-1.89
			c-0.26-0.74-0.39-1.56-0.39-2.48c0-0.91,0.13-1.74,0.39-2.48s0.63-1.37,1.11-1.89c0.48-0.52,1.07-0.92,1.75-1.21
			C139.5,22.12,140.28,21.98,141.14,21.98z M141.14,32.38c1.15,0,2.01-0.39,2.58-1.16s0.85-1.85,0.85-3.23
			c0-1.39-0.28-2.47-0.85-3.24s-1.43-1.16-2.58-1.16c-0.58,0-1.09,0.1-1.52,0.3c-0.43,0.2-0.79,0.49-1.08,0.86
			c-0.29,0.38-0.5,0.84-0.64,1.39c-0.14,0.55-0.21,1.17-0.21,1.86c0,1.38,0.29,2.46,0.86,3.23S139.97,32.38,141.14,32.38z"/>
	</g>
	<g style="clip-path:url(#SVGID_00000113328209306938770570000005003624717985122982_);">
		<path class="st2" d="M28.45,56.1c0.12,0,0.23,0.05,0.32,0.15l0.89,0.96c-0.67,0.78-1.49,1.39-2.46,1.83
			c-0.96,0.44-2.13,0.66-3.49,0.66c-1.18,0-2.25-0.21-3.22-0.62c-0.97-0.41-1.79-0.98-2.47-1.72c-0.68-0.74-1.21-1.63-1.59-2.66
			c-0.38-1.04-0.56-2.17-0.56-3.42c0-1.24,0.2-2.38,0.59-3.42c0.39-1.04,0.94-1.92,1.65-2.67s1.56-1.32,2.55-1.73
			c0.99-0.41,2.08-0.62,3.28-0.62c1.17,0,2.21,0.19,3.1,0.56c0.9,0.38,1.69,0.89,2.37,1.53l-0.74,1.02
			c-0.05,0.08-0.11,0.14-0.18,0.19c-0.07,0.05-0.17,0.07-0.29,0.07c-0.14,0-0.31-0.07-0.51-0.22s-0.46-0.32-0.78-0.5
			c-0.32-0.18-0.72-0.35-1.21-0.5s-1.08-0.22-1.78-0.22c-0.85,0-1.63,0.15-2.33,0.44c-0.71,0.29-1.31,0.72-1.82,1.28
			c-0.51,0.56-0.91,1.24-1.19,2.05s-0.43,1.71-0.43,2.73c0,1.03,0.15,1.94,0.44,2.75c0.3,0.8,0.7,1.49,1.21,2.04
			s1.11,0.98,1.81,1.27c0.69,0.29,1.44,0.44,2.25,0.44c0.49,0,0.93-0.03,1.33-0.09c0.4-0.06,0.76-0.15,1.09-0.27
			c0.33-0.12,0.64-0.28,0.93-0.47c0.29-0.19,0.57-0.41,0.86-0.67C28.19,56.16,28.32,56.1,28.45,56.1z"/>
		<path class="st2" d="M41.42,47.86l-6.5,15.09c-0.07,0.15-0.16,0.28-0.26,0.37s-0.26,0.14-0.48,0.14h-1.52l2.13-4.62l-4.81-10.97
			h1.77c0.18,0,0.32,0.04,0.42,0.13c0.1,0.09,0.17,0.19,0.21,0.29l3.12,7.34c0.12,0.32,0.23,0.66,0.31,1.01
			c0.11-0.36,0.22-0.7,0.35-1.02l3.02-7.33c0.05-0.12,0.12-0.22,0.24-0.3c0.11-0.08,0.24-0.12,0.37-0.12H41.42z"/>
		<path class="st2" d="M43.99,59.51v-9.9l-1.29-0.15c-0.16-0.04-0.29-0.1-0.4-0.18c-0.1-0.08-0.16-0.2-0.16-0.35v-0.84h1.84v-1.13
			c0-0.67,0.09-1.26,0.28-1.78s0.46-0.95,0.81-1.31c0.35-0.36,0.77-0.63,1.26-0.81c0.49-0.18,1.04-0.28,1.66-0.28
			c0.52,0,1,0.08,1.44,0.23l-0.05,1.02c-0.02,0.18-0.12,0.28-0.3,0.3c-0.19,0.02-0.44,0.02-0.75,0.02c-0.35,0-0.67,0.05-0.96,0.14
			c-0.29,0.09-0.54,0.24-0.74,0.45c-0.21,0.21-0.37,0.48-0.48,0.82c-0.11,0.34-0.17,0.76-0.17,1.25v1.07h3.36v1.48h-3.29v9.94H43.99
			z"/>
		<path class="st2" d="M53.23,50.19c0.37-0.8,0.82-1.42,1.36-1.87c0.54-0.45,1.19-0.67,1.97-0.67c0.25,0,0.48,0.03,0.71,0.08
			c0.23,0.05,0.43,0.14,0.6,0.25l-0.15,1.53c-0.05,0.19-0.16,0.29-0.35,0.29c-0.11,0-0.26-0.02-0.47-0.07s-0.44-0.07-0.7-0.07
			c-0.37,0-0.7,0.05-0.98,0.16c-0.29,0.11-0.54,0.27-0.77,0.48c-0.23,0.21-0.43,0.47-0.61,0.78s-0.34,0.67-0.49,1.06v7.36h-2.06
			V47.86h1.17c0.22,0,0.38,0.04,0.46,0.13s0.14,0.23,0.17,0.44L53.23,50.19z"/>
		<path class="st2" d="M69.71,47.86l-6.5,15.09c-0.07,0.15-0.16,0.28-0.26,0.37s-0.26,0.14-0.48,0.14h-1.52l2.13-4.62l-4.81-10.97
			h1.77c0.18,0,0.32,0.04,0.42,0.13c0.1,0.09,0.17,0.19,0.21,0.29l3.12,7.34c0.12,0.32,0.23,0.66,0.31,1.01
			c0.11-0.36,0.22-0.7,0.35-1.02l3.02-7.33c0.05-0.12,0.12-0.22,0.24-0.3c0.11-0.08,0.24-0.12,0.37-0.12H69.71z"/>
		<path class="st2" d="M79.56,48.73c0,0.15-0.02,0.29-0.07,0.43c-0.05,0.14-0.12,0.26-0.2,0.36l-6.31,8.4h6.37v1.6h-8.77v-0.85
			c0-0.1,0.02-0.22,0.07-0.35c0.05-0.13,0.12-0.26,0.21-0.38l6.35-8.45h-6.27v-1.61h8.64V48.73z"/>
		<path class="st2" d="M81.61,49.5c0.64-0.62,1.34-1.08,2.08-1.39c0.74-0.31,1.57-0.46,2.47-0.46c0.65,0,1.23,0.11,1.74,0.32
			c0.51,0.21,0.93,0.51,1.28,0.9c0.34,0.38,0.61,0.85,0.78,1.39c0.18,0.54,0.26,1.14,0.26,1.79v7.45h-0.91
			c-0.2,0-0.35-0.03-0.46-0.1s-0.19-0.19-0.25-0.39l-0.23-1.1c-0.31,0.28-0.61,0.53-0.9,0.75s-0.6,0.4-0.92,0.55
			c-0.32,0.15-0.66,0.26-1.03,0.35c-0.36,0.08-0.77,0.12-1.21,0.12c-0.45,0-0.88-0.06-1.28-0.19c-0.4-0.13-0.75-0.32-1.04-0.57
			c-0.29-0.25-0.53-0.57-0.7-0.96c-0.17-0.39-0.26-0.85-0.26-1.37c0-0.46,0.13-0.9,0.38-1.33c0.25-0.43,0.66-0.8,1.23-1.13
			c0.57-0.33,1.31-0.6,2.22-0.81c0.91-0.21,2.03-0.33,3.36-0.36v-0.91c0-0.9-0.2-1.59-0.59-2.05c-0.39-0.46-0.96-0.7-1.71-0.7
			c-0.51,0-0.93,0.06-1.27,0.19c-0.34,0.13-0.64,0.27-0.89,0.43c-0.25,0.16-0.46,0.3-0.64,0.43c-0.18,0.13-0.36,0.19-0.53,0.19
			c-0.14,0-0.26-0.04-0.36-0.11s-0.18-0.16-0.25-0.27L81.61,49.5z M88.23,54.26c-0.94,0.03-1.75,0.11-2.41,0.22
			c-0.66,0.12-1.2,0.27-1.62,0.47s-0.72,0.42-0.91,0.68c-0.19,0.26-0.28,0.55-0.28,0.87c0,0.31,0.05,0.57,0.15,0.79
			s0.24,0.4,0.41,0.55c0.17,0.14,0.38,0.25,0.61,0.31c0.23,0.07,0.49,0.1,0.75,0.1c0.36,0,0.69-0.04,0.99-0.11
			c0.3-0.07,0.58-0.18,0.85-0.32c0.27-0.14,0.52-0.3,0.76-0.5c0.24-0.19,0.48-0.41,0.71-0.66V54.26z"/>
		<path class="st2" d="M101.45,49.93c-0.06,0.08-0.12,0.15-0.18,0.2c-0.06,0.05-0.15,0.07-0.25,0.07c-0.12,0-0.24-0.05-0.38-0.14
			c-0.14-0.1-0.31-0.2-0.51-0.32c-0.2-0.12-0.45-0.22-0.75-0.32c-0.3-0.1-0.66-0.14-1.09-0.14c-0.58,0-1.08,0.1-1.52,0.3
			c-0.44,0.2-0.8,0.5-1.1,0.88S95.15,51.3,95,51.85c-0.15,0.54-0.22,1.15-0.22,1.83c0,0.71,0.08,1.33,0.24,1.88
			c0.16,0.55,0.39,1.01,0.68,1.38s0.65,0.66,1.07,0.85c0.42,0.2,0.89,0.29,1.41,0.29c0.5,0,0.91-0.06,1.23-0.18
			c0.32-0.12,0.59-0.25,0.8-0.4s0.39-0.28,0.53-0.4s0.28-0.18,0.42-0.18c0.17,0,0.3,0.07,0.39,0.2l0.58,0.75
			c-0.25,0.31-0.54,0.58-0.86,0.8c-0.32,0.22-0.67,0.41-1.04,0.56s-0.76,0.26-1.17,0.33s-0.82,0.1-1.24,0.1
			c-0.73,0-1.41-0.13-2.03-0.4c-0.62-0.27-1.17-0.66-1.63-1.17c-0.46-0.51-0.82-1.14-1.08-1.88c-0.26-0.74-0.39-1.59-0.39-2.54
			c0-0.87,0.12-1.67,0.36-2.4c0.24-0.74,0.59-1.37,1.06-1.9s1.04-0.95,1.71-1.25c0.68-0.3,1.46-0.45,2.34-0.45
			c0.82,0,1.54,0.13,2.17,0.4c0.62,0.26,1.18,0.64,1.66,1.12L101.45,49.93z"/>
		<path class="st2" d="M106.49,47.86v12.51c0,0.47-0.06,0.9-0.18,1.31c-0.12,0.4-0.32,0.75-0.59,1.05s-0.61,0.54-1.03,0.71
			c-0.42,0.17-0.92,0.26-1.5,0.26c-0.25,0-0.47-0.02-0.68-0.06c-0.21-0.04-0.41-0.1-0.62-0.17l0.08-1.1
			c0.02-0.07,0.04-0.12,0.08-0.16c0.03-0.03,0.08-0.06,0.14-0.06c0.06-0.01,0.14-0.01,0.24-0.01c0.1,0,0.22,0.01,0.36,0.01
			c0.6,0,1.02-0.14,1.28-0.42c0.25-0.28,0.38-0.73,0.38-1.35V47.86H106.49z M106.91,44.2c0,0.2-0.04,0.39-0.12,0.56
			c-0.08,0.17-0.19,0.33-0.32,0.46c-0.13,0.13-0.29,0.24-0.47,0.32c-0.18,0.08-0.36,0.12-0.56,0.12c-0.2,0-0.39-0.04-0.56-0.12
			c-0.17-0.08-0.32-0.18-0.46-0.32c-0.13-0.13-0.23-0.29-0.31-0.46c-0.08-0.17-0.11-0.36-0.11-0.56c0-0.2,0.04-0.39,0.11-0.57
			c0.08-0.18,0.18-0.34,0.31-0.47c0.13-0.13,0.28-0.24,0.46-0.32c0.17-0.08,0.36-0.11,0.56-0.11c0.2,0,0.39,0.04,0.56,0.11
			c0.18,0.08,0.33,0.18,0.47,0.32c0.13,0.13,0.24,0.29,0.32,0.47C106.87,43.81,106.91,44,106.91,44.2z"/>
		<path class="st2" d="M112.44,44.2c0,0.2-0.04,0.39-0.12,0.56c-0.08,0.17-0.19,0.33-0.32,0.46c-0.13,0.13-0.29,0.24-0.47,0.32
			c-0.18,0.08-0.37,0.12-0.57,0.12c-0.2,0-0.39-0.04-0.56-0.12c-0.17-0.08-0.32-0.18-0.46-0.32c-0.13-0.13-0.23-0.29-0.31-0.46
			c-0.08-0.17-0.11-0.36-0.11-0.56c0-0.2,0.04-0.39,0.11-0.57c0.08-0.18,0.18-0.34,0.31-0.47c0.13-0.13,0.28-0.24,0.46-0.32
			c0.17-0.08,0.36-0.11,0.56-0.11c0.2,0,0.39,0.04,0.57,0.11c0.18,0.08,0.34,0.18,0.47,0.32c0.13,0.13,0.24,0.29,0.32,0.47
			C112.4,43.81,112.44,44,112.44,44.2z M112.01,47.86v11.65h-2.05V47.86H112.01z"/>
	</g>
</g>
</svg>
