<?xml version="1.0" encoding="utf-8"?>
<svg version="1.1" xmlns:xlink="http://www.w3.org/1999/xlink" width="5px" height="4px" xmlns="http://www.w3.org/2000/svg">
  <g transform="matrix(1 0 0 1 -34 -19 )">
    <path d="M 0.21039999999999992 1.3491999999999997  C 0.5939999999999994 2.01333  0.7426999999999992 2.64924  0.9545999999999992 3.2500799999999996  C 1.3039000000000005 3.2043299999999997  1.7049000000000003 3.2958299999999996  2.0999000000000017 3.3247999999999998  C 2.5519999999999996 3.41096  2.907399999999999 3.45061  3.2451000000000008 3.3995300000000004  C 3.4510000000000005 2.44871  3.6286999999999985 1.9736799999999999  4.0412 1.3095499999999998  C 3.8582 1.4353600000000002  3.4746999999999986 1.4811100000000001  3.3199000000000005 1.7106199999999996  C 3.091100000000001 1.51009  2.913499999999999 1.6359000000000004  2.7990999999999993 1.8478700000000003  C 2.839500000000001 1.67631  2.787600000000001 1.53296  2.5641999999999996 1.5154199999999998  C 2.696200000000001 1.2691400000000002  2.4894999999999996 1.1433299999999997  2.2783000000000015 1.25237  C 2.2722000000000016 1.0350599999999996  2.1006 1.0350599999999996  2.0892000000000017 0.9199199999999998  C 2.0601999999999983 1.0518299999999998  1.9062000000000001 0.98855  1.9291 1.3095499999999998  C 1.7575000000000003 1.1723  1.5852000000000004 1.2637999999999998  1.6546000000000003 1.50399  C 1.4426000000000005 1.50399  1.3854000000000006 1.6755500000000003  1.4083000000000006 1.8936200000000003  C 1.2650000000000006 1.5611699999999997  0.9957999999999991 1.6587699999999996  0.8989999999999991 1.7792399999999997  C 0.7327999999999992 1.4467999999999996  0.6015999999999995 1.6587699999999996  0.21729999999999983 1.3499600000000003  L 0.21039999999999992 1.3499600000000003  Z " fill-rule="nonzero" fill="#f7d256" stroke="none" transform="matrix(1 0 0 1 34 19 )" />
  </g>
</svg>