<?xml version="1.0" encoding="utf-8"?>
<svg version="1.1" xmlns:xlink="http://www.w3.org/1999/xlink" width="2px" height="4px" xmlns="http://www.w3.org/2000/svg">
  <g transform="matrix(1 0 0 1 -41 -25 )">
    <path d="M 0.12229999999999919 1.1171000000000006  L 0.12160000000000082 1.1270000000000007  L 0.23059999999999903 0.9210899999999995  C 0.9634 0.8067200000000003  1.4040999999999997 1.2932000000000006  1.1182000000000016 1.8719000000000001  C 1.7075999999999993 2.3758999999999997  1.3811999999999998 3.033899999999999  1.0265999999999984 3.1605000000000008  C 1.4506000000000014 2.8455999999999992  1.2156999999999982 2.7479999999999993  1.1470999999999982 2.7540999999999993  C 1.1700000000000017 2.7426999999999992  1.2043 2.7250999999999994  1.2332999999999998 2.6968999999999994  C 1.2104 2.4223999999999997  1.1014000000000017 2.1586  0.6782000000000004 1.8437000000000001  C 0.8902000000000001 1.6089000000000002  0.8673000000000002 1.3915000000000006  0.8383000000000003 1.2368000000000006  C 0.6035000000000004 1.1735000000000007  0.3976000000000006 1.1964000000000006  0.2137999999999991 1.2886000000000006  L 0.12229999999999919 1.1171000000000006  Z " fill-rule="nonzero" fill="#dfdde2" stroke="none" transform="matrix(1 0 0 1 41 25 )" />
  </g>
</svg>