<?xml version="1.0" encoding="utf-8"?>
<svg version="1.1" xmlns:xlink="http://www.w3.org/1999/xlink" width="3px" height="3px" xmlns="http://www.w3.org/2000/svg">
  <g transform="matrix(1 0 0 1 -39 -25 )">
    <path d="M 1.1029000000000018 2.5456000000000003  L 1.1082 2.5517000000000003  C 1.1424999999999983 2.4373000000000005  1.1715000000000018 2.2543000000000006  1.3774000000000015 2.0820000000000007  C 1.3140999999999998 2.127700000000001  1.2401000000000018 2.1849000000000007  1.1601 2.2535000000000007  C 0.8969999999999985 2.1445000000000007  0.7246999999999986 1.9042999999999992  0.6849999999999987 1.7555999999999994  C 0.8450999999999986 1.5436999999999994  1.2348 1.5779999999999994  1.2859000000000016 1.5893999999999995  C 1.1715000000000018 1.1654999999999998  1.3201999999999998 0.8505599999999998  1.4231000000000016 0.7308500000000002  C 1.7723000000000013 0.7651599999999998  1.9553000000000011 0.9428199999999993  2.098700000000001 1.1029  L 2.201599999999999 0.91385  C 2.103999999999999 0.6164799999999993  1.8120000000000012 0.3930699999999998  1.4689000000000014 0.4616900000000008  C 1.1829 0.4906699999999997  0.8505000000000003 0.7422900000000006  0.9823999999999984 1.3316999999999997  C 0.11240000000000094 1.6808999999999994  0.4845000000000006 2.5166000000000004  1.1029000000000018 2.5456000000000003  Z " fill-rule="nonzero" fill="#dfdde2" stroke="none" transform="matrix(1 0 0 1 39 25 )" />
  </g>
</svg>