<?xml version="1.0" encoding="utf-8"?>
<svg version="1.1" xmlns:xlink="http://www.w3.org/1999/xlink" width="3px" height="6px" xmlns="http://www.w3.org/2000/svg">
  <g transform="matrix(1 0 0 1 -36 -23 )">
    <path d="M 1.5317000000000007 0.15505999999999975  L 1.5256000000000007 0.1543000000000001  C 1.6629000000000005 0.40592000000000006  1.8862999999999985 0.8069800000000003  1.559899999999999 0.7269199999999998  C 2.1326 1.9979899999999997  1.5027000000000008 2.65677  1.1877999999999993 3.3666  C 0.5237000000000016 5.1013  1.6232000000000006 4.414300000000001  1.497399999999999 5.6228  C 1.8694999999999986 5.1875  1.3829999999999991 4.552300000000001  1.405899999999999 4.328900000000001  C 1.3768999999999991 4.007899999999999  1.5775000000000006 3.327  1.6461000000000006 2.90916  C 1.7260999999999989 3.1379  1.8465999999999987 3.2759  1.9953000000000003 3.3674  C 1.7376000000000005 2.4631000000000007  2.5451000000000015 0.68804  1.5317000000000007 0.15505999999999975  Z " fill-rule="nonzero" fill="#cecad5" stroke="none" transform="matrix(1 0 0 1 36 23 )" />
  </g>
</svg>