<?xml version="1.0" encoding="utf-8"?>
<svg version="1.1" xmlns:xlink="http://www.w3.org/1999/xlink" width="2px" height="3px" xmlns="http://www.w3.org/2000/svg">
  <g transform="matrix(1 0 0 1 -30 -30 )">
    <path d="M 0.7570999999999994 0.7532999999999994  C 0.8554999999999993 0.5512999999999995  0.5977999999999994 0.3910999999999998  0.6030999999999995 0.17379999999999995  C 0.6320999999999994 0.3224999999999998  0.8035999999999994 0.4947999999999997  0.8889999999999993 0.6434999999999995  C 0.9347999999999992 0.7181999999999995  0.9865999999999993 0.7525999999999993  1.0490999999999993 0.6610999999999994  L 1.1010000000000009 0.5748999999999995  C 1.2268000000000008 0.7181999999999995  1.4045000000000005 0.7982999999999993  1.6622000000000003 0.7525999999999993  L 1.3526000000000007 1.4685000000000006  C 0.9920000000000009 2.1670000000000016  0.5168999999999997 2.3156999999999996  0.041100000000000136 2.4818999999999996  L 0.18979999999999997 2.2074  C 0.8081999999999994 2.1502000000000017  1.2489000000000008 1.5372000000000003  1.4784000000000006 0.9760000000000009  C 1.3236000000000008 0.9417000000000009  1.1750000000000007 0.8783999999999992  1.0033999999999992 0.7700999999999993  L 0.2759999999999998 2.0357999999999983  L 0.7570999999999994 0.7532999999999994  Z " fill-rule="nonzero" fill="#c3bdc9" stroke="none" transform="matrix(1 0 0 1 30 30 )" />
  </g>
</svg>