<?xml version="1.0" encoding="utf-8"?>
<svg version="1.1" xmlns:xlink="http://www.w3.org/1999/xlink" width="5px" height="6px" xmlns="http://www.w3.org/2000/svg">
  <g transform="matrix(1 0 0 1 -26 -30 )">
    <path d="M 3.9626 1.2396999999999991  L 3.9565 1.2396999999999991  C 3.916079999999999 1.5370000000000008  3.9275199999999995 1.7719000000000005  3.94506 2.0066999999999986  C 2.9827999999999992 3.7132000000000005  1.3739600000000003 5.287700000000001  0.4467800000000004 5.350200000000001  C 1.6316800000000002 3.7642999999999986  2.8112399999999997 2.1264000000000003  3.9969099999999997 0.5122  C 4.0716 0.4779  4.1517 0.4260999999999999  4.2257 0.375  C 4.0998 0.5579999999999998  4.0427 0.7073999999999998  4.0198 0.8446999999999996  L 0.7677800000000001 5.0184999999999995  C 1.8558500000000002 4.927  3.6362500000000004 2.3506  3.90541 1.6575000000000006  C 3.90541 1.4515999999999991  3.9343900000000005 1.3364999999999991  3.9626 1.2396999999999991  Z " fill-rule="nonzero" fill="#c3bdc9" stroke="none" transform="matrix(1 0 0 1 26 30 )" />
  </g>
</svg>